<?xml version="1.0" encoding="UTF-8" standalone="no"?><!DOCTYPE svg PUBLIC "-//W3C//DTD SVG 1.1//EN" "http://www.w3.org/Graphics/SVG/1.1/DTD/svg11.dtd"><svg width="100%" height="100%" viewBox="0 0 309 224" version="1.1" xmlns="http://www.w3.org/2000/svg" xmlns:xlink="http://www.w3.org/1999/xlink" xml:space="preserve" xmlns:serif="http://www.serif.com/" style="fill-rule:evenodd;clip-rule:evenodd;stroke-linejoin:round;stroke-miterlimit:2;"><g id="Layer-1" serif:id="Layer 1"><path d="M168.256,69.567l10.386,15.54c13.496,-28.008 46.306,-35.009 65.423,-12.335l12.837,-13.212c-7.578,-12.903 -33.153,-18.702 -40.891,-18.394c-20.768,0.828 -38.806,11.768 -47.755,28.401m-64.506,60.394c0.247,0.037 0.495,0.072 0.744,0.103l-0.744,-0.103Zm-20.458,-10.706c0.165,0.177 0.332,0.352 0.501,0.525l-0.501,-0.525Zm-5.364,-7.531l0.115,0.217l0.263,0.484l0.099,0.178c0.119,0.212 0.24,0.422 0.364,0.63l0.075,0.126c0.099,0.165 0.198,0.329 0.299,0.491l0.149,0.237c0.104,0.165 0.209,0.329 0.316,0.491l0.066,0.104c0.136,0.205 0.273,0.407 0.413,0.609l0.121,0.172c0.102,0.145 0.206,0.29 0.31,0.435l0.142,0.195c0.139,0.189 0.28,0.377 0.423,0.563l0.094,0.121c0.126,0.163 0.254,0.325 0.384,0.486l0.118,0.146c0.132,0.162 0.265,0.324 0.4,0.484l0.083,0.098c0.158,0.186 0.319,0.371 0.481,0.554l0.122,0.135c0.133,0.149 0.268,0.296 0.403,0.442l0.124,0.133c0.165,0.177 0.332,0.352 0.501,0.525l0.061,0.061c0.155,0.159 0.313,0.316 0.472,0.471l0.165,0.16l0.405,0.386l0.14,0.13c0.177,0.165 0.357,0.328 0.539,0.489l0.122,0.107c0.148,0.131 0.298,0.26 0.45,0.389l0.164,0.139c0.178,0.15 0.357,0.298 0.539,0.445l0.023,0.018l0.006,0.005l0.052,0.041c0.173,0.139 0.346,0.275 0.522,0.41l0.181,0.139c0.145,0.11 0.292,0.22 0.439,0.328l0.177,0.131c0.195,0.141 0.392,0.281 0.589,0.418l0.126,0.087c0.163,0.113 0.327,0.224 0.492,0.332l0.188,0.125c0.201,0.131 0.402,0.261 0.605,0.389l0.012,0.007l0.013,0.009c0.207,0.13 0.416,0.256 0.626,0.381l0.186,0.11c0.164,0.097 0.33,0.192 0.496,0.286l0.162,0.093c0.213,0.119 0.428,0.237 0.644,0.352l0.158,0.082c0.174,0.092 0.35,0.183 0.527,0.272l0.185,0.094c0.209,0.104 0.419,0.206 0.63,0.306l0.047,0.022c0.23,0.108 0.462,0.215 0.695,0.318l0.167,0.073c0.18,0.079 0.361,0.157 0.543,0.233l0.189,0.079c0.225,0.093 0.451,0.183 0.678,0.271l0.162,0.062c0.192,0.074 0.384,0.145 0.578,0.215l0.174,0.063c0.211,0.075 0.424,0.148 0.636,0.219l0.104,0.036c0.235,0.078 0.471,0.153 0.708,0.226l0.209,0.063c0.19,0.057 0.38,0.112 0.571,0.166l0.182,0.052c0.247,0.068 0.496,0.135 0.745,0.198l0.054,0.013c0.235,0.059 0.471,0.116 0.708,0.17l0.176,0.039c0.211,0.048 0.424,0.094 0.637,0.137l0.142,0.029c0.252,0.051 0.505,0.099 0.758,0.143l0.173,0.03c0.199,0.034 0.399,0.067 0.599,0.097l0.226,0.035c0.247,0.037 0.495,0.072 0.744,0.103l0.024,0.003l0.077,0.009c0.223,0.028 0.448,0.053 0.674,0.076l0.244,0.024c0.196,0.019 0.391,0.036 0.587,0.052l0.218,0.017c0.253,0.018 0.507,0.034 0.763,0.048l0.173,0.007c0.213,0.011 0.427,0.018 0.642,0.024l0.197,0.005c0.268,0.007 0.537,0.011 0.807,0.011c0.268,-0 0.535,-0.004 0.801,-0.011l0.222,-0.006c0.201,-0.006 0.401,-0.013 0.602,-0.022l0.241,-0.011c0.214,-0.012 0.428,-0.025 0.641,-0.04l0.205,-0.015c0.236,-0.018 0.471,-0.039 0.705,-0.062l0.272,-0.028l0.525,-0.059l0.273,-0.034c0.235,-0.03 0.471,-0.063 0.705,-0.098l0.049,-0.007c0.26,-0.039 0.519,-0.082 0.777,-0.127l0.196,-0.035c0.197,-0.035 0.392,-0.072 0.588,-0.111l0.229,-0.046c0.222,-0.046 0.444,-0.093 0.664,-0.143l0.084,-0.019c0.251,-0.057 0.499,-0.116 0.747,-0.179l0.225,-0.058c0.178,-0.046 0.354,-0.093 0.531,-0.142l0.24,-0.067c0.181,-0.051 0.361,-0.104 0.542,-0.159l0.212,-0.063c0.235,-0.072 0.469,-0.147 0.701,-0.225l0.198,-0.067c0.179,-0.06 0.357,-0.122 0.534,-0.185l0.231,-0.084c0.166,-0.06 0.332,-0.123 0.497,-0.185l0.24,-0.092c0.218,-0.085 0.435,-0.172 0.651,-0.262l0.241,-0.102l0.464,-0.2l0.263,-0.118l0.463,-0.212l0.216,-0.101c0.221,-0.105 0.441,-0.212 0.659,-0.322l0.171,-0.088c0.158,-0.081 0.315,-0.163 0.472,-0.245l0.294,-0.158l0.346,-0.19l0.301,-0.169c0.192,-0.109 0.383,-0.219 0.571,-0.332l0.322,-0.195l0.294,-0.181l0.327,-0.206l0.307,-0.199l0.314,-0.207l0.021,-0.013c0.172,-0.117 0.345,-0.233 0.515,-0.352l0.002,-0.001l0.303,-0.217l0.266,-0.19l0.328,-0.242l0.272,-0.205l0.312,-0.239l0.207,-0.163c0.21,-0.167 0.419,-0.336 0.626,-0.508l0.211,-0.175c0.109,-0.092 0.217,-0.185 0.326,-0.279l0.208,-0.182l0.336,-0.298l0.119,-0.109c0.243,-0.221 0.483,-0.446 0.72,-0.673l0.106,-0.103l0.348,-0.343l0.156,-0.157c0.113,-0.115 0.225,-0.23 0.337,-0.346l0.101,-0.106c0.239,-0.251 0.474,-0.505 0.705,-0.763l0.061,-0.068c0.116,-0.13 0.23,-0.26 0.343,-0.392l0.116,-0.134c0.112,-0.131 0.224,-0.263 0.334,-0.396l0.05,-0.06c0.37,-0.448 0.729,-0.905 1.076,-1.372l0.067,-0.09c0.109,-0.147 0.217,-0.295 0.324,-0.444l0.046,-0.067c0.333,-0.468 0.654,-0.945 0.964,-1.43l0.075,-0.119c0.097,-0.152 0.192,-0.306 0.287,-0.461l0.039,-0.065c0.306,-0.505 0.6,-1.019 0.88,-1.541l0.032,-0.06c0.092,-0.172 0.183,-0.345 0.273,-0.52l0.017,-0.035c0.271,-0.531 0.528,-1.07 0.771,-1.616l0.04,-0.088c0.078,-0.176 0.154,-0.353 0.229,-0.53c1.689,-4.009 2.626,-8.407 2.626,-13.025c-0,-18.844 -15.563,-33.799 -34.528,-33.799c-18.969,-0 -34.774,14.955 -34.774,33.799c-0,5.559 1.376,10.801 3.802,15.428m77.398,-43.698c0.953,1.18 1.913,2.388 2.877,3.623c10.877,14.855 18.246,31.287 31.827,44.923c1.068,1.193 2.222,2.285 3.447,3.274l0.051,0.047l0.003,-0.003c15.399,12.381 41.966,8.874 49.97,-9.395l-29.089,0.205l-0,-18.809l50.392,-0c0.985,30.176 -18.993,54.119 -48.793,54.119c-15.822,-0 -30.047,-6.666 -39.884,-17.275l-0,0.002c-0.241,-0.262 -0.479,-0.525 -0.716,-0.789l-0.06,-0.067c-5.775,-6.424 -10.625,-13.168 -14.993,-20.082c-6.175,22.581 -27.111,39.202 -51.993,39.202c-13.384,-0 -25.625,-4.811 -35.043,-12.77c-10.075,-8.014 -17.116,-19.517 -19.18,-32.622c-4.646,-0.304 -8.322,-4.168 -8.322,-8.892c-0,-4.828 3.841,-8.76 8.634,-8.907c1.248,-6.446 3.703,-12.474 7.132,-17.853c-1.721,-2.87 -3.485,-5.808 -3.485,-9.177c-0,-6.849 5.553,-12.402 12.403,-12.402c4.821,-0 7.156,2.043 9.166,4.221c5.427,-3.175 11.478,-5.441 17.929,-6.585c-0.027,-0.27 -0.044,-0.566 -0.044,-0.896c-0,-4.922 3.991,-8.912 8.912,-8.912c4.922,-0 8.912,3.99 8.912,8.912c-0,0.095 -0.001,0.19 -0.005,0.284c17.179,2.2 31.812,12.373 39.952,26.624" style="fill:#99a099;"/><path d="M86.977,51.843c4.241,-1.606 6.39,-6.375 4.784,-10.616c-1.606,-4.242 -6.375,-6.391 -10.617,-4.785c-4.241,1.607 -6.39,6.376 -4.784,10.617c1.606,4.241 6.376,6.39 10.617,4.784" style="fill:#3b5153;"/><path d="M71.171,101.377c4.241,-1.606 6.39,-6.375 4.784,-10.617c-1.606,-4.241 -6.375,-6.39 -10.617,-4.784c-4.241,1.607 -6.39,6.376 -4.784,10.617c1.606,4.241 6.376,6.39 10.617,4.784" style="fill:#3b5153;"/><path d="M66.533,133.118c3.783,-1.433 5.699,-5.686 4.267,-9.469c-1.433,-3.782 -5.686,-5.699 -9.469,-4.267c-3.783,1.433 -5.699,5.686 -4.267,9.469c1.433,3.783 5.686,5.7 9.469,4.267" style="fill:#3b5153;"/><path d="M90.926,137.206c3.783,-1.433 5.699,-5.686 4.267,-9.469c-1.433,-3.782 -5.686,-5.699 -9.469,-4.267c-3.783,1.433 -5.699,5.686 -4.267,9.469c1.432,3.783 5.686,5.7 9.469,4.267" style="fill:#3b5153;"/><path d="M77.615,144.16c2.412,-0.913 3.634,-3.625 2.72,-6.037c-0.913,-2.411 -3.625,-3.633 -6.036,-2.72c-2.412,0.913 -3.634,3.625 -2.721,6.036c0.913,2.412 3.625,3.634 6.037,2.721" style="fill:#3b5153;"/><path d="M83.952,150.21c1.438,-0.545 2.167,-2.161 1.622,-3.6c-0.544,-1.437 -2.162,-2.167 -3.6,-1.622c-1.438,0.545 -2.166,2.162 -1.622,3.6c0.545,1.438 2.162,2.167 3.6,1.622" style="fill:#3b5153;"/><path d="M102.274,151.151c2.488,-0.942 3.749,-3.74 2.806,-6.228c-0.942,-2.488 -3.74,-3.749 -6.227,-2.806c-2.488,0.942 -3.749,3.74 -2.807,6.227c0.942,2.489 3.74,3.749 6.228,2.807" style="fill:#3b5153;"/><path d="M134.007,128.436c2.488,-0.942 3.749,-3.74 2.807,-6.228c-0.943,-2.488 -3.741,-3.749 -6.228,-2.806c-2.488,0.942 -3.749,3.74 -2.807,6.227c0.942,2.488 3.74,3.749 6.228,2.807" style="fill:#3b5153;"/><path d="M148.368,112.002c3.439,-1.302 5.181,-5.169 3.879,-8.608c-1.302,-3.439 -5.169,-5.181 -8.608,-3.879c-3.439,1.302 -5.181,5.169 -3.879,8.608c1.302,3.439 5.169,5.181 8.608,3.879" style="fill:#3b5153;"/><path d="M108.244,136.126c2.181,-0.826 3.285,-3.278 2.459,-5.458c-0.825,-2.181 -3.277,-3.286 -5.458,-2.46c-2.18,0.826 -3.285,3.278 -2.459,5.459c0.826,2.18 3.277,3.285 5.458,2.459" style="fill:#3b5153;"/><path d="M100.458,129.313c0.86,-0.325 1.295,-1.292 0.97,-2.152c-0.325,-0.86 -1.292,-1.295 -2.152,-0.97c-0.86,0.326 -1.296,1.293 -0.97,2.152c0.326,0.86 1.293,1.296 2.152,0.97" style="fill:#3b5153;"/><path d="M98.132,139.98c0.859,-0.326 1.295,-1.292 0.97,-2.152c-0.326,-0.86 -1.293,-1.295 -2.153,-0.97c-0.859,0.326 -1.295,1.292 -0.969,2.152c0.325,0.86 1.292,1.296 2.152,0.97" style="fill:#3b5153;"/><path d="M93.447,143.004c0.86,-0.325 1.295,-1.292 0.97,-2.152c-0.325,-0.86 -1.293,-1.295 -2.152,-0.97c-0.86,0.326 -1.296,1.293 -0.97,2.152c0.326,0.86 1.293,1.296 2.152,0.97" style="fill:#3b5153;"/><path d="M85.578,143.515c0.86,-0.326 1.295,-1.293 0.97,-2.152c-0.325,-0.86 -1.293,-1.296 -2.152,-0.971c-0.86,0.326 -1.296,1.293 -0.97,2.153c0.325,0.86 1.293,1.295 2.152,0.97" style="fill:#3b5153;"/><path d="M90.682,151.338c0.86,-0.325 1.295,-1.292 0.97,-2.151c-0.325,-0.861 -1.292,-1.296 -2.152,-0.97c-0.86,0.325 -1.296,1.292 -0.97,2.151c0.325,0.861 1.293,1.296 2.152,0.97" style="fill:#3b5153;"/><path d="M95.395,154.671c0.859,-0.325 1.295,-1.292 0.97,-2.152c-0.326,-0.86 -1.293,-1.295 -2.153,-0.97c-0.859,0.326 -1.295,1.293 -0.969,2.152c0.325,0.86 1.292,1.295 2.152,0.97" style="fill:#3b5153;"/><path d="M105.034,155.303c0.86,-0.325 1.295,-1.292 0.97,-2.152c-0.325,-0.86 -1.293,-1.295 -2.152,-0.97c-0.86,0.326 -1.296,1.293 -0.97,2.152c0.325,0.86 1.293,1.295 2.152,0.97" style="fill:#3b5153;"/><path d="M110.904,146.297c1.433,-0.542 2.159,-2.153 1.616,-3.586c-0.542,-1.434 -2.153,-2.159 -3.586,-1.616c-1.433,0.542 -2.159,2.153 -1.616,3.586c0.542,1.433 2.153,2.159 3.586,1.616" style="fill:#3b5153;"/><path d="M114.726,138.95c0.453,-0.172 0.683,-0.681 0.511,-1.134c-0.172,-0.454 -0.681,-0.683 -1.135,-0.512c-0.453,0.172 -0.682,0.682 -0.51,1.135c0.171,0.453 0.681,0.683 1.134,0.511" style="fill:#3b5153;"/><path d="M117.237,136.314c1.017,-0.385 1.533,-1.529 1.147,-2.546c-0.385,-1.017 -1.529,-1.533 -2.546,-1.148c-1.017,0.385 -1.533,1.529 -1.147,2.547c0.385,1.017 1.529,1.532 2.546,1.147" style="fill:#3b5153;"/><path d="M119.831,130.752c1.505,-0.57 2.267,-2.262 1.697,-3.767c-0.57,-1.504 -2.261,-2.267 -3.766,-1.697c-1.505,0.57 -2.267,2.262 -1.697,3.767c0.569,1.504 2.262,2.267 3.766,1.697" style="fill:#3b5153;"/><path d="M112.976,127.815c0.43,-0.163 0.648,-0.646 0.485,-1.076c-0.163,-0.43 -0.646,-0.648 -1.076,-0.486c-0.43,0.164 -0.648,0.647 -0.485,1.077c0.163,0.43 0.646,0.648 1.076,0.485" style="fill:#3b5153;"/><path d="M126.326,136.203c1.691,-0.64 2.547,-2.542 1.907,-4.232c-0.64,-1.691 -2.541,-2.548 -4.232,-1.908c-1.691,0.641 -2.548,2.542 -1.907,4.233c0.64,1.691 2.541,2.548 4.232,1.907" style="fill:#3b5153;"/><path d="M131.299,135.253c0.602,-0.228 0.907,-0.905 0.679,-1.506c-0.228,-0.602 -0.905,-0.907 -1.507,-0.68c-0.601,0.228 -0.906,0.905 -0.678,1.507c0.228,0.602 0.904,0.907 1.506,0.679" style="fill:#3b5153;"/><path d="M120.414,138.264c0.501,-0.19 0.755,-0.754 0.565,-1.255c-0.189,-0.502 -0.753,-0.756 -1.254,-0.566c-0.502,0.19 -0.756,0.754 -0.566,1.256c0.19,0.501 0.754,0.755 1.255,0.565" style="fill:#3b5153;"/><path d="M144.164,134.921c2.723,-1.031 4.102,-4.092 3.071,-6.815c-1.031,-2.722 -4.092,-4.102 -6.815,-3.071c-2.722,1.032 -4.102,4.093 -3.07,6.815c1.03,2.722 4.092,4.102 6.814,3.071" style="fill:#3b5153;"/><path d="M124.084,153.532c3.668,-1.389 5.526,-5.514 4.138,-9.182c-1.389,-3.668 -5.514,-5.526 -9.182,-4.137c-3.668,1.388 -5.527,5.513 -4.138,9.181c1.389,3.668 5.514,5.528 9.182,4.138" style="fill:#3b5153;"/><path d="M159.574,120.637c2.292,-0.868 3.454,-3.446 2.586,-5.739c-0.868,-2.292 -3.446,-3.454 -5.738,-2.586c-2.293,0.868 -3.455,3.446 -2.587,5.739c0.868,2.293 3.447,3.454 5.739,2.586" style="fill:#3b5153;"/><path d="M167.121,102.549c2.751,-1.042 4.145,-4.135 3.103,-6.886c-1.042,-2.751 -4.135,-4.145 -6.886,-3.103c-2.751,1.042 -4.145,4.135 -3.103,6.885c1.042,2.752 4.135,4.146 6.886,3.104" style="fill:#3b5153;"/><path d="M147.749,88.468c2.751,-1.042 4.144,-4.135 3.103,-6.886c-1.042,-2.752 -4.136,-4.145 -6.887,-3.103c-2.75,1.041 -4.144,4.135 -3.102,6.885c1.041,2.751 4.135,4.146 6.886,3.104" style="fill:#3b5153;"/><path d="M148.636,65.049c2.751,-1.042 4.145,-4.135 3.103,-6.886c-1.042,-2.751 -4.135,-4.145 -6.886,-3.103c-2.751,1.041 -4.145,4.135 -3.103,6.886c1.042,2.75 4.135,4.145 6.886,3.103" style="fill:#3b5153;"/><path d="M133.56,46.606c2.751,-1.042 4.145,-4.135 3.103,-6.886c-1.042,-2.751 -4.135,-4.145 -6.886,-3.103c-2.751,1.042 -4.145,4.135 -3.103,6.886c1.042,2.751 4.135,4.145 6.886,3.103" style="fill:#3b5153;"/><path d="M121.684,63.002c2.751,-1.042 4.145,-4.135 3.103,-6.886c-1.042,-2.751 -4.135,-4.145 -6.886,-3.103c-2.751,1.042 -4.145,4.135 -3.103,6.886c1.042,2.751 4.135,4.145 6.886,3.103" style="fill:#3b5153;"/><path d="M111.229,51.731c2.751,-1.042 4.145,-4.135 3.103,-6.886c-1.042,-2.751 -4.135,-4.145 -6.886,-3.103c-2.751,1.042 -4.145,4.135 -3.103,6.886c1.041,2.751 4.135,4.145 6.886,3.103" style="fill:#3b5153;"/><path d="M110.955,39.698c2.751,-1.042 4.145,-4.135 3.103,-6.886c-1.041,-2.751 -4.135,-4.145 -6.886,-3.103c-2.751,1.042 -4.145,4.135 -3.103,6.886c1.042,2.751 4.135,4.145 6.886,3.103" style="fill:#3b5153;"/><path d="M68.06,57.133c2.751,-1.042 4.145,-4.135 3.103,-6.886c-1.042,-2.751 -4.135,-4.145 -6.886,-3.103c-2.751,1.042 -4.145,4.135 -3.103,6.886c1.042,2.751 4.135,4.145 6.886,3.103" style="fill:#3b5153;"/><path d="M87.505,69.52c2.751,-1.042 4.145,-4.135 3.103,-6.886c-1.041,-2.751 -4.135,-4.145 -6.886,-3.103c-2.751,1.042 -4.145,4.135 -3.103,6.886c1.042,2.751 4.135,4.145 6.886,3.103" style="fill:#3b5153;"/><path d="M69.337,83.064c2.246,-0.851 3.384,-3.376 2.534,-5.623c-0.851,-2.246 -3.377,-3.384 -5.623,-2.534c-2.246,0.851 -3.385,3.377 -2.534,5.623c0.851,2.246 3.376,3.385 5.623,2.534" style="fill:#3b5153;"/><path d="M52.16,83.263c2.247,-0.851 3.385,-3.376 2.534,-5.623c-0.851,-2.246 -3.376,-3.384 -5.623,-2.533c-2.246,0.85 -3.384,3.376 -2.534,5.622c0.851,2.247 3.377,3.385 5.623,2.534" style="fill:#3b5153;"/><path d="M81.727,74.028c1.209,-0.458 1.822,-1.817 1.364,-3.026c-0.458,-1.209 -1.818,-1.822 -3.027,-1.364c-1.209,0.458 -1.821,1.817 -1.363,3.027c0.457,1.209 1.817,1.821 3.026,1.363" style="fill:#3b5153;"/><path d="M77.757,80.541c1.209,-0.458 1.822,-1.817 1.364,-3.026c-0.458,-1.21 -1.817,-1.823 -3.027,-1.365c-1.209,0.458 -1.821,1.818 -1.363,3.027c0.458,1.209 1.817,1.822 3.026,1.364" style="fill:#3b5153;"/><path d="M75.122,85.614c0.719,-0.272 1.083,-1.081 0.811,-1.8c-0.272,-0.719 -1.081,-1.084 -1.8,-0.811c-0.719,0.272 -1.084,1.081 -0.811,1.8c0.272,0.719 1.081,1.083 1.8,0.811" style="fill:#3b5153;"/><path d="M54.927,101.615c1.413,-0.535 2.128,-2.124 1.594,-3.536c-0.535,-1.413 -2.124,-2.129 -3.536,-1.593c-1.413,0.535 -2.129,2.123 -1.594,3.536c0.535,1.412 2.123,2.128 3.536,1.593" style="fill:#3b5153;"/><path d="M56.374,92.809c1.413,-0.535 2.128,-2.124 1.593,-3.536c-0.534,-1.413 -2.123,-2.129 -3.536,-1.593c-1.412,0.534 -2.128,2.123 -1.593,3.536c0.535,1.412 2.123,2.128 3.536,1.593" style="fill:#3b5153;"/><path d="M60.094,83.726c0.707,-0.268 1.064,-1.062 0.797,-1.768c-0.268,-0.706 -1.062,-1.065 -1.768,-0.797c-0.706,0.268 -1.065,1.062 -0.797,1.769c0.268,0.706 1.062,1.064 1.768,0.796" style="fill:#3b5153;"/><path d="M60.323,77.056c1.399,-0.53 2.108,-2.103 1.578,-3.502c-0.53,-1.399 -2.103,-2.109 -3.502,-1.579c-1.399,0.53 -2.108,2.104 -1.578,3.503c0.529,1.399 2.103,2.108 3.502,1.578" style="fill:#3b5153;"/><path d="M65.594,74.048c0.748,-0.283 1.126,-1.123 0.843,-1.87c-0.283,-0.748 -1.123,-1.126 -1.87,-0.843c-0.748,0.283 -1.126,1.123 -0.844,1.871c0.284,0.747 1.124,1.125 1.871,0.842" style="fill:#3b5153;"/><path d="M69.973,73.908c0.747,-0.283 1.126,-1.123 0.843,-1.871c-0.283,-0.747 -1.123,-1.126 -1.871,-0.843c-0.747,0.283 -1.126,1.124 -0.843,1.871c0.283,0.747 1.123,1.126 1.871,0.843" style="fill:#3b5153;"/><path d="M54.79,70.878c0.748,-0.283 1.126,-1.123 0.843,-1.87c-0.283,-0.748 -1.123,-1.127 -1.87,-0.843c-0.748,0.283 -1.126,1.123 -0.844,1.87c0.284,0.748 1.124,1.126 1.871,0.843" style="fill:#3b5153;"/><path d="M52.673,66.86c0.748,-0.283 1.126,-1.123 0.843,-1.87c-0.283,-0.748 -1.123,-1.127 -1.871,-0.843c-0.747,0.282 -1.126,1.123 -0.843,1.87c0.284,0.748 1.124,1.126 1.871,0.843" style="fill:#3b5153;"/><path d="M63.534,68.994c1.462,-0.554 2.204,-2.199 1.65,-3.661c-0.554,-1.463 -2.199,-2.204 -3.661,-1.65c-1.463,0.554 -2.204,2.199 -1.65,3.661c0.554,1.463 2.199,2.204 3.661,1.65" style="fill:#3b5153;"/><path d="M71.303,67.36c1.463,-0.554 2.204,-2.198 1.65,-3.661c-0.554,-1.463 -2.199,-2.204 -3.661,-1.65c-1.463,0.554 -2.204,2.199 -1.65,3.662c0.554,1.462 2.199,2.203 3.661,1.649" style="fill:#3b5153;"/><path d="M76.065,61.869c1.463,-0.554 2.204,-2.198 1.65,-3.661c-0.554,-1.463 -2.199,-2.204 -3.661,-1.65c-1.463,0.554 -2.204,2.199 -1.65,3.662c0.554,1.462 2.199,2.203 3.661,1.649" style="fill:#3b5153;"/><path d="M83.348,57.53c0.703,-0.266 1.059,-1.056 0.792,-1.759c-0.266,-0.702 -1.056,-1.058 -1.758,-0.792c-0.703,0.266 -1.059,1.056 -0.793,1.759c0.266,0.703 1.056,1.059 1.759,0.792" style="fill:#3b5153;"/><path d="M56.622,64.171c1.462,-0.554 2.203,-2.197 1.649,-3.659c-0.553,-1.462 -2.197,-2.203 -3.659,-1.649c-1.462,0.554 -2.203,2.197 -1.649,3.659c0.554,1.462 2.197,2.203 3.659,1.649" style="fill:#3b5153;"/><path d="M72.262,47.271c1.275,-0.483 1.922,-1.917 1.439,-3.192c-0.483,-1.276 -1.918,-1.922 -3.193,-1.439c-1.275,0.483 -1.922,1.917 -1.438,3.193c0.483,1.275 1.917,1.921 3.192,1.438" style="fill:#3b5153;"/><path d="M75.123,52.077c0.631,-0.239 0.95,-0.948 0.711,-1.578c-0.238,-0.631 -0.947,-0.95 -1.578,-0.712c-0.631,0.239 -0.95,0.948 -0.711,1.579c0.239,0.63 0.948,0.95 1.578,0.711" style="fill:#3b5153;"/><path d="M92.858,36.854c1.146,-0.434 1.727,-1.723 1.293,-2.87c-0.434,-1.146 -1.723,-1.727 -2.87,-1.293c-1.146,0.434 -1.727,1.724 -1.293,2.87c0.434,1.146 1.724,1.727 2.87,1.293" style="fill:#3b5153;"/><path d="M98.714,33.624c0.745,-0.282 1.123,-1.12 0.84,-1.865c-0.282,-0.745 -1.119,-1.123 -1.865,-0.841c-0.745,0.283 -1.122,1.121 -0.84,1.866c0.282,0.745 1.12,1.122 1.865,0.84" style="fill:#3b5153;"/><path d="M105.509,29.028c0.86,-0.326 1.295,-1.292 0.97,-2.152c-0.326,-0.86 -1.293,-1.295 -2.152,-0.97c-0.86,0.326 -1.296,1.292 -0.97,2.152c0.326,0.86 1.293,1.295 2.152,0.97" style="fill:#3b5153;"/><path d="M102.403,43.292c1.376,-0.521 2.073,-2.067 1.552,-3.443c-0.521,-1.375 -2.068,-2.073 -3.444,-1.552c-1.375,0.521 -2.072,2.068 -1.551,3.444c0.521,1.375 2.068,2.072 3.443,1.551" style="fill:#3b5153;"/><path d="M105.484,60.924c1.375,-0.521 2.073,-2.068 1.552,-3.443c-0.521,-1.376 -2.068,-2.073 -3.444,-1.552c-1.375,0.521 -2.072,2.068 -1.551,3.443c0.521,1.376 2.068,2.073 3.443,1.552" style="fill:#3b5153;"/><path d="M98.069,59.568c0.831,-0.314 1.252,-1.249 0.937,-2.08c-0.314,-0.831 -1.249,-1.252 -2.08,-0.938c-0.831,0.315 -1.252,1.25 -0.937,2.081c0.315,0.831 1.249,1.252 2.08,0.937" style="fill:#3b5153;"/><path d="M95.853,55.053c0.831,-0.315 1.252,-1.249 0.937,-2.08c-0.314,-0.832 -1.249,-1.253 -2.08,-0.938c-0.831,0.315 -1.252,1.249 -0.937,2.081c0.314,0.831 1.249,1.252 2.08,0.937" style="fill:#3b5153;"/><path d="M89.622,57.056c0.831,-0.314 1.252,-1.249 0.937,-2.08c-0.314,-0.831 -1.249,-1.253 -2.08,-0.938c-0.831,0.315 -1.252,1.249 -0.938,2.081c0.315,0.831 1.249,1.252 2.081,0.937" style="fill:#3b5153;"/><path d="M98.485,49.356c0.831,-0.315 1.252,-1.249 0.937,-2.08c-0.314,-0.831 -1.249,-1.253 -2.08,-0.938c-0.831,0.315 -1.252,1.249 -0.937,2.081c0.314,0.831 1.249,1.252 2.08,0.937" style="fill:#3b5153;"/><path d="M95.697,64.066c0.832,-0.315 1.252,-1.249 0.937,-2.081c-0.314,-0.831 -1.249,-1.252 -2.08,-0.937c-0.831,0.315 -1.252,1.249 -0.937,2.081c0.315,0.831 1.249,1.251 2.08,0.937" style="fill:#3b5153;"/><path d="M64.993,115.444c2.523,-0.955 3.801,-3.792 2.846,-6.315c-0.956,-2.523 -3.792,-3.801 -6.315,-2.846c-2.523,0.956 -3.802,3.792 -2.846,6.315c0.955,2.523 3.792,3.802 6.315,2.846" style="fill:#3b5153;"/><path d="M51.831,115.069c1.178,-0.446 1.774,-1.77 1.328,-2.947c-0.446,-1.178 -1.769,-1.774 -2.947,-1.328c-1.178,0.445 -1.775,1.77 -1.328,2.947c0.446,1.178 1.77,1.774 2.947,1.328" style="fill:#3b5153;"/><path d="M48.459,110.337c0.904,-0.342 1.361,-1.359 1.019,-2.263c-0.342,-0.904 -1.358,-1.362 -2.262,-1.019c-0.904,0.342 -1.362,1.359 -1.02,2.262c0.343,0.904 1.359,1.362 2.263,1.02" style="fill:#3b5153;"/><path d="M56.134,108.053c0.904,-0.342 1.361,-1.359 1.019,-2.263c-0.342,-0.904 -1.358,-1.362 -2.262,-1.019c-0.904,0.342 -1.362,1.358 -1.02,2.262c0.343,0.904 1.359,1.362 2.263,1.02" style="fill:#3b5153;"/><path d="M59.808,104.327c1.255,-0.475 1.89,-1.886 1.415,-3.14c-0.475,-1.255 -1.885,-1.89 -3.14,-1.415c-1.254,0.475 -1.89,1.886 -1.415,3.14c0.475,1.254 1.886,1.89 3.14,1.415" style="fill:#3b5153;"/><path d="M46.917,103.141c0.792,-0.3 1.194,-1.191 0.895,-1.983c-0.301,-0.793 -1.192,-1.194 -1.985,-0.894c-0.792,0.3 -1.194,1.191 -0.893,1.983c0.299,0.792 1.191,1.194 1.983,0.894" style="fill:#3b5153;"/><path d="M48.615,96.786c1.537,-0.582 2.316,-2.31 1.733,-3.847c-0.582,-1.537 -2.31,-2.317 -3.847,-1.735c-1.537,0.583 -2.316,2.311 -1.734,3.849c0.582,1.537 2.31,2.316 3.848,1.733" style="fill:#3b5153;"/><path d="M48.714,89.408c0.806,-0.306 1.215,-1.212 0.91,-2.019c-0.306,-0.806 -1.212,-1.214 -2.019,-0.909c-0.806,0.305 -1.215,1.212 -0.91,2.018c0.306,0.806 1.213,1.215 2.019,0.91" style="fill:#3b5153;"/><path d="M76.704,69.242c0.807,-0.305 1.215,-1.212 0.91,-2.018c-0.306,-0.807 -1.212,-1.215 -2.019,-0.91c-0.806,0.305 -1.215,1.212 -0.909,2.019c0.305,0.806 1.212,1.215 2.018,0.909" style="fill:#3b5153;"/><path d="M65.35,61.882c0.806,-0.305 1.215,-1.212 0.91,-2.018c-0.306,-0.807 -1.213,-1.215 -2.019,-0.91c-0.806,0.305 -1.215,1.212 -0.91,2.019c0.306,0.806 1.212,1.215 2.019,0.909" style="fill:#3b5153;"/><path d="M60.727,58.159c0.807,-0.305 1.215,-1.212 0.91,-2.019c-0.306,-0.806 -1.212,-1.214 -2.019,-0.909c-0.806,0.305 -1.215,1.212 -0.909,2.018c0.305,0.807 1.212,1.216 2.018,0.91" style="fill:#3b5153;"/><path d="M65.551,138.898c0.86,-0.325 1.295,-1.292 0.97,-2.152c-0.326,-0.86 -1.293,-1.295 -2.152,-0.97c-0.86,0.326 -1.296,1.293 -0.97,2.152c0.325,0.86 1.292,1.296 2.152,0.97" style="fill:#3b5153;"/><path d="M75.902,130.1c0.86,-0.326 1.295,-1.292 0.97,-2.152c-0.326,-0.86 -1.293,-1.296 -2.152,-0.97c-0.86,0.326 -1.296,1.292 -0.97,2.152c0.325,0.86 1.293,1.296 2.152,0.97" style="fill:#3b5153;"/><path d="M79.438,124.358c1.375,-0.521 2.072,-2.068 1.551,-3.443c-0.52,-1.376 -2.067,-2.073 -3.443,-1.552c-1.375,0.521 -2.072,2.068 -1.551,3.443c0.521,1.376 2.068,2.073 3.443,1.552" style="fill:#3b5153;"/><path d="M71.71,118.718c1.376,-0.521 2.073,-2.068 1.552,-3.443c-0.521,-1.376 -2.068,-2.073 -3.444,-1.552c-1.375,0.521 -2.072,2.068 -1.551,3.443c0.521,1.376 2.068,2.073 3.443,1.552" style="fill:#3b5153;"/><path d="M74.33,107.255c1.576,-0.597 2.375,-2.369 1.778,-3.945c-0.597,-1.576 -2.369,-2.375 -3.945,-1.778c-1.577,0.597 -2.375,2.369 -1.778,3.945c0.596,1.576 2.369,2.375 3.945,1.778" style="fill:#3b5153;"/><path d="M80.296,117.668c1.576,-0.597 2.375,-2.37 1.777,-3.945c-0.596,-1.576 -2.368,-2.375 -3.944,-1.778c-1.577,0.597 -2.375,2.369 -1.779,3.945c0.597,1.576 2.37,2.375 3.946,1.778" style="fill:#3b5153;"/><path d="M77.99,110.479c0.788,-0.298 1.187,-1.185 0.889,-1.972c-0.299,-0.788 -1.185,-1.188 -1.972,-0.889c-0.789,0.298 -1.188,1.184 -0.89,1.972c0.299,0.788 1.185,1.188 1.973,0.889" style="fill:#3b5153;"/><path d="M71.715,111.19c0.788,-0.298 1.187,-1.185 0.889,-1.973c-0.298,-0.788 -1.184,-1.187 -1.972,-0.889c-0.789,0.299 -1.188,1.185 -0.889,1.973c0.298,0.788 1.184,1.187 1.972,0.889" style="fill:#3b5153;"/><path d="M58.075,117.902c0.788,-0.298 1.187,-1.185 0.889,-1.973c-0.298,-0.788 -1.184,-1.187 -1.972,-0.889c-0.789,0.299 -1.188,1.185 -0.89,1.973c0.299,0.788 1.185,1.187 1.973,0.889" style="fill:#3b5153;"/><path d="M54.911,126.002c0.938,-0.355 1.414,-1.411 1.059,-2.349c-0.356,-0.939 -1.411,-1.414 -2.35,-1.059c-0.938,0.356 -1.414,1.411 -1.058,2.349c0.355,0.939 1.411,1.414 2.349,1.059" style="fill:#3b5153;"/><path d="M84.705,120.787c0.938,-0.355 1.414,-1.411 1.058,-2.349c-0.355,-0.939 -1.41,-1.414 -2.349,-1.059c-0.938,0.356 -1.414,1.411 -1.059,2.349c0.356,0.939 1.412,1.414 2.35,1.059" style="fill:#3b5153;"/><path d="M51.974,120.763c0.781,-0.295 1.176,-1.173 0.88,-1.953c-0.295,-0.78 -1.172,-1.176 -1.953,-0.88c-0.78,0.295 -1.176,1.173 -0.88,1.953c0.295,0.78 1.173,1.176 1.953,0.88" style="fill:#3b5153;"/><path d="M99.939,133.563c0.781,-0.296 1.176,-1.173 0.88,-1.954c-0.296,-0.78 -1.172,-1.175 -1.953,-0.879c-0.78,0.295 -1.176,1.172 -0.88,1.953c0.295,0.78 1.173,1.175 1.953,0.88" style="fill:#3b5153;"/><path d="M112.705,154.585c1.508,-0.57 2.272,-2.266 1.701,-3.774c-0.571,-1.508 -2.266,-2.272 -3.775,-1.701c-1.508,0.572 -2.271,2.267 -1.7,3.775c0.571,1.508 2.266,2.271 3.774,1.7" style="fill:#3b5153;"/><path d="M133.874,148.59c1.508,-0.571 2.272,-2.267 1.701,-3.774c-0.571,-1.508 -2.267,-2.272 -3.775,-1.701c-1.507,0.571 -2.27,2.266 -1.7,3.774c0.571,1.509 2.266,2.272 3.774,1.701" style="fill:#3b5153;"/><path d="M135.912,140.798c1.217,-0.461 1.834,-1.83 1.373,-3.046c-0.461,-1.218 -1.83,-1.834 -3.047,-1.373c-1.217,0.461 -1.834,1.829 -1.373,3.046c0.461,1.217 1.83,1.834 3.047,1.373" style="fill:#3b5153;"/><path d="M143.326,143.859c0.809,-0.307 1.219,-1.217 0.913,-2.026c-0.307,-0.809 -1.217,-1.219 -2.026,-0.912c-0.809,0.305 -1.219,1.215 -0.912,2.025c0.306,0.809 1.216,1.219 2.025,0.913" style="fill:#3b5153;"/><path d="M151.977,136.523c1.207,-0.457 1.818,-1.814 1.361,-3.021c-0.457,-1.208 -1.814,-1.819 -3.021,-1.362c-1.207,0.457 -1.819,1.815 -1.361,3.021c0.457,1.207 1.814,1.819 3.021,1.362" style="fill:#3b5153;"/><path d="M147.562,140.478c0.405,-0.153 0.609,-0.608 0.456,-1.013c-0.153,-0.404 -0.608,-0.609 -1.012,-0.456c-0.405,0.153 -0.61,0.608 -0.457,1.012c0.154,0.405 0.609,0.61 1.013,0.457" style="fill:#3b5153;"/><path d="M140.641,145.687c0.404,-0.153 0.609,-0.608 0.456,-1.013c-0.153,-0.405 -0.608,-0.609 -1.013,-0.457c-0.404,0.154 -0.609,0.609 -0.456,1.013c0.153,0.404 0.608,0.61 1.013,0.457" style="fill:#3b5153;"/><path d="M141.007,138.171c0.404,-0.153 0.609,-0.608 0.456,-1.013c-0.153,-0.404 -0.608,-0.609 -1.012,-0.456c-0.405,0.154 -0.61,0.608 -0.457,1.013c0.153,0.404 0.609,0.609 1.013,0.456" style="fill:#3b5153;"/><path d="M135.205,132.277c0.405,-0.153 0.609,-0.608 0.457,-1.013c-0.154,-0.404 -0.609,-0.609 -1.013,-0.456c-0.404,0.153 -0.61,0.608 -0.457,1.012c0.154,0.405 0.609,0.61 1.013,0.457" style="fill:#3b5153;"/><path d="M145.05,123.008c1.39,-0.526 2.094,-2.089 1.567,-3.479c-0.526,-1.39 -2.088,-2.094 -3.478,-1.568c-1.39,0.526 -2.094,2.089 -1.568,3.479c0.526,1.39 2.089,2.094 3.479,1.568" style="fill:#3b5153;"/><path d="M150.462,125.926c0.842,-0.319 1.269,-1.267 0.95,-2.109c-0.319,-0.843 -1.266,-1.269 -2.109,-0.951c-0.842,0.32 -1.269,1.267 -0.95,2.109c0.319,0.843 1.266,1.27 2.109,0.951" style="fill:#3b5153;"/><path d="M149.947,131.053c0.642,-0.243 0.967,-0.965 0.724,-1.607c-0.243,-0.642 -0.965,-0.967 -1.607,-0.724c-0.641,0.244 -0.967,0.965 -0.724,1.607c0.243,0.642 0.965,0.967 1.607,0.724" style="fill:#3b5153;"/><path d="M158.625,129.796c1.734,-0.656 2.612,-2.606 1.956,-4.34c-0.657,-1.734 -2.606,-2.613 -4.34,-1.956c-1.734,0.657 -2.613,2.607 -1.956,4.34c0.656,1.734 2.606,2.613 4.34,1.956" style="fill:#3b5153;"/><path d="M166.212,111.812c1.734,-0.656 2.612,-2.606 1.956,-4.34c-0.657,-1.734 -2.606,-2.613 -4.34,-1.956c-1.735,0.657 -2.613,2.607 -1.956,4.34c0.656,1.734 2.606,2.613 4.34,1.956" style="fill:#3b5153;"/><path d="M157.438,106.33c1.43,-0.542 2.155,-2.15 1.613,-3.581c-0.541,-1.43 -2.15,-2.155 -3.58,-1.613c-1.431,0.542 -2.156,2.15 -1.614,3.581c0.542,1.43 2.15,2.155 3.581,1.613" style="fill:#3b5153;"/><path d="M153.586,99.945c1.431,-0.542 2.156,-2.15 1.614,-3.581c-0.542,-1.43 -2.151,-2.155 -3.581,-1.613c-1.43,0.541 -2.155,2.15 -1.614,3.58c0.542,1.431 2.151,2.156 3.581,1.614" style="fill:#3b5153;"/><path d="M146.496,95.372c1.431,-0.542 2.156,-2.15 1.614,-3.581c-0.542,-1.43 -2.151,-2.155 -3.581,-1.613c-1.43,0.542 -2.155,2.15 -1.614,3.581c0.542,1.43 2.151,2.155 3.581,1.613" style="fill:#3b5153;"/><path d="M135.451,117.284c0.939,-0.355 1.415,-1.412 1.059,-2.351c-0.355,-0.939 -1.412,-1.415 -2.351,-1.059c-0.939,0.355 -1.415,1.411 -1.059,2.351c0.355,0.939 1.412,1.415 2.351,1.059" style="fill:#3b5153;"/><path d="M158.146,95.635c0.939,-0.356 1.415,-1.412 1.06,-2.351c-0.356,-0.94 -1.413,-1.415 -2.352,-1.06c-0.939,0.356 -1.415,1.412 -1.059,2.351c0.356,0.939 1.412,1.415 2.351,1.06" style="fill:#3b5153;"/><path d="M160.302,90.449c0.939,-0.355 1.415,-1.412 1.06,-2.351c-0.356,-0.939 -1.412,-1.415 -2.352,-1.059c-0.938,0.356 -1.415,1.411 -1.059,2.351c0.356,0.939 1.412,1.415 2.351,1.059" style="fill:#3b5153;"/><path d="M153.83,89.761c0.939,-0.356 1.415,-1.412 1.059,-2.351c-0.355,-0.939 -1.412,-1.415 -2.351,-1.06c-0.939,0.356 -1.415,1.412 -1.059,2.351c0.356,0.94 1.412,1.415 2.351,1.06" style="fill:#3b5153;"/><path d="M139.675,76.694c1.431,-0.542 2.155,-2.15 1.614,-3.581c-0.542,-1.43 -2.151,-2.155 -3.581,-1.613c-1.43,0.542 -2.156,2.15 -1.614,3.581c0.542,1.43 2.151,2.155 3.581,1.613" style="fill:#3b5153;"/><path d="M131.808,68.489c1.431,-0.542 2.155,-2.15 1.614,-3.581c-0.542,-1.43 -2.151,-2.155 -3.581,-1.613c-1.43,0.542 -2.156,2.15 -1.614,3.581c0.542,1.43 2.15,2.155 3.581,1.613" style="fill:#3b5153;"/><path d="M138.395,64.989c1.43,-0.542 2.154,-2.15 1.613,-3.581c-0.542,-1.43 -2.15,-2.155 -3.581,-1.613c-1.43,0.541 -2.156,2.15 -1.614,3.58c0.542,1.431 2.15,2.156 3.581,1.614" style="fill:#3b5153;"/><path d="M145.142,69.839c0.715,-0.271 1.078,-1.075 0.807,-1.79c-0.271,-0.715 -1.075,-1.078 -1.79,-0.807c-0.716,0.271 -1.078,1.075 -0.808,1.79c0.271,0.716 1.076,1.078 1.791,0.807" style="fill:#3b5153;"/><path d="M150.927,74.909c1.561,-0.591 2.353,-2.347 1.761,-3.908c-0.591,-1.561 -2.347,-2.353 -3.908,-1.761c-1.561,0.591 -2.353,2.347 -1.761,3.908c0.591,1.561 2.347,2.352 3.908,1.761" style="fill:#3b5153;"/><path d="M158.813,84.892c1.561,-0.591 2.353,-2.347 1.761,-3.908c-0.591,-1.561 -2.347,-2.352 -3.908,-1.761c-1.561,0.591 -2.353,2.347 -1.761,3.908c0.591,1.561 2.346,2.352 3.908,1.761" style="fill:#3b5153;"/><path d="M152.784,79.634c0.745,-0.282 1.122,-1.119 0.84,-1.864c-0.282,-0.744 -1.119,-1.121 -1.864,-0.84c-0.745,0.283 -1.122,1.12 -0.84,1.864c0.282,0.745 1.119,1.122 1.864,0.84" style="fill:#3b5153;"/><path d="M159.953,74.942c0.745,-0.282 1.122,-1.119 0.84,-1.864c-0.282,-0.744 -1.119,-1.121 -1.864,-0.84c-0.744,0.283 -1.122,1.12 -0.84,1.864c0.282,0.745 1.12,1.122 1.864,0.84" style="fill:#3b5153;"/><path d="M162.724,65.921c0.745,-0.282 1.122,-1.12 0.84,-1.864c-0.282,-0.744 -1.119,-1.122 -1.864,-0.84c-0.744,0.282 -1.122,1.12 -0.839,1.864c0.281,0.744 1.119,1.122 1.863,0.84" style="fill:#3b5153;"/><path d="M156.435,68.244c1.189,-0.451 1.792,-1.788 1.341,-2.977c-0.45,-1.189 -1.787,-1.791 -2.976,-1.341c-1.189,0.45 -1.792,1.787 -1.342,2.976c0.451,1.19 1.788,1.792 2.977,1.342" style="fill:#3b5153;"/><path d="M164.074,59.789c1.397,-0.529 2.105,-2.1 1.576,-3.497c-0.529,-1.397 -2.1,-2.104 -3.497,-1.575c-1.397,0.529 -2.104,2.1 -1.576,3.496c0.529,1.397 2.1,2.105 3.497,1.576" style="fill:#3b5153;"/><path d="M156.529,58.319c1.111,-0.421 1.674,-1.67 1.253,-2.781c-0.42,-1.111 -1.67,-1.674 -2.781,-1.253c-1.111,0.42 -1.674,1.67 -1.253,2.781c0.421,1.11 1.67,1.673 2.781,1.253" style="fill:#3b5153;"/><path d="M139.46,52.469c1.673,-0.634 2.521,-2.515 1.887,-4.188c-0.634,-1.673 -2.515,-2.521 -4.188,-1.888c-1.673,0.634 -2.521,2.515 -1.887,4.189c0.633,1.673 2.515,2.521 4.188,1.887" style="fill:#3b5153;"/><path d="M128.576,57.661c1.1,-0.417 1.657,-1.653 1.241,-2.753c-0.417,-1.101 -1.654,-1.658 -2.754,-1.241c-1.1,0.416 -1.657,1.653 -1.24,2.753c0.416,1.1 1.653,1.658 2.753,1.241" style="fill:#3b5153;"/><path d="M150.203,39.929c1.1,-0.417 1.657,-1.653 1.241,-2.753c-0.417,-1.101 -1.654,-1.658 -2.754,-1.241c-1.1,0.416 -1.657,1.653 -1.241,2.754c0.417,1.1 1.654,1.657 2.754,1.24" style="fill:#3b5153;"/><path d="M163.082,39.692c1.1,-0.417 1.657,-1.653 1.24,-2.753c-0.416,-1.101 -1.654,-1.658 -2.754,-1.242c-1.1,0.417 -1.657,1.654 -1.24,2.754c0.417,1.1 1.653,1.658 2.754,1.241" style="fill:#3b5153;"/><path d="M173.083,37.571c1.1,-0.417 1.658,-1.653 1.241,-2.753c-0.417,-1.101 -1.654,-1.658 -2.754,-1.241c-1.1,0.416 -1.657,1.653 -1.24,2.753c0.416,1.1 1.653,1.658 2.753,1.241" style="fill:#3b5153;"/><path d="M171.403,45.703c1.1,-0.417 1.658,-1.653 1.241,-2.753c-0.417,-1.101 -1.654,-1.658 -2.754,-1.241c-1.1,0.416 -1.657,1.653 -1.24,2.753c0.416,1.101 1.653,1.658 2.753,1.241" style="fill:#3b5153;"/><path d="M174.196,63.445c1.1,-0.417 1.658,-1.654 1.241,-2.754c-0.417,-1.1 -1.654,-1.657 -2.754,-1.24c-1.1,0.416 -1.657,1.653 -1.24,2.753c0.416,1.1 1.653,1.658 2.753,1.241" style="fill:#3b5153;"/><path d="M166.563,75.674c1.448,-0.548 2.182,-2.177 1.634,-3.625c-0.549,-1.448 -2.177,-2.182 -3.626,-1.634c-1.447,0.549 -2.181,2.177 -1.633,3.626c0.548,1.447 2.177,2.181 3.625,1.633" style="fill:#3b5153;"/><path d="M171.217,71.235c0.789,-0.299 1.189,-1.187 0.891,-1.976c-0.299,-0.789 -1.187,-1.189 -1.976,-0.89c-0.789,0.299 -1.189,1.186 -0.89,1.975c0.299,0.789 1.186,1.19 1.975,0.891" style="fill:#3b5153;"/><path d="M168.021,89.44c1.425,-0.54 2.148,-2.144 1.607,-3.57c-0.54,-1.426 -2.143,-2.149 -3.569,-1.609c-1.426,0.54 -2.149,2.144 -1.609,3.571c0.54,1.426 2.144,2.148 3.57,1.608" style="fill:#3b5153;"/><path d="M165.432,81.8c0.713,-0.27 1.075,-1.072 0.804,-1.785c-0.27,-0.714 -1.072,-1.075 -1.785,-0.805c-0.713,0.27 -1.074,1.072 -0.804,1.785c0.27,0.714 1.072,1.075 1.785,0.805" style="fill:#3b5153;"/><path d="M172.671,54.716c0.901,-0.341 1.357,-1.354 1.016,-2.255c-0.341,-0.901 -1.354,-1.358 -2.255,-1.017c-0.901,0.341 -1.358,1.355 -1.016,2.256c0.34,0.901 1.354,1.357 2.255,1.016" style="fill:#3b5153;"/><path d="M163.123,51.967c0.901,-0.341 1.357,-1.354 1.016,-2.255c-0.341,-0.901 -1.354,-1.358 -2.255,-1.017c-0.901,0.341 -1.358,1.355 -1.016,2.255c0.341,0.902 1.354,1.358 2.255,1.017" style="fill:#3b5153;"/><path d="M167.838,52.078c0.716,-0.271 1.08,-1.077 0.808,-1.793c-0.271,-0.716 -1.077,-1.079 -1.793,-0.808c-0.717,0.271 -1.079,1.077 -0.808,1.793c0.271,0.717 1.077,1.079 1.793,0.808" style="fill:#3b5153;"/><path d="M156.376,49.792c1.504,-0.57 2.267,-2.261 1.697,-3.766c-0.57,-1.504 -2.261,-2.266 -3.766,-1.697c-1.504,0.57 -2.266,2.262 -1.697,3.766c0.57,1.505 2.262,2.267 3.766,1.697" style="fill:#3b5153;"/><path d="M143.865,53.858c0.838,-0.317 1.263,-1.26 0.945,-2.098c-0.317,-0.838 -1.259,-1.263 -2.098,-0.945c-0.838,0.317 -1.263,1.26 -0.945,2.098c0.317,0.838 1.26,1.263 2.098,0.945" style="fill:#3b5153;"/><path d="M149.71,50.294c0.838,-0.317 1.263,-1.26 0.946,-2.098c-0.319,-0.839 -1.261,-1.263 -2.099,-0.945c-0.839,0.317 -1.263,1.259 -0.946,2.098c0.317,0.838 1.261,1.262 2.099,0.945" style="fill:#3b5153;"/><path d="M125.642,51.898c0.838,-0.317 1.263,-1.26 0.946,-2.098c-0.318,-0.839 -1.26,-1.263 -2.099,-0.946c-0.838,0.318 -1.263,1.26 -0.945,2.098c0.317,0.839 1.26,1.263 2.098,0.946" style="fill:#3b5153;"/><path d="M118.177,51.036c0.838,-0.317 1.263,-1.26 0.945,-2.098c-0.317,-0.839 -1.259,-1.263 -2.098,-0.946c-0.838,0.317 -1.263,1.26 -0.945,2.098c0.317,0.839 1.26,1.263 2.098,0.946" style="fill:#3b5153;"/><path d="M111.681,55.876c0.838,-0.317 1.263,-1.26 0.946,-2.098c-0.318,-0.839 -1.26,-1.263 -2.098,-0.946c-0.839,0.317 -1.264,1.26 -0.946,2.098c0.317,0.839 1.26,1.263 2.098,0.946" style="fill:#3b5153;"/><path d="M120.057,46.204c1.422,-0.539 2.143,-2.138 1.604,-3.56c-0.539,-1.421 -2.138,-2.142 -3.56,-1.604c-1.422,0.539 -2.143,2.138 -1.604,3.56c0.539,1.422 2.138,2.143 3.56,1.604" style="fill:#3b5153;"/><path d="M129.317,50.252c0.745,-0.282 1.123,-1.12 0.84,-1.865c-0.282,-0.745 -1.12,-1.123 -1.864,-0.841c-0.746,0.283 -1.123,1.121 -0.841,1.866c0.282,0.744 1.12,1.122 1.865,0.84" style="fill:#3b5153;"/><path d="M141.383,38.677c1.504,-0.57 2.267,-2.262 1.697,-3.766c-0.57,-1.505 -2.261,-2.267 -3.766,-1.697c-1.504,0.57 -2.267,2.261 -1.697,3.766c0.57,1.504 2.262,2.267 3.766,1.697" style="fill:#3b5153;"/><path d="M157.618,28.096c2.128,-0.806 3.206,-3.198 2.4,-5.326c-0.805,-2.128 -3.198,-3.206 -5.326,-2.4c-2.128,0.806 -3.206,3.198 -2.4,5.326c0.806,2.128 3.199,3.206 5.326,2.4" style="fill:#3b5153;"/><path d="M168.644,30.152c0.838,-0.317 1.263,-1.26 0.945,-2.098c-0.317,-0.838 -1.259,-1.263 -2.098,-0.945c-0.838,0.317 -1.263,1.259 -0.945,2.098c0.317,0.838 1.26,1.263 2.098,0.945" style="fill:#3b5153;"/><path d="M172.944,18.886c0.838,-0.317 1.263,-1.26 0.945,-2.098c-0.317,-0.839 -1.259,-1.263 -2.098,-0.945c-0.838,0.317 -1.263,1.259 -0.945,2.098c0.317,0.838 1.26,1.262 2.098,0.945" style="fill:#3b5153;"/><path d="M154.223,5.272c0.838,-0.317 1.263,-1.26 0.945,-2.098c-0.317,-0.839 -1.259,-1.263 -2.098,-0.945c-0.838,0.317 -1.263,1.259 -0.945,2.097c0.317,0.839 1.26,1.263 2.098,0.946" style="fill:#3b5153;"/><path d="M182.451,3.149c0.838,-0.317 1.263,-1.26 0.945,-2.098c-0.317,-0.838 -1.259,-1.263 -2.098,-0.945c-0.838,0.317 -1.263,1.26 -0.945,2.098c0.317,0.838 1.26,1.263 2.098,0.945" style="fill:#3b5153;"/><path d="M183.344,17.445c0.838,-0.317 1.263,-1.26 0.945,-2.098c-0.317,-0.839 -1.259,-1.263 -2.098,-0.945c-0.838,0.317 -1.263,1.259 -0.945,2.098c0.317,0.838 1.26,1.262 2.098,0.945" style="fill:#3b5153;"/><path d="M176,10.306c0.838,-0.317 1.263,-1.26 0.946,-2.098c-0.318,-0.838 -1.26,-1.263 -2.098,-0.945c-0.839,0.317 -1.264,1.259 -0.946,2.098c0.317,0.838 1.26,1.263 2.098,0.945" style="fill:#3b5153;"/><path d="M165.652,12.202c0.838,-0.317 1.263,-1.26 0.946,-2.098c-0.318,-0.838 -1.26,-1.263 -2.098,-0.945c-0.839,0.317 -1.264,1.259 -0.946,2.098c0.317,0.838 1.26,1.262 2.098,0.945" style="fill:#3b5153;"/><path d="M162.742,21.797c0.838,-0.317 1.263,-1.26 0.945,-2.098c-0.317,-0.838 -1.259,-1.263 -2.098,-0.945c-0.838,0.317 -1.263,1.259 -0.945,2.098c0.317,0.838 1.26,1.263 2.098,0.945" style="fill:#3b5153;"/><path d="M176.63,27.365c0.838,-0.317 1.263,-1.26 0.945,-2.098c-0.317,-0.839 -1.259,-1.263 -2.098,-0.945c-0.838,0.317 -1.263,1.259 -0.945,2.098c0.317,0.838 1.26,1.262 2.098,0.945" style="fill:#3b5153;"/><path d="M156.157,39.283c0.838,-0.318 1.263,-1.26 0.945,-2.098c-0.317,-0.839 -1.259,-1.263 -2.098,-0.946c-0.838,0.317 -1.263,1.26 -0.945,2.098c0.317,0.839 1.26,1.263 2.098,0.946" style="fill:#3b5153;"/><path d="M145.639,44.813c0.838,-0.317 1.263,-1.26 0.946,-2.098c-0.318,-0.839 -1.26,-1.263 -2.098,-0.946c-0.839,0.317 -1.264,1.26 -0.946,2.098c0.317,0.839 1.26,1.263 2.098,0.946" style="fill:#3b5153;"/><path d="M127.545,35.365c0.838,-0.317 1.263,-1.26 0.946,-2.098c-0.318,-0.839 -1.26,-1.263 -2.098,-0.946c-0.839,0.318 -1.264,1.26 -0.946,2.098c0.317,0.839 1.26,1.263 2.098,0.946" style="fill:#3b5153;"/><path d="M132.181,27.184c0.838,-0.317 1.263,-1.26 0.945,-2.098c-0.317,-0.838 -1.259,-1.263 -2.097,-0.945c-0.839,0.317 -1.264,1.259 -0.946,2.098c0.317,0.838 1.26,1.262 2.098,0.945" style="fill:#3b5153;"/><path d="M128.303,20.086c0.838,-0.317 1.263,-1.26 0.945,-2.098c-0.317,-0.838 -1.259,-1.263 -2.098,-0.945c-0.838,0.317 -1.263,1.259 -0.945,2.098c0.317,0.838 1.26,1.262 2.098,0.945" style="fill:#3b5153;"/><path d="M113.593,27.843c1.451,-0.55 2.186,-2.181 1.637,-3.632c-0.55,-1.451 -2.181,-2.186 -3.632,-1.636c-1.451,0.549 -2.186,2.181 -1.636,3.631c0.549,1.451 2.18,2.186 3.631,1.637" style="fill:#3b5153;"/><path d="M123.166,39.923c1.451,-0.55 2.186,-2.181 1.636,-3.632c-0.549,-1.451 -2.18,-2.185 -3.631,-1.636c-1.451,0.549 -2.186,2.181 -1.637,3.631c0.55,1.451 2.181,2.186 3.632,1.637" style="fill:#3b5153;"/><path d="M123.867,28.83c1.061,-0.401 1.599,-1.595 1.197,-2.656c-0.402,-1.06 -1.595,-1.598 -2.656,-1.197c-1.061,0.402 -1.599,1.596 -1.197,2.657c0.402,1.061 1.595,1.598 2.656,1.196" style="fill:#3b5153;"/><path d="M139.939,23.637c1.06,-0.402 1.599,-1.595 1.197,-2.656c-0.403,-1.06 -1.595,-1.598 -2.656,-1.197c-1.061,0.402 -1.6,1.596 -1.197,2.657c0.401,1.06 1.595,1.598 2.656,1.196" style="fill:#3b5153;"/><path d="M140.282,17.32c1.061,-0.402 1.599,-1.595 1.197,-2.656c-0.402,-1.061 -1.595,-1.598 -2.656,-1.197c-1.061,0.402 -1.599,1.595 -1.197,2.656c0.402,1.061 1.595,1.599 2.656,1.197" style="fill:#3b5153;"/><path d="M148.941,22.455c0.786,-0.298 1.185,-1.182 0.887,-1.968c-0.298,-0.786 -1.182,-1.184 -1.968,-0.886c-0.786,0.297 -1.184,1.181 -0.886,1.967c0.297,0.786 1.181,1.185 1.967,0.887" style="fill:#3b5153;"/><path d="M156.241,15.941c0.786,-0.298 1.185,-1.182 0.887,-1.968c-0.298,-0.786 -1.182,-1.184 -1.968,-0.886c-0.786,0.297 -1.184,1.181 -0.886,1.967c0.297,0.786 1.181,1.184 1.967,0.887" style="fill:#3b5153;"/><path d="M134.646,71.971c0.714,-0.271 1.077,-1.075 0.806,-1.791c-0.27,-0.715 -1.075,-1.077 -1.79,-0.806c-0.716,0.27 -1.078,1.075 -0.808,1.79c0.271,0.715 1.076,1.078 1.791,0.807" style="fill:#3b5153;"/><path d="M125.718,125.741c0.939,-0.356 1.415,-1.412 1.059,-2.351c-0.355,-0.939 -1.412,-1.415 -2.351,-1.06c-0.939,0.356 -1.415,1.412 -1.059,2.351c0.355,0.94 1.412,1.415 2.351,1.06" style="fill:#3b5153;"/><path d="M1.917,198.368c0,3.067 0.586,5.955 1.758,8.661c1.171,2.706 2.769,5.07 4.794,7.095c2.024,2.024 4.388,3.622 7.094,4.794c2.706,1.172 5.594,1.758 8.662,1.758c2.045,-0 4.016,-0.267 5.912,-0.799c1.896,-0.532 3.676,-1.284 5.338,-2.254c1.661,-0.969 3.174,-2.136 4.538,-3.499c1.363,-1.363 2.535,-2.871 3.515,-4.523c0.98,-1.651 1.737,-3.424 2.269,-5.321c0.533,-1.896 0.8,-3.867 0.8,-5.912c-0,-2.046 -0.267,-4.017 -0.8,-5.913c-0.532,-1.896 -1.289,-3.675 -2.269,-5.337c-0.98,-1.662 -2.152,-3.175 -3.515,-4.538c-1.364,-1.363 -2.877,-2.536 -4.538,-3.516c-1.662,-0.98 -3.442,-1.736 -5.338,-2.269c-1.896,-0.532 -3.867,-0.799 -5.912,-0.799c-2.046,-0 -4.016,0.267 -5.913,0.799c-1.896,0.533 -3.67,1.289 -5.321,2.269c-1.652,0.98 -3.159,2.153 -4.522,3.516c-1.364,1.363 -2.531,2.876 -3.5,4.538c-0.969,1.662 -1.721,3.441 -2.253,5.337c-0.533,1.896 -0.799,3.867 -0.799,5.913m-1.917,-0c-0,-2.216 0.287,-4.357 0.862,-6.424c0.576,-2.066 1.385,-4 2.429,-5.801c1.044,-1.8 2.306,-3.441 3.788,-4.921c1.48,-1.481 3.115,-2.75 4.905,-3.804c1.79,-1.055 3.718,-1.874 5.785,-2.461c2.066,-0.586 4.219,-0.879 6.456,-0.879c3.344,-0 6.487,0.64 9.428,1.918c2.94,1.278 5.513,3.02 7.718,5.226c2.205,2.205 3.947,4.777 5.226,7.717c1.278,2.941 1.917,6.084 1.917,9.429c-0,2.236 -0.293,4.389 -0.879,6.455c-0.586,2.067 -1.406,3.995 -2.461,5.785c-1.054,1.79 -2.322,3.425 -3.803,4.906c-1.481,1.481 -3.121,2.744 -4.922,3.788c-1.801,1.044 -3.734,1.853 -5.801,2.428c-2.066,0.575 -4.208,0.863 -6.423,0.863c-2.237,-0 -4.39,-0.288 -6.456,-0.863c-2.067,-0.575 -3.995,-1.384 -5.785,-2.428c-1.79,-1.044 -3.425,-2.307 -4.905,-3.788c-1.482,-1.481 -2.744,-3.116 -3.788,-4.906c-1.044,-1.79 -1.853,-3.718 -2.429,-5.785c-0.575,-2.066 -0.862,-4.219 -0.862,-6.455" style="fill:#3b5153;fill-rule:nonzero;"/><path d="M83.445,174.909c0.192,-0.298 0.426,-0.447 0.703,-0.447c0.234,-0 0.464,0.095 0.687,0.288c0.224,0.191 0.336,0.404 0.336,0.638c0,0.192 -0.064,0.395 -0.192,0.608l-15.213,22.308l15.213,22.307c0.128,0.236 0.192,0.427 0.192,0.575c0,0.214 -0.096,0.416 -0.288,0.608c-0.192,0.192 -0.437,0.288 -0.735,0.288c-0.277,-0 -0.511,-0.128 -0.703,-0.384l-14.766,-21.732l-14.701,21.732c-0.235,0.256 -0.469,0.384 -0.703,0.384c-0.213,-0 -0.442,-0.085 -0.687,-0.256c-0.246,-0.17 -0.368,-0.373 -0.368,-0.607c0,-0.192 0.075,-0.394 0.224,-0.608l15.085,-22.307l-15.085,-22.308c-0.149,-0.213 -0.224,-0.416 -0.224,-0.608c0,-0.234 0.133,-0.447 0.4,-0.638c0.266,-0.193 0.495,-0.288 0.687,-0.288c0.213,-0 0.436,0.149 0.671,0.447l14.701,21.732l14.766,-21.732Z" style="fill:#3b5153;fill-rule:nonzero;"/><path d="M121.061,174.909c0.234,-0.298 0.468,-0.447 0.703,-0.447c0.234,-0 0.474,0.095 0.719,0.288c0.245,0.191 0.368,0.404 0.368,0.638c-0,0.171 -0.086,0.374 -0.256,0.608l-15.66,26.207l-0,18.983c-0,0.597 -0.293,0.896 -0.879,0.896c-0.629,-0 -0.943,-0.299 -0.943,-0.896l-0,-18.92l-15.724,-26.27c-0.149,-0.213 -0.224,-0.404 -0.224,-0.575c-0,-0.256 0.133,-0.48 0.4,-0.671c0.266,-0.193 0.495,-0.288 0.687,-0.288c0.256,-0 0.479,0.149 0.671,0.447l15.07,25.312l15.068,-25.312Z" style="fill:#3b5153;fill-rule:nonzero;"/><path d="M165.261,202.298c0.533,0 0.831,0.267 0.895,0.799l-0,13.359c-0.043,0.171 -0.102,0.315 -0.176,0.432c-0.074,0.117 -0.207,0.207 -0.399,0.271c-2.131,1.705 -4.49,3.047 -7.079,4.027c-2.589,0.98 -5.365,1.47 -8.326,1.47c-2.237,0 -4.389,-0.288 -6.456,-0.863c-2.066,-0.575 -3.995,-1.39 -5.784,-2.444c-1.79,-1.055 -3.425,-2.318 -4.906,-3.787c-1.481,-1.471 -2.744,-3.106 -3.788,-4.907c-1.044,-1.799 -1.853,-3.728 -2.428,-5.785c-0.575,-2.055 -0.863,-4.202 -0.863,-6.439c-0,-2.216 0.288,-4.362 0.863,-6.44c0.575,-2.078 1.384,-4.016 2.428,-5.817c1.044,-1.8 2.307,-3.44 3.788,-4.922c1.481,-1.48 3.116,-2.753 4.906,-3.818c1.789,-1.066 3.718,-1.891 5.784,-2.478c2.067,-0.586 4.219,-0.879 6.456,-0.879c2.983,0 5.774,0.507 8.374,1.519c2.599,1.012 4.964,2.381 7.095,4.106c0.319,0.236 0.479,0.48 0.479,0.736c-0,0.234 -0.112,0.479 -0.336,0.735c-0.223,0.255 -0.452,0.383 -0.687,0.383c-0.235,0 -0.458,-0.107 -0.671,-0.32c-2.003,-1.662 -4.203,-2.94 -6.6,-3.834c-2.397,-0.895 -4.948,-1.343 -7.654,-1.343c-2.045,0 -4.016,0.266 -5.912,0.8c-1.897,0.532 -3.67,1.283 -5.321,2.252c-1.652,0.97 -3.16,2.136 -4.523,3.5c-1.364,1.364 -2.53,2.876 -3.499,4.539c-0.97,1.661 -1.721,3.446 -2.254,5.352c-0.532,1.907 -0.799,3.884 -0.799,5.929c-0,2.046 0.267,4.016 0.799,5.912c0.533,1.897 1.284,3.676 2.254,5.338c0.969,1.662 2.135,3.175 3.499,4.538c1.363,1.364 2.871,2.536 4.523,3.516c1.651,0.98 3.424,1.736 5.321,2.269c1.896,0.532 3.867,0.799 5.912,0.799c2.642,0 5.156,-0.443 7.543,-1.326c2.386,-0.885 4.581,-2.083 6.584,-3.596l-0,-11.762l-14.063,0c-0.618,0 -0.927,-0.298 -0.927,-0.894c-0,-0.618 0.309,-0.927 0.927,-0.927l15.021,0Z" style="fill:#3b5153;fill-rule:nonzero;"/><path d="M207.703,174.557c0.639,0 0.958,0.304 0.958,0.911c0,0.608 -0.319,0.911 -0.958,0.911l-30.042,0l0,26.252l24.609,0c0.682,0 1.022,0.32 1.022,0.957c0,0.597 -0.34,0.895 -1.022,0.895l-24.609,0l0,15.776l30.745,0c0.639,0 0.959,0.304 0.959,0.911c0,0.608 -0.32,0.911 -0.959,0.911l-31.96,0c-0.234,0 -0.399,-0.095 -0.495,-0.288c-0.096,-0.191 -0.144,-0.394 -0.144,-0.607l0,-45.733c0,-0.256 0.037,-0.448 0.112,-0.576c0.075,-0.128 0.16,-0.218 0.256,-0.272c0.095,-0.053 0.202,-0.074 0.32,-0.064c0.116,0.011 0.207,0.016 0.271,0.016l30.937,0Z" style="fill:#3b5153;fill-rule:nonzero;"/><path d="M254.331,175.484c0,-0.596 0.298,-0.895 0.895,-0.895c0.596,-0 0.895,0.299 0.895,0.895l0,47.173c-0.064,0.468 -0.341,0.703 -0.831,0.703c-0.256,-0 -0.442,-0.038 -0.56,-0.112c-0.117,-0.075 -0.229,-0.165 -0.335,-0.272l-35.283,-45.638l0,43.848c0,0.597 -0.299,0.896 -0.895,0.896c-0.639,-0 -0.959,-0.299 -0.959,-0.896l0,-46.66c0,-0.597 0.234,-0.896 0.703,-0.896c0.192,-0 0.336,0.022 0.432,0.065c0.095,0.043 0.207,0.128 0.335,0.255l35.603,45.703l0,-44.169Z" style="fill:#3b5153;fill-rule:nonzero;"/><path d="M266.635,175.484c0,-0.596 0.319,-0.895 0.958,-0.895c0.597,-0 0.896,0.299 0.896,0.895l0,45.702c0,0.597 -0.299,0.896 -0.896,0.896c-0.639,-0 -0.958,-0.299 -0.958,-0.896l0,-45.702Z" style="fill:#3b5153;fill-rule:nonzero;"/><path d="M306.329,174.909c0.192,-0.298 0.426,-0.447 0.703,-0.447c0.234,-0 0.464,0.095 0.687,0.288c0.224,0.191 0.336,0.404 0.336,0.638c-0,0.192 -0.064,0.395 -0.192,0.608l-15.213,22.308l15.213,22.307c0.128,0.236 0.192,0.427 0.192,0.575c-0,0.214 -0.096,0.416 -0.288,0.608c-0.192,0.192 -0.437,0.288 -0.735,0.288c-0.277,-0 -0.511,-0.128 -0.703,-0.384l-14.766,-21.732l-14.701,21.732c-0.235,0.256 -0.469,0.384 -0.703,0.384c-0.213,-0 -0.442,-0.085 -0.687,-0.256c-0.246,-0.17 -0.368,-0.373 -0.368,-0.607c-0,-0.192 0.075,-0.394 0.224,-0.608l15.085,-22.307l-15.085,-22.308c-0.149,-0.213 -0.224,-0.416 -0.224,-0.608c-0,-0.234 0.133,-0.447 0.4,-0.638c0.266,-0.193 0.495,-0.288 0.687,-0.288c0.213,-0 0.436,0.149 0.671,0.447l14.701,21.732l14.766,-21.732Z" style="fill:#3b5153;fill-rule:nonzero;"/></g></svg>