<?xml version="1.0" encoding="UTF-8" standalone="no"?><!DOCTYPE svg PUBLIC "-//W3C//DTD SVG 1.1//EN" "http://www.w3.org/Graphics/SVG/1.1/DTD/svg11.dtd"><svg width="100%" height="100%" viewBox="0 0 3082 1709" version="1.1" xmlns="http://www.w3.org/2000/svg" xmlns:xlink="http://www.w3.org/1999/xlink" xml:space="preserve" xmlns:serif="http://www.serif.com/" style="fill-rule:evenodd;clip-rule:evenodd;stroke-linejoin:round;stroke-miterlimit:2;"><path d="M1730.44,562.489l145.313,217.412c188.821,-391.858 647.867,-489.808 915.329,-172.571l179.604,-184.858c-106.025,-180.521 -463.837,-261.65 -572.104,-257.346c-290.571,11.579 -542.933,164.654 -668.142,397.363m-902.516,844.962c3.454,0.521 6.929,1.025 10.416,1.459l-10.416,-1.459Zm-286.217,-149.771c2.313,2.463 4.638,4.913 7,7.342l-7,-7.342Zm-75.05,-105.366l1.613,3.021l3.683,6.787l1.371,2.483c1.666,2.971 3.366,5.905 5.104,8.821l1.042,1.754c1.387,2.309 2.779,4.6 4.183,6.875l2.083,3.313c1.459,2.312 2.934,4.604 4.429,6.875l0.917,1.442c1.913,2.883 3.821,5.695 5.783,8.525l1.684,2.412c1.441,2.033 2.883,4.063 4.341,6.079l1.996,2.742c1.946,2.637 3.904,5.258 5.904,7.862l1.317,1.705c1.771,2.275 3.558,4.545 5.383,6.787l1.65,2.05c1.838,2.271 3.696,4.529 5.588,6.771l1.167,1.371c2.204,2.604 4.458,5.191 6.733,7.758l1.704,1.875c1.854,2.083 3.75,4.15 5.642,6.2l1.733,1.858c2.313,2.463 4.638,4.913 7,7.342l0.867,0.85c2.154,2.225 4.375,4.429 6.596,6.6l2.308,2.221l5.662,5.417l1.963,1.804c2.479,2.308 5,4.6 7.55,6.841l1.7,1.509c2.067,1.825 4.167,3.629 6.287,5.437l2.309,1.942c2.483,2.1 4.983,4.167 7.533,6.233l0.329,0.242l0.071,0.071l0.729,0.575c2.429,1.941 4.846,3.854 7.309,5.746l2.537,1.941c2.029,1.529 4.079,3.075 6.146,4.584l2.462,1.841c2.725,1.963 5.488,3.925 8.246,5.85l1.754,1.217c2.292,1.579 4.584,3.125 6.892,4.633l2.625,1.754c2.813,1.825 5.625,3.646 8.471,5.434l0.175,0.104l0.171,0.125c2.9,1.821 5.816,3.592 8.766,5.329l2.605,1.546c2.291,1.354 4.604,2.687 6.929,3.992l2.275,1.3c2.966,1.666 5.987,3.316 9.008,4.933l2.204,1.146c2.434,1.283 4.896,2.566 7.379,3.8l2.588,1.321c2.917,1.458 5.867,2.883 8.821,4.287l0.641,0.296c3.23,1.508 6.475,3.021 9.738,4.462l2.329,1.025c2.517,1.092 5.05,2.188 7.604,3.246l2.638,1.109c3.141,1.304 6.321,2.554 9.479,3.787l2.275,0.867c2.692,1.041 5.362,2.033 8.092,3.021l2.429,0.866c2.95,1.063 5.937,2.084 8.904,3.075l1.442,0.504c3.3,1.092 6.6,2.134 9.912,3.159l2.917,0.887c2.675,0.796 5.333,1.563 8.004,2.325l2.537,0.713c3.455,0.954 6.942,1.891 10.434,2.775l0.746,0.175c3.3,0.833 6.595,1.633 9.912,2.379l2.467,0.554c2.95,0.679 5.921,1.321 8.904,1.913l1.979,0.416c3.525,0.709 7.067,1.371 10.608,1.996l2.43,0.417c2.779,0.483 5.575,0.937 8.37,1.354l3.159,0.483c3.454,0.521 6.929,1.025 10.416,1.459l0.33,0.037l1.079,0.121c3.125,0.4 6.266,0.746 9.441,1.058l3.405,0.346c2.741,0.263 5.466,0.504 8.212,0.729l3.054,0.229c3.542,0.259 7.1,0.484 10.679,0.675l2.413,0.105c2.983,0.158 5.971,0.241 8.992,0.329l2.741,0.071c3.75,0.104 7.521,0.154 11.304,0.154c3.75,-0 7.484,-0.05 11.196,-0.154l3.109,-0.088c2.812,-0.087 5.608,-0.175 8.42,-0.312l3.388,-0.138c2.983,-0.175 5.971,-0.367 8.958,-0.575l2.863,-0.208c3.3,-0.242 6.596,-0.538 9.862,-0.867l3.817,-0.383l7.346,-0.834l3.821,-0.466c3.279,-0.417 6.579,-0.888 9.858,-1.371l0.679,-0.104c3.646,-0.542 7.275,-1.146 10.883,-1.771l2.746,-0.488c2.742,-0.504 5.467,-1.008 8.209,-1.562l3.212,-0.642c3.108,-0.641 6.217,-1.304 9.288,-1.996l1.183,-0.262c3.504,-0.8 6.979,-1.633 10.45,-2.517l3.142,-0.8c2.483,-0.641 4.95,-1.3 7.433,-1.996l3.35,-0.937c2.533,-0.713 5.05,-1.458 7.587,-2.221l2.967,-0.887c3.283,-1.005 6.563,-2.046 9.808,-3.142l2.763,-0.938c2.517,-0.833 5,-1.7 7.483,-2.587l3.229,-1.179c2.325,-0.834 4.65,-1.721 6.959,-2.588l3.354,-1.283c3.054,-1.2 6.075,-2.413 9.112,-3.663l3.367,-1.425l6.496,-2.812l3.679,-1.65l6.475,-2.967l3.021,-1.408c3.092,-1.475 6.162,-2.967 9.221,-4.496l2.396,-1.233c2.204,-1.146 4.408,-2.292 6.595,-3.438l4.117,-2.204l4.842,-2.658l4.2,-2.359c2.691,-1.529 5.366,-3.075 8.004,-4.654l4.496,-2.725l4.116,-2.533l4.584,-2.883l4.287,-2.78l4.392,-2.9l0.296,-0.187c2.412,-1.633 4.825,-3.25 7.204,-4.917l0.037,-0.016l4.234,-3.038l3.716,-2.654l4.584,-3.388l3.821,-2.862l4.354,-3.354l2.9,-2.271c2.933,-2.346 5.871,-4.708 8.75,-7.121l2.954,-2.446c1.525,-1.287 3.037,-2.587 4.562,-3.908l2.917,-2.533l4.708,-4.167l1.646,-1.529c3.404,-3.088 6.771,-6.25 10.088,-9.425l1.475,-1.442l4.879,-4.792l2.171,-2.204c1.579,-1.6 3.158,-3.212 4.721,-4.829l1.408,-1.492c3.35,-3.508 6.633,-7.066 9.862,-10.675l0.867,-0.958c1.613,-1.804 3.213,-3.625 4.792,-5.467l1.612,-1.875c1.584,-1.841 3.146,-3.679 4.688,-5.554l0.696,-0.833c5.175,-6.271 10.191,-12.658 15.054,-19.204l0.937,-1.25c1.525,-2.067 3.038,-4.129 4.529,-6.213l0.642,-0.937c4.671,-6.546 9.15,-13.213 13.492,-20l1.058,-1.667c1.354,-2.137 2.675,-4.292 4.008,-6.458l0.542,-0.904c4.288,-7.067 8.4,-14.255 12.308,-21.563l0.45,-0.833c1.284,-2.413 2.571,-4.825 3.821,-7.275l0.242,-0.504c3.783,-7.43 7.379,-14.963 10.783,-22.605l0.554,-1.233c1.092,-2.462 2.171,-4.929 3.213,-7.412c23.629,-56.092 36.733,-117.621 36.733,-182.238c0,-263.646 -217.741,-472.883 -483.071,-472.883c-265.4,-0 -486.529,209.237 -486.529,472.883c0,77.775 19.254,151.129 53.196,215.867m1082.88,-611.388c13.334,16.509 26.75,33.421 40.242,50.692c152.188,207.833 255.279,437.729 445.296,628.525c14.946,16.683 31.092,31.962 48.229,45.8l0.713,0.658l0.033,-0.05c215.45,173.229 587.154,124.167 699.133,-131.441l-406.979,2.862l0,-263.142l705.033,0c13.784,422.188 -265.729,757.171 -682.658,757.171c-221.371,0 -420.396,-93.262 -558.021,-241.7l0,0.034c-3.366,-3.663 -6.7,-7.342 -10.016,-11.042l-0.834,-0.938c-80.796,-89.879 -148.662,-184.237 -209.775,-280.954c-86.387,315.921 -379.304,548.471 -727.429,548.471c-187.258,0 -358.525,-67.308 -490.296,-178.662c-140.954,-112.134 -239.462,-273.071 -268.35,-456.425c-65,-4.25 -116.425,-58.313 -116.425,-124.409c0,-67.55 53.734,-122.55 120.8,-124.616c17.45,-90.192 51.804,-174.517 99.775,-249.775c-24.079,-40.159 -48.75,-81.267 -48.75,-128.405c0,-95.816 77.692,-173.504 173.525,-173.504c67.446,0 100.121,28.575 128.246,59.042c75.921,-44.408 160.592,-76.125 250.833,-92.133c-0.366,-3.767 -0.608,-7.917 -0.608,-12.534c0,-68.854 55.833,-124.687 124.688,-124.687c68.87,-0 124.687,55.833 124.687,124.687c0,1.334 -0.017,2.654 -0.071,3.975c240.35,30.779 445.088,173.109 558.979,372.5" style="fill:#6fc453;"/><path d="M593.271,314.501c59.341,-22.466 89.395,-89.183 66.929,-148.525c-22.467,-59.337 -89.184,-89.408 -148.542,-66.941c-59.342,22.479 -89.392,89.2 -66.929,148.541c22.467,59.338 89.204,89.409 148.542,66.925" style="fill:#3e5253;"/><path d="M372.125,1007.54c59.341,-22.463 89.412,-89.184 66.929,-148.542c-22.467,-59.337 -89.183,-89.392 -148.542,-66.925c-59.341,22.483 -89.391,89.2 -66.929,148.542c22.467,59.337 89.204,89.391 148.542,66.925" style="fill:#3e5253;"/><path d="M307.229,1451.64c52.917,-20.054 79.725,-79.567 59.687,-132.484c-20.033,-52.916 -79.545,-79.741 -132.479,-59.704c-52.916,20.05 -79.725,79.546 -59.687,132.479c20.05,52.917 79.546,79.742 132.479,59.709" style="fill:#3e5253;"/><path d="M648.516,1508.83c52.917,-20.054 79.721,-79.55 59.688,-132.483c-20.038,-52.9 -79.55,-79.725 -132.483,-59.688c-52.917,20.034 -79.721,79.546 -59.688,132.484c20.033,52.916 79.55,79.737 132.483,59.687" style="fill:#3e5253;"/><path d="M462.283,1606.12c33.75,-12.779 50.833,-50.713 38.054,-84.463c-12.775,-33.733 -50.712,-50.833 -84.441,-38.058c-33.75,12.779 -50.855,50.713 -38.075,84.446c12.779,33.75 50.712,50.85 84.462,38.075" style="fill:#3e5253;"/><path d="M550.929,1690.77c20.121,-7.638 30.329,-30.242 22.708,-50.379c-7.621,-20.104 -30.262,-30.313 -50.383,-22.692c-20.121,7.621 -30.296,30.258 -22.692,50.363c7.625,20.12 30.263,30.329 50.367,22.708" style="fill:#3e5253;"/><path d="M807.283,1703.93c34.808,-13.179 52.446,-52.329 39.254,-87.137c-13.179,-34.808 -52.329,-52.446 -87.121,-39.254c-34.808,13.179 -52.445,52.329 -39.27,87.121c13.179,34.825 52.329,52.445 87.137,39.27" style="fill:#3e5253;"/><path d="M1251.26,1386.12c34.808,-13.179 52.45,-52.329 39.271,-87.138c-13.196,-34.808 -52.342,-52.445 -87.133,-39.254c-34.813,13.179 -52.45,52.329 -39.271,87.121c13.175,34.808 52.325,52.446 87.133,39.271" style="fill:#3e5253;"/><path d="M1452.18,1156.18c48.125,-18.213 72.483,-72.309 54.271,-120.434c-18.213,-48.108 -72.309,-72.483 -120.434,-54.271c-48.108,18.213 -72.483,72.325 -54.27,120.434c18.212,48.125 72.325,72.5 120.433,54.271" style="fill:#3e5253;"/><path d="M890.808,1493.72c30.521,-11.562 45.971,-45.871 34.408,-76.375c-11.545,-30.5 -45.85,-45.971 -76.37,-34.408c-30.488,11.562 -45.955,45.866 -34.392,76.371c11.546,30.504 45.85,45.975 76.354,34.412" style="fill:#3e5253;"/><path d="M781.883,1398.39c12.033,-4.546 18.108,-18.071 13.558,-30.104c-4.545,-12.03 -18.07,-18.125 -30.104,-13.575c-12.029,4.566 -18.125,18.091 -13.575,30.104c4.567,12.033 18.092,18.141 30.121,13.575" style="fill:#3e5253;"/><path d="M749.333,1547.64c12.029,-4.567 18.125,-18.071 13.575,-30.121c-4.567,-12.029 -18.092,-18.108 -30.121,-13.558c-12.016,4.55 -18.125,18.071 -13.558,30.104c4.546,12.029 18.071,18.125 30.104,13.575" style="fill:#3e5253;"/><path d="M683.775,1589.93c12.033,-4.546 18.125,-18.071 13.579,-30.105c-4.55,-12.029 -18.092,-18.125 -30.104,-13.575c-12.034,4.567 -18.146,18.092 -13.579,30.121c4.566,12.034 18.091,18.125 30.104,13.559" style="fill:#3e5253;"/><path d="M573.687,1597.11c12.034,-4.566 18.125,-18.091 13.579,-30.12c-4.55,-12.034 -18.091,-18.125 -30.104,-13.575c-12.05,4.562 -18.141,18.087 -13.579,30.12c4.55,12.03 18.092,18.125 30.104,13.575" style="fill:#3e5253;"/><path d="M645.096,1706.55c12.029,-4.55 18.125,-18.075 13.575,-30.087c-4.546,-12.05 -18.071,-18.142 -30.105,-13.575c-12.029,4.546 -18.141,18.071 -13.575,30.104c4.55,12.029 18.092,18.125 30.105,13.558" style="fill:#3e5253;"/><path d="M928.029,1636.03c20.054,-7.587 30.208,-30.12 22.604,-50.175c-7.571,-20.07 -30.121,-30.208 -50.175,-22.604c-20.033,7.571 -30.187,30.121 -22.604,50.175c7.587,20.034 30.125,30.192 50.175,22.604" style="fill:#3e5253;"/><path d="M981.5,1533.24c6.337,-2.413 9.55,-9.534 7.137,-15.867c-2.396,-6.354 -9.512,-9.55 -15.866,-7.171c-6.338,2.413 -9.55,9.546 -7.138,15.883c2.396,6.338 9.533,9.55 15.867,7.155" style="fill:#3e5253;"/><path d="M1016.64,1496.34c14.217,-5.383 21.442,-21.392 16.042,-35.608c-5.383,-14.238 -21.392,-21.459 -35.625,-16.075c-14.221,5.395 -21.442,21.404 -16.042,35.641c5.38,14.234 21.388,21.442 35.625,16.042" style="fill:#3e5253;"/><path d="M1052.92,1418.53c21.041,-7.987 31.721,-31.65 23.733,-52.708c-7.971,-21.042 -31.633,-31.721 -52.692,-23.75c-21.058,7.983 -31.716,31.65 -23.733,52.708c7.954,21.042 31.65,31.717 52.692,23.75" style="fill:#3e5253;"/><path d="M957.004,1377.43c6.025,-2.292 9.062,-9.046 6.787,-15.05c-2.27,-6.025 -9.025,-9.08 -15.05,-6.809c-6.025,2.292 -9.062,9.046 -6.787,15.071c2.292,6.008 9.046,9.063 15.05,6.788" style="fill:#3e5253;"/><path d="M1143.79,1494.8c23.667,-8.958 35.646,-35.554 26.688,-59.2c-8.958,-23.667 -35.558,-35.662 -59.204,-26.704c-23.663,8.975 -35.659,35.558 -26.684,59.221c8.959,23.662 35.555,35.658 59.2,26.683" style="fill:#3e5253;"/><path d="M1213.38,1481.5c8.421,-3.192 12.691,-12.654 9.5,-21.075c-3.179,-8.421 -12.659,-12.692 -21.079,-9.512c-8.421,3.191 -12.671,12.67 -9.496,21.091c3.196,8.421 12.658,12.692 21.075,9.496" style="fill:#3e5253;"/><path d="M1061.07,1523.63c7.017,-2.659 10.575,-10.559 7.917,-17.555c-2.654,-7.029 -10.537,-10.587 -17.55,-7.933c-7.017,2.675 -10.575,10.554 -7.917,17.588c2.655,6.995 10.555,10.554 17.55,7.9" style="fill:#3e5253;"/><path d="M1393.38,1476.86c38.091,-14.429 57.379,-57.259 42.954,-95.35c-14.413,-38.088 -57.242,-57.396 -95.35,-42.967c-38.071,14.446 -57.375,57.275 -42.95,95.346c14.408,38.092 57.258,57.396 95.346,42.971" style="fill:#3e5253;"/><path d="M1608.97,1277.02c32.067,-12.15 48.334,-48.213 36.18,-80.296c-12.134,-32.062 -48.209,-48.333 -80.275,-36.179c-32.084,12.137 -48.334,48.212 -36.2,80.296c12.154,32.083 48.229,48.316 80.295,36.179" style="fill:#3e5253;"/><path d="M1714.56,1023.95c38.488,-14.583 58.004,-57.867 43.421,-96.354c-14.583,-38.492 -57.85,-57.988 -96.338,-43.404c-38.491,14.566 -58.004,57.846 -43.42,96.321c14.583,38.504 57.845,58.004 96.337,43.437" style="fill:#3e5253;"/><path d="M1443.52,826.93c38.488,-14.562 58.005,-57.845 43.421,-96.333c-14.583,-38.508 -57.85,-57.987 -96.337,-43.421c-38.492,14.567 -58.004,57.863 -43.421,96.338c14.567,38.487 57.846,58 96.337,43.416" style="fill:#3e5253;"/><path d="M1455.95,499.276c38.491,-14.566 57.987,-57.846 43.404,-96.337c-14.567,-38.488 -57.85,-57.988 -96.338,-43.421c-38.491,14.567 -57.987,57.867 -43.421,96.354c14.584,38.475 57.867,57.988 96.355,43.404" style="fill:#3e5253;"/><path d="M1245.01,241.239c38.492,-14.584 58.004,-57.867 43.421,-96.354c-14.583,-38.492 -57.846,-57.988 -96.338,-43.405c-38.487,14.567 -58.004,57.846 -43.42,96.338c14.583,38.487 57.85,57.987 96.337,43.421" style="fill:#3e5253;"/><path d="M1078.85,470.63c38.487,-14.583 58.004,-57.845 43.42,-96.337c-14.583,-38.488 -57.85,-58.004 -96.337,-43.421c-38.492,14.583 -58.004,57.85 -43.421,96.338c14.583,38.491 57.846,58.004 96.338,43.42" style="fill:#3e5253;"/><path d="M932.579,312.939c38.487,-14.567 57.983,-57.846 43.4,-96.338c-14.563,-38.487 -57.846,-57.983 -96.333,-43.421c-38.492,14.584 -57.988,57.867 -43.421,96.355c14.566,38.491 57.862,57.987 96.354,43.404" style="fill:#3e5253;"/><path d="M928.741,144.589c38.488,-14.567 57.988,-57.846 43.421,-96.338c-14.566,-38.487 -57.866,-57.987 -96.354,-43.421c-38.492,14.584 -57.987,57.867 -43.404,96.355c14.567,38.491 57.846,57.987 96.337,43.404" style="fill:#3e5253;"/><path d="M328.604,388.53c38.487,-14.583 57.983,-57.866 43.417,-96.354c-14.584,-38.491 -57.863,-57.987 -96.355,-43.404c-38.487,14.567 -57.983,57.846 -43.4,96.338c14.567,38.487 57.846,57.987 96.338,43.42" style="fill:#3e5253;"/><path d="M600.65,561.826c38.491,-14.562 58.004,-57.846 43.421,-96.333c-14.567,-38.492 -57.846,-57.988 -96.338,-43.421c-38.487,14.583 -58.004,57.863 -43.421,96.354c14.584,38.488 57.85,57.984 96.338,43.4" style="fill:#3e5253;"/><path d="M346.466,751.326c31.425,-11.912 47.346,-47.241 35.45,-78.666c-11.908,-31.421 -47.237,-47.359 -78.662,-35.467c-31.421,11.908 -47.358,47.258 -35.467,78.679c11.909,31.425 47.238,47.363 78.679,35.454" style="fill:#3e5253;"/><path d="M106.137,754.101c31.442,-11.908 47.363,-47.221 35.45,-78.662c-11.908,-31.425 -47.237,-47.342 -78.679,-35.45c-31.425,11.891 -47.346,47.237 -35.45,78.662c11.908,31.442 47.254,47.363 78.679,35.45" style="fill:#3e5253;"/><path d="M519.816,624.901c16.913,-6.408 25.488,-25.416 19.08,-42.346c-6.405,-16.908 -25.434,-25.483 -42.342,-19.079c-16.929,6.409 -25.488,25.417 -19.079,42.363c6.404,16.908 25.433,25.466 42.341,19.062" style="fill:#3e5253;"/><path d="M464.262,716.014c16.925,-6.409 25.504,-25.417 19.096,-42.329c-6.404,-16.925 -25.433,-25.505 -42.358,-19.096c-16.913,6.404 -25.471,25.433 -19.063,42.341c6.404,16.93 25.417,25.505 42.325,19.084" style="fill:#3e5253;"/><path d="M427.404,787.001c10.054,-3.8 15.158,-15.121 11.337,-25.191c-3.804,-10.05 -15.12,-15.155 -25.175,-11.338c-10.066,3.804 -15.17,15.125 -11.354,25.175c3.804,10.071 15.121,15.158 25.192,11.354" style="fill:#3e5253;"/><path d="M144.854,1010.87c19.754,-7.483 29.771,-29.721 22.292,-49.479c-7.484,-19.754 -29.709,-29.775 -49.463,-22.292c-19.775,7.5 -29.792,29.704 -22.308,49.479c7.479,19.759 29.704,29.775 49.479,22.292" style="fill:#3e5253;"/><path d="M165.096,887.66c19.775,-7.48 29.775,-29.705 22.291,-49.459c-7.483,-19.775 -29.704,-29.791 -49.479,-22.291c-19.758,7.462 -29.775,29.704 -22.292,49.479c7.5,19.754 29.705,29.771 49.48,22.271" style="fill:#3e5253;"/><path d="M217.146,760.576c9.875,-3.75 14.875,-14.858 11.145,-24.737c-3.75,-9.879 -14.862,-14.896 -24.741,-11.146c-9.879,3.75 -14.896,14.862 -11.146,24.758c3.75,9.875 14.862,14.875 24.742,11.125" style="fill:#3e5253;"/><path d="M220.354,667.264c19.567,-7.417 29.479,-29.413 22.067,-48.996c-7.413,-19.567 -29.425,-29.496 -48.992,-22.083c-19.567,7.412 -29.496,29.429 -22.083,49.012c7.412,19.567 29.425,29.496 49.008,22.067" style="fill:#3e5253;"/><path d="M294.087,625.197c10.471,-3.975 15.767,-15.712 11.809,-26.162c-3.959,-10.471 -15.713,-15.767 -26.167,-11.809c-10.467,3.959 -15.763,15.713 -11.804,26.184c3.958,10.45 15.712,15.745 26.162,11.787" style="fill:#3e5253;"/><path d="M355.354,623.218c10.454,-3.958 15.767,-15.713 11.808,-26.183c-3.958,-10.45 -15.712,-15.746 -26.183,-11.788c-10.45,3.958 -15.763,15.729 -11.804,26.183c3.975,10.45 15.712,15.746 26.179,11.788" style="fill:#3e5253;"/><path d="M142.925,580.822c10.471,-3.958 15.762,-15.712 11.787,-26.162c-3.958,-10.471 -15.712,-15.767 -26.162,-11.792c-10.45,3.958 -15.746,15.712 -11.804,26.167c3.975,10.466 15.729,15.745 26.179,11.787" style="fill:#3e5253;"/><path d="M113.325,524.622c10.45,-3.958 15.746,-15.712 11.787,-26.162c-3.958,-10.467 -15.712,-15.763 -26.179,-11.805c-10.454,3.959 -15.746,15.713 -11.787,26.163c3.975,10.467 15.729,15.762 26.179,11.804" style="fill:#3e5253;"/><path d="M265.271,554.468c20.45,-7.746 30.833,-30.767 23.087,-51.217c-7.758,-20.466 -30.779,-30.833 -51.233,-23.091c-20.467,7.762 -30.834,30.783 -23.071,51.233c7.742,20.471 30.762,30.833 51.217,23.075" style="fill:#3e5253;"/><path d="M373.966,531.618c20.471,-7.758 30.834,-30.763 23.092,-51.229c-7.762,-20.471 -30.767,-30.834 -51.217,-23.075c-20.466,7.741 -30.85,30.762 -23.091,51.233c7.746,20.45 30.766,30.817 51.216,23.071" style="fill:#3e5253;"/><path d="M440.6,454.78c20.466,-7.745 30.833,-30.745 23.071,-51.216c-7.742,-20.467 -30.763,-30.834 -51.213,-23.092c-20.471,7.763 -30.833,30.767 -23.092,51.233c7.759,20.455 30.763,30.834 51.234,23.075" style="fill:#3e5253;"/><path d="M542.491,394.085c9.825,-3.734 14.809,-14.775 11.075,-24.617c-3.712,-9.808 -14.775,-14.792 -24.6,-11.079c-9.825,3.716 -14.808,14.775 -11.091,24.621c3.729,9.825 14.771,14.808 24.616,11.075" style="fill:#3e5253;"/><path d="M168.566,487.001c20.455,-7.758 30.817,-30.746 23.075,-51.196c-7.745,-20.454 -30.745,-30.816 -51.2,-23.075c-20.45,7.763 -30.816,30.746 -23.07,51.2c7.758,20.45 30.745,30.813 51.195,23.071" style="fill:#3e5253;"/><path d="M387.387,250.543c17.846,-6.754 26.892,-26.821 20.138,-44.654c-6.771,-17.863 -26.838,-26.892 -44.688,-20.138c-17.829,6.754 -26.875,26.825 -20.104,44.671c6.754,17.846 26.825,26.875 44.654,20.121" style="fill:#3e5253;"/><path d="M427.404,317.785c8.837,-3.334 13.3,-13.267 9.95,-22.067c-3.317,-8.838 -13.25,-13.3 -22.067,-9.967c-8.837,3.334 -13.3,13.263 -9.95,22.084c3.334,8.82 13.267,13.3 22.067,9.95" style="fill:#3e5253;"/><path d="M675.546,104.797c16.025,-6.075 24.166,-24.117 18.091,-40.158c-6.075,-16.042 -24.116,-24.167 -40.158,-18.088c-16.042,6.075 -24.167,24.113 -18.088,40.154c6.075,16.025 24.113,24.167 40.155,18.092" style="fill:#3e5253;"/><path d="M757.475,59.605c10.433,-3.941 15.712,-15.658 11.754,-26.091c-3.942,-10.417 -15.646,-15.713 -26.096,-11.754c-10.417,3.958 -15.696,15.675 -11.754,26.091c3.958,10.434 15.679,15.696 26.096,11.754" style="fill:#3e5253;"/><path d="M809.087,194.868c19.254,-7.275 29.013,-28.908 21.721,-48.163c-7.292,-19.233 -28.942,-29.008 -48.179,-21.716c-19.254,7.291 -28.992,28.941 -21.7,48.191c7.275,19.238 28.925,28.98 48.158,21.688" style="fill:#3e5253;"/><path d="M852.196,441.568c19.237,-7.292 28.991,-28.925 21.72,-48.179c-7.291,-19.234 -28.941,-28.992 -48.195,-21.7c-19.238,7.291 -28.992,28.925 -21.7,48.158c7.291,19.254 28.937,29.013 48.175,21.721" style="fill:#3e5253;"/><path d="M748.462,422.593c11.617,-4.392 17.517,-17.483 13.109,-29.1c-4.392,-11.629 -17.484,-17.517 -29.113,-13.125c-11.617,4.412 -17.521,17.483 -13.108,29.117c4.408,11.633 17.483,17.516 29.112,13.108" style="fill:#3e5253;"/><path d="M717.458,359.414c11.629,-4.409 17.517,-17.463 13.104,-29.096c-4.391,-11.633 -17.479,-17.533 -29.096,-13.125c-11.633,4.408 -17.516,17.483 -13.108,29.112c4.392,11.634 17.467,17.521 29.1,13.109" style="fill:#3e5253;"/><path d="M630.271,387.435c11.629,-4.392 17.516,-17.463 13.104,-29.096c-4.392,-11.634 -17.463,-17.534 -29.096,-13.125c-11.633,4.408 -17.517,17.483 -13.125,29.112c4.408,11.634 17.483,17.521 29.117,13.109" style="fill:#3e5253;"/><path d="M754.279,279.71c11.633,-4.409 17.517,-17.467 13.108,-29.096c-4.391,-11.634 -17.483,-17.538 -29.096,-13.125c-11.633,4.408 -17.52,17.483 -13.108,29.112c4.392,11.634 17.463,17.517 29.096,13.109" style="fill:#3e5253;"/><path d="M715.271,485.51c11.629,-4.392 17.516,-17.467 13.104,-29.117c-4.392,-11.613 -17.463,-17.517 -29.096,-13.108c-11.633,4.412 -17.517,17.483 -13.108,29.116c4.412,11.634 17.466,17.517 29.1,13.109" style="fill:#3e5253;"/><path d="M285.687,1204.36c35.292,-13.371 53.175,-53.059 39.825,-88.35c-13.387,-35.313 -53.054,-53.179 -88.366,-39.829c-35.296,13.387 -53.196,53.058 -39.813,88.35c13.371,35.312 53.058,53.195 88.354,39.829" style="fill:#3e5253;"/><path d="M101.537,1199.1c16.475,-6.233 24.809,-24.754 18.575,-41.233c-6.25,-16.475 -24.758,-24.808 -41.233,-18.575c-16.492,6.233 -24.842,24.775 -18.575,41.233c6.233,16.475 24.758,24.825 41.233,18.575" style="fill:#3e5253;"/><path d="M54.366,1132.9c12.638,-4.791 19.046,-19.012 14.255,-31.666c-4.792,-12.642 -18.996,-19.046 -31.65,-14.254c-12.638,4.791 -19.063,19.008 -14.271,31.65c4.808,12.637 19.008,19.062 31.666,14.27" style="fill:#3e5253;"/><path d="M161.746,1100.94c12.637,-4.775 19.045,-19.013 14.254,-31.667c-4.792,-12.637 -18.996,-19.046 -31.65,-14.254c-12.642,4.792 -19.063,19.013 -14.271,31.65c4.808,12.654 19.008,19.063 31.667,14.271" style="fill:#3e5253;"/><path d="M213.133,1048.83c17.554,-6.65 26.442,-26.391 19.792,-43.941c-6.634,-17.555 -26.371,-26.442 -43.925,-19.792c-17.55,6.65 -26.438,26.387 -19.792,43.921c6.633,17.554 26.375,26.458 43.925,19.812" style="fill:#3e5253;"/><path d="M32.787,1032.23c11.075,-4.2 16.7,-16.666 12.517,-27.758c-4.2,-11.096 -16.667,-16.704 -27.763,-12.5c-11.091,4.2 -16.716,16.667 -12.5,27.742c4.188,11.075 16.667,16.7 27.746,12.516" style="fill:#3e5253;"/><path d="M56.537,943.322c21.509,-8.142 32.413,-32.329 24.254,-53.837c-8.145,-21.492 -32.329,-32.413 -53.82,-24.271c-21.513,8.158 -32.413,32.341 -24.271,53.854c8.141,21.508 32.325,32.396 53.837,24.254" style="fill:#3e5253;"/><path d="M57.925,840.076c11.283,-4.271 16.996,-16.946 12.741,-28.25c-4.287,-11.266 -16.958,-16.979 -28.245,-12.708c-11.284,4.271 -17.013,16.962 -12.742,28.229c4.287,11.288 16.979,17 28.246,12.729" style="fill:#3e5253;"/><path d="M449.541,557.939c11.284,-4.271 16.996,-16.946 12.725,-28.229c-4.287,-11.284 -16.962,-16.996 -28.245,-12.725c-11.288,4.254 -17,16.945 -12.73,28.245c4.271,11.267 16.963,16.996 28.25,12.709" style="fill:#3e5253;"/><path d="M290.687,454.972c11.267,-4.271 16.996,-16.962 12.725,-28.25c-4.287,-11.283 -16.979,-16.996 -28.246,-12.725c-11.287,4.271 -17,16.963 -12.729,28.246c4.271,11.287 16.946,17 28.25,12.729" style="fill:#3e5253;"/><path d="M226,402.889c11.3,-4.271 17.012,-16.963 12.741,-28.25c-4.287,-11.284 -16.962,-16.996 -28.245,-12.725c-11.288,4.271 -16.996,16.962 -12.725,28.229c4.27,11.304 16.958,17.017 28.229,12.746" style="fill:#3e5253;"/><path d="M293.479,1532.51c12.033,-4.55 18.125,-18.075 13.579,-30.12c-4.567,-12.034 -18.092,-18.109 -30.104,-13.559c-12.033,4.563 -18.142,18.088 -13.579,30.104c4.55,12.03 18.075,18.125 30.104,13.575" style="fill:#3e5253;"/><path d="M438.308,1409.4c12.029,-4.55 18.125,-18.071 13.575,-30.104c-4.567,-12.029 -18.092,-18.125 -30.104,-13.575c-12.029,4.567 -18.142,18.087 -13.575,30.121c4.546,12.029 18.087,18.125 30.104,13.558" style="fill:#3e5253;"/><path d="M487.787,1329.07c19.234,-7.292 28.992,-28.925 21.7,-48.158c-7.275,-19.255 -28.925,-29.013 -48.175,-21.721c-19.237,7.291 -28.996,28.925 -21.704,48.158c7.292,19.254 28.942,29.013 48.179,21.721" style="fill:#3e5253;"/><path d="M379.662,1250.16c19.254,-7.292 29.009,-28.938 21.717,-48.175c-7.292,-19.255 -28.942,-28.992 -48.192,-21.721c-19.237,7.291 -28.996,28.941 -21.704,48.179c7.292,19.254 28.942,29.008 48.179,21.717" style="fill:#3e5253;"/><path d="M416.312,1089.78c22.046,-8.35 33.229,-33.141 24.875,-55.191c-8.35,-22.05 -33.141,-33.229 -55.187,-24.879c-22.067,8.35 -33.229,33.141 -24.879,55.191c8.333,22.05 33.141,33.229 55.191,24.879" style="fill:#3e5253;"/><path d="M499.783,1235.45c22.05,-8.35 33.229,-33.141 24.863,-55.191c-8.334,-22.046 -33.125,-33.229 -55.175,-24.875c-22.067,8.35 -33.23,33.158 -24.896,55.208c8.35,22.046 33.158,33.229 55.208,24.858" style="fill:#3e5253;"/><path d="M467.525,1134.88c11.025,-4.167 16.616,-16.58 12.45,-27.588c-4.184,-11.025 -16.579,-16.617 -27.604,-12.429c-11.025,4.167 -16.617,16.562 -12.45,27.583c4.183,11.025 16.579,16.617 27.604,12.434" style="fill:#3e5253;"/><path d="M379.729,1144.83c11.025,-4.166 16.6,-16.579 12.433,-27.604c-4.166,-11.025 -16.562,-16.596 -27.587,-12.429c-11.042,4.183 -16.617,16.579 -12.429,27.604c4.166,11.025 16.562,16.596 27.583,12.429" style="fill:#3e5253;"/><path d="M188.896,1238.76c11.025,-4.166 16.616,-16.579 12.433,-27.604c-4.167,-11.025 -16.563,-16.616 -27.588,-12.45c-11.041,4.188 -16.616,16.584 -12.45,27.604c4.188,11.025 16.584,16.617 27.605,12.45" style="fill:#3e5253;"/><path d="M144.625,1352.07c13.125,-4.967 19.775,-19.742 14.812,-32.867c-4.983,-13.141 -19.741,-19.791 -32.883,-14.825c-13.125,4.984 -19.775,19.738 -14.792,32.863c4.967,13.146 19.738,19.792 32.863,14.829" style="fill:#3e5253;"/><path d="M561.466,1279.1c13.125,-4.962 19.792,-19.737 14.809,-32.862c-4.963,-13.142 -19.738,-19.775 -32.863,-14.809c-13.125,4.98 -19.791,19.738 -14.829,32.863c4.983,13.125 19.758,19.775 32.883,14.808" style="fill:#3e5253;"/><path d="M103.533,1278.77c10.921,-4.133 16.442,-16.404 12.308,-27.325c-4.133,-10.904 -16.404,-16.442 -27.325,-12.308c-10.92,4.129 -16.458,16.404 -12.308,27.325c4.129,10.921 16.404,16.458 27.325,12.308" style="fill:#3e5253;"/><path d="M774.608,1457.85c10.938,-4.129 16.458,-16.404 12.308,-27.325c-4.129,-10.921 -16.387,-16.441 -27.308,-12.308c-10.921,4.129 -16.458,16.404 -12.325,27.325c4.133,10.921 16.425,16.442 27.325,12.308" style="fill:#3e5253;"/><path d="M1249.4,1668.11c21.112,-7.988 31.787,-31.721 23.804,-52.813c-7.988,-21.096 -31.721,-31.787 -52.813,-23.804c-21.095,8.004 -31.77,31.721 -23.787,52.813c7.987,21.112 31.704,31.787 52.796,23.804" style="fill:#3e5253;"/><path d="M1277.91,1559.09c17.029,-6.442 25.658,-25.609 19.217,-42.605c-6.459,-17.05 -25.604,-25.658 -42.638,-19.216c-17.012,6.458 -25.658,25.587 -19.2,42.621c6.442,17.029 25.609,25.658 42.621,19.2" style="fill:#3e5253;"/><path d="M1381.64,1601.91c11.317,-4.304 17.046,-17.029 12.775,-28.35c-4.304,-11.321 -17.029,-17.05 -28.35,-12.759c-11.316,4.271 -17.045,16.996 -12.758,28.334c4.288,11.316 17.013,17.046 28.333,12.775" style="fill:#3e5253;"/><path d="M1502.68,1499.26c16.892,-6.392 25.433,-25.367 19.046,-42.259c-6.408,-16.908 -25.383,-25.45 -42.275,-19.062c-16.892,6.387 -25.454,25.4 -19.046,42.275c6.404,16.875 25.383,25.45 42.275,19.046" style="fill:#3e5253;"/><path d="M1440.91,1554.61c5.675,-2.133 8.525,-8.508 6.388,-14.166c-2.154,-5.659 -8.509,-8.525 -14.167,-6.388c-5.658,2.15 -8.525,8.504 -6.387,14.167c2.15,5.658 8.525,8.525 14.166,6.387" style="fill:#3e5253;"/><path d="M1344.07,1627.49c5.658,-2.138 8.525,-8.509 6.387,-14.167c-2.15,-5.679 -8.504,-8.525 -14.183,-6.408c-5.642,2.154 -8.525,8.525 -6.371,14.183c2.137,5.646 8.508,8.525 14.167,6.392" style="fill:#3e5253;"/><path d="M1349.19,1522.33c5.663,-2.133 8.525,-8.504 6.392,-14.183c-2.154,-5.642 -8.508,-8.508 -14.167,-6.371c-5.662,2.154 -8.525,8.509 -6.391,14.167c2.137,5.658 8.525,8.525 14.166,6.387" style="fill:#3e5253;"/><path d="M1268.03,1439.87c5.658,-2.138 8.508,-8.508 6.387,-14.167c-2.15,-5.662 -8.52,-8.525 -14.166,-6.391c-5.659,2.154 -8.542,8.508 -6.404,14.166c2.154,5.663 8.525,8.542 14.183,6.392" style="fill:#3e5253;"/><path d="M1405.75,1310.2c19.462,-7.362 29.308,-29.237 21.929,-48.683c-7.362,-19.442 -29.221,-29.304 -48.662,-21.942c-19.446,7.358 -29.292,29.233 -21.93,48.679c7.363,19.446 29.221,29.288 48.663,21.946" style="fill:#3e5253;"/><path d="M1481.48,1351.01c11.788,-4.463 17.763,-17.729 13.3,-29.517c-4.462,-11.787 -17.708,-17.742 -29.512,-13.296c-11.771,4.479 -17.746,17.725 -13.284,29.513c4.463,11.787 17.709,17.758 29.496,13.3" style="fill:#3e5253;"/><path d="M1474.28,1422.75c8.975,-3.4 13.525,-13.504 10.121,-22.483c-3.4,-8.992 -13.488,-13.542 -22.484,-10.138c-8.958,3.421 -13.52,13.509 -10.12,22.484c3.404,8.991 13.491,13.541 22.483,10.137" style="fill:#3e5253;"/><path d="M1595.7,1405.14c24.254,-9.167 36.546,-36.458 27.358,-60.713c-9.183,-24.27 -36.458,-36.562 -60.708,-27.375c-24.292,9.2 -36.563,36.475 -27.379,60.73c9.183,24.25 36.458,36.562 60.729,27.358" style="fill:#3e5253;"/><path d="M1701.85,1153.53c24.254,-9.166 36.546,-36.458 27.358,-60.712c-9.2,-24.271 -36.458,-36.563 -60.729,-27.379c-24.271,9.2 -36.542,36.475 -27.358,60.729c9.183,24.254 36.458,36.562 60.729,27.362" style="fill:#3e5253;"/><path d="M1579.09,1076.83c20,-7.566 30.142,-30.066 22.571,-50.083c-7.571,-20.021 -30.087,-30.158 -50.087,-22.571c-20.034,7.571 -30.175,30.071 -22.588,50.104c7.588,20 30.088,30.138 50.104,22.55" style="fill:#3e5253;"/><path d="M1525.2,987.505c20.016,-7.587 30.154,-30.087 22.587,-50.104c-7.587,-20 -30.104,-30.137 -50.104,-22.571c-20.017,7.571 -30.158,30.088 -22.587,50.088c7.587,20.033 30.087,30.175 50.104,22.587" style="fill:#3e5253;"/><path d="M1426,923.53c20.016,-7.587 30.154,-30.087 22.566,-50.104c-7.587,-20 -30.087,-30.158 -50.104,-22.571c-20,7.588 -30.137,30.088 -22.566,50.105c7.566,20 30.083,30.158 50.104,22.57" style="fill:#3e5253;"/><path d="M1271.47,1230.09c13.125,-4.967 19.792,-19.758 14.809,-32.883c-4.963,-13.142 -19.754,-19.809 -32.9,-14.825c-13.125,4.962 -19.792,19.737 -14.809,32.9c4.967,13.125 19.759,19.791 32.9,14.808" style="fill:#3e5253;"/><path d="M1588.98,927.21c13.142,-4.984 19.808,-19.759 14.846,-32.9c-4.983,-13.159 -19.775,-19.792 -32.917,-14.825c-13.141,4.983 -19.791,19.758 -14.808,32.883c4.979,13.142 19.754,19.808 32.879,14.842" style="fill:#3e5253;"/><path d="M1619.16,854.66c13.125,-4.967 19.792,-19.759 14.825,-32.9c-4.983,-13.142 -19.754,-19.792 -32.917,-14.809c-13.108,4.979 -19.791,19.738 -14.808,32.879c4.983,13.142 19.758,19.809 32.9,14.83" style="fill:#3e5253;"/><path d="M1528.6,845.022c13.142,-4.983 19.792,-19.758 14.808,-32.9c-4.966,-13.125 -19.758,-19.792 -32.883,-14.825c-13.142,4.983 -19.808,19.758 -14.825,32.9c4.983,13.142 19.754,19.792 32.9,14.825" style="fill:#3e5253;"/><path d="M1330.56,662.21c20.021,-7.588 30.142,-30.088 22.571,-50.105c-7.571,-20 -30.087,-30.154 -50.087,-22.57c-20.017,7.587 -30.171,30.087 -22.588,50.104c7.588,20 30.088,30.158 50.104,22.571" style="fill:#3e5253;"/><path d="M1220.5,547.418c20.016,-7.588 30.154,-30.088 22.587,-50.104c-7.587,-20.017 -30.104,-30.154 -50.104,-22.571c-20.021,7.587 -30.175,30.071 -22.588,50.104c7.588,20 30.088,30.142 50.105,22.571" style="fill:#3e5253;"/><path d="M1312.65,498.443c20.02,-7.588 30.158,-30.088 22.587,-50.104c-7.587,-20.017 -30.104,-30.159 -50.104,-22.571c-20.017,7.571 -30.171,30.071 -22.588,50.087c7.588,20.017 30.088,30.159 50.105,22.588" style="fill:#3e5253;"/><path d="M1407.06,566.305c10,-3.8 15.067,-15.05 11.283,-25.05c-3.783,-10 -15.033,-15.087 -25.033,-11.283c-10.017,3.783 -15.087,15.033 -11.321,25.033c3.804,10.017 15.071,15.088 25.071,11.3" style="fill:#3e5253;"/><path d="M1488,637.226c21.837,-8.262 32.916,-32.829 24.633,-54.671c-8.263,-21.837 -32.829,-32.916 -54.671,-24.633c-21.837,8.263 -32.933,32.829 -24.65,54.671c8.279,21.837 32.846,32.917 54.688,24.633" style="fill:#3e5253;"/><path d="M1598.33,776.897c21.841,-8.262 32.916,-32.846 24.633,-54.687c-8.262,-21.821 -32.829,-32.9 -54.667,-24.634c-21.841,8.279 -32.937,32.846 -24.654,54.688c8.279,21.837 32.829,32.896 54.688,24.633" style="fill:#3e5253;"/><path d="M1513.97,703.339c10.434,-3.942 15.713,-15.659 11.755,-26.075c-3.942,-10.417 -15.642,-15.679 -26.075,-11.754c-10.417,3.958 -15.696,15.675 -11.755,26.075c3.942,10.433 15.659,15.695 26.075,11.754" style="fill:#3e5253;"/><path d="M1614.28,637.697c10.417,-3.942 15.696,-15.662 11.754,-26.079c-3.958,-10.417 -15.658,-15.692 -26.096,-11.75c-10.396,3.958 -15.691,15.658 -11.733,26.075c3.942,10.417 15.658,15.696 26.075,11.754" style="fill:#3e5253;"/><path d="M1653.03,511.48c10.433,-3.941 15.712,-15.658 11.754,-26.075c-3.942,-10.416 -15.642,-15.695 -26.075,-11.754c-10.4,3.942 -15.696,15.675 -11.737,26.075c3.925,10.417 15.658,15.696 26.058,11.754" style="fill:#3e5253;"/><path d="M1565.06,543.98c16.629,-6.32 25.067,-25.016 18.75,-41.666c-6.287,-16.634 -25,-25.05 -41.633,-18.75c-16.633,6.283 -25.071,25 -18.783,41.633c6.316,16.65 25.016,25.067 41.666,18.783" style="fill:#3e5253;"/><path d="M1671.92,425.68c19.55,-7.412 29.463,-29.391 22.05,-48.92c-7.395,-19.55 -29.375,-29.446 -48.925,-22.05c-19.545,7.412 -29.425,29.391 -22.045,48.925c7.412,19.545 29.391,29.441 48.92,22.045" style="fill:#3e5253;"/><path d="M1566.36,405.11c15.538,-5.888 23.421,-23.35 17.534,-38.909c-5.884,-15.537 -23.367,-23.416 -38.905,-17.533c-15.554,5.887 -23.42,23.367 -17.533,38.925c5.883,15.521 23.367,23.4 38.904,17.517" style="fill:#3e5253;"/><path d="M1327.56,323.268c23.4,-8.871 35.275,-35.192 26.404,-58.592c-8.87,-23.404 -35.191,-35.279 -58.591,-26.425c-23.421,8.871 -35.279,35.192 -26.409,58.613c8.855,23.4 35.192,35.275 58.596,26.404" style="fill:#3e5253;"/><path d="M1175.29,395.91c15.379,-5.834 23.175,-23.125 17.359,-38.509c-5.834,-15.416 -23.142,-23.196 -38.542,-17.362c-15.379,5.816 -23.175,23.125 -17.342,38.508c5.817,15.4 23.125,23.196 38.525,17.363" style="fill:#3e5253;"/><path d="M1477.85,147.818c15.383,-5.833 23.179,-23.125 17.362,-38.508c-5.833,-15.4 -23.141,-23.192 -38.525,-17.359c-15.4,5.813 -23.191,23.125 -17.358,38.521c5.833,15.4 23.125,23.179 38.521,17.346" style="fill:#3e5253;"/><path d="M1658.05,144.518c15.383,-5.833 23.195,-23.142 17.362,-38.525c-5.817,-15.396 -23.142,-23.192 -38.525,-17.375c-15.4,5.833 -23.196,23.142 -17.362,38.521c5.833,15.4 23.125,23.212 38.525,17.379" style="fill:#3e5253;"/><path d="M1797.98,114.83c15.379,-5.833 23.192,-23.125 17.358,-38.525c-5.833,-15.395 -23.141,-23.191 -38.525,-17.358c-15.396,5.817 -23.191,23.125 -17.358,38.525c5.833,15.379 23.125,23.192 38.525,17.358" style="fill:#3e5253;"/><path d="M1774.47,228.597c15.4,-5.833 23.195,-23.125 17.362,-38.504c-5.833,-15.417 -23.146,-23.213 -38.525,-17.379c-15.4,5.833 -23.179,23.141 -17.346,38.525c5.817,15.4 23.125,23.191 38.509,17.358" style="fill:#3e5253;"/><path d="M1813.55,476.826c15.383,-5.833 23.196,-23.141 17.362,-38.521c-5.833,-15.4 -23.141,-23.179 -38.541,-17.345c-15.384,5.816 -23.18,23.125 -17.346,38.508c5.816,15.4 23.125,23.192 38.525,17.358" style="fill:#3e5253;"/><path d="M1706.75,647.939c20.258,-7.675 30.537,-30.467 22.862,-50.713c-7.671,-20.258 -30.45,-30.537 -50.729,-22.862c-20.242,7.671 -30.504,30.45 -22.846,50.729c7.675,20.242 30.467,30.521 50.713,22.846" style="fill:#3e5253;"/><path d="M1771.87,585.822c11.042,-4.183 16.65,-16.6 12.467,-27.642c-4.187,-11.041 -16.6,-16.629 -27.642,-12.445c-11.041,4.166 -16.629,16.579 -12.445,27.62c4.183,11.042 16.579,16.65 27.62,12.467" style="fill:#3e5253;"/><path d="M1727.15,840.526c19.945,-7.554 30.066,-30 22.5,-49.95c-7.555,-19.946 -29.984,-30.066 -49.934,-22.516c-19.946,7.554 -30.066,30 -22.516,49.966c7.554,19.946 30,30.05 49.95,22.5" style="fill:#3e5253;"/><path d="M1690.93,733.651c9.983,-3.783 15.033,-15 11.25,-24.983c-3.783,-9.983 -15,-15.033 -24.967,-11.267c-9.983,3.784 -15.033,15 -11.25,24.984c3.767,9.983 15,15.033 24.967,11.266" style="fill:#3e5253;"/><path d="M1792.21,354.71c12.604,-4.775 18.996,-18.942 14.221,-31.546c-4.775,-12.604 -18.942,-18.992 -31.546,-14.234c-12.604,4.771 -19.012,18.959 -14.221,31.563c4.759,12.621 18.942,18.992 31.546,14.217" style="fill:#3e5253;"/><path d="M1658.62,316.239c12.604,-4.759 18.991,-18.942 14.216,-31.546c-4.775,-12.604 -18.941,-18.992 -31.562,-14.238c-12.604,4.775 -18.992,18.959 -14.2,31.563c4.758,12.621 18.941,18.996 31.546,14.221" style="fill:#3e5253;"/><path d="M1724.59,317.801c10.017,-3.804 15.105,-15.071 11.305,-25.087c-3.788,-10.017 -15.071,-15.104 -25.088,-11.304c-10.037,3.787 -15.087,15.07 -11.304,25.087c3.787,10.017 15.071,15.088 25.087,11.304" style="fill:#3e5253;"/><path d="M1564.23,285.805c21.042,-7.97 31.717,-31.633 23.75,-52.691c-7.988,-21.042 -31.65,-31.704 -52.692,-23.734c-21.041,7.967 -31.721,31.65 -23.75,52.692c7.967,21.058 31.65,31.717 52.692,23.733" style="fill:#3e5253;"/><path d="M1389.19,342.697c11.721,-4.429 17.675,-17.621 13.213,-29.342c-4.425,-11.737 -17.604,-17.675 -29.342,-13.229c-11.733,4.446 -17.671,17.638 -13.229,29.359c4.429,11.716 17.625,17.675 29.358,13.212" style="fill:#3e5253;"/><path d="M1470.96,292.835c11.721,-4.446 17.659,-17.638 13.229,-29.359c-4.441,-11.733 -17.637,-17.671 -29.358,-13.212c-11.733,4.429 -17.671,17.604 -13.229,29.341c4.429,11.738 17.625,17.659 29.358,13.23" style="fill:#3e5253;"/><path d="M1134.23,315.264c11.717,-4.425 17.671,-17.621 13.229,-29.338c-4.446,-11.737 -17.625,-17.675 -29.358,-13.246c-11.738,4.459 -17.675,17.638 -13.229,29.355c4.441,11.737 17.637,17.675 29.358,13.229" style="fill:#3e5253;"/><path d="M1029.78,303.218c11.717,-4.429 17.675,-17.621 13.229,-29.342c-4.446,-11.754 -17.621,-17.675 -29.358,-13.246c-11.717,4.446 -17.675,17.638 -13.229,29.359c4.446,11.733 17.637,17.671 29.358,13.229" style="fill:#3e5253;"/><path d="M938.896,370.943c11.72,-4.446 17.675,-17.638 13.229,-29.358c-4.442,-11.738 -17.621,-17.675 -29.354,-13.23c-11.738,4.43 -17.675,17.621 -13.23,29.342c4.425,11.733 17.621,17.671 29.355,13.246" style="fill:#3e5253;"/><path d="M1056.08,235.614c19.896,-7.538 29.983,-29.913 22.45,-49.809c-7.554,-19.879 -29.912,-29.966 -49.808,-22.45c-19.896,7.555 -29.984,29.913 -22.45,49.809c7.554,19.896 29.912,29.983 49.808,22.45" style="fill:#3e5253;"/><path d="M1185.63,292.243c10.433,-3.938 15.713,-15.658 11.754,-26.092c-3.941,-10.416 -15.658,-15.712 -26.075,-11.754c-10.437,3.958 -15.712,15.679 -11.771,26.096c3.959,10.417 15.675,15.708 26.092,11.75" style="fill:#3e5253;"/><path d="M1354.45,130.318c21.042,-7.988 31.717,-31.65 23.75,-52.692c-7.988,-21.058 -31.633,-31.716 -52.692,-23.75c-21.041,7.971 -31.721,31.634 -23.75,52.692c7.988,21.042 31.65,31.717 52.692,23.75" style="fill:#3e5253;"/><path d="M1561.17,138.789c11.72,-4.442 17.658,-17.638 13.212,-29.359c-4.425,-11.733 -17.604,-17.67 -29.358,-13.229c-11.717,4.429 -17.654,17.625 -13.213,29.342c4.429,11.754 17.625,17.675 29.359,13.246" style="fill:#3e5253;"/><path d="M1414,216.151c11.737,-4.429 17.675,-17.621 13.25,-29.358c-4.463,-11.738 -17.642,-17.654 -29.359,-13.229c-11.737,4.446 -17.691,17.621 -13.229,29.358c4.425,11.738 17.621,17.675 29.338,13.229" style="fill:#3e5253;"/><path d="M1160.84,83.964c11.738,-4.429 17.675,-17.621 13.246,-29.359c-4.441,-11.737 -17.637,-17.675 -29.358,-13.229c-11.733,4.446 -17.688,17.621 -13.229,29.359c4.429,11.737 17.625,17.675 29.341,13.229" style="fill:#3e5253;"/><path d="M1099.59,147.747c20.296,-7.692 30.575,-30.521 22.884,-50.817c-7.675,-20.312 -30.504,-30.57 -50.8,-22.895c-20.313,7.687 -30.592,30.52 -22.9,50.812c7.691,20.296 30.504,30.575 50.816,22.9" style="fill:#3e5253;"/><path d="M1260.2,596.118c10,-3.788 15.071,-15.038 11.283,-25.054c-3.783,-10 -15.033,-15.071 -25.033,-11.284c-10.017,3.784 -15.088,15.05 -11.321,25.05c3.804,10 15.054,15.088 25.071,11.288" style="fill:#3e5253;"/><path d="M1135.29,1348.43c13.142,-4.983 19.809,-19.758 14.825,-32.9c-4.966,-13.141 -19.758,-19.791 -32.9,-14.825c-13.141,4.979 -19.791,19.754 -14.808,32.879c4.967,13.163 19.758,19.809 32.883,14.846" style="fill:#3e5253;"/></svg>