<?xml version="1.0" encoding="UTF-8" standalone="no"?><!DOCTYPE svg PUBLIC "-//W3C//DTD SVG 1.1//EN" "http://www.w3.org/Graphics/SVG/1.1/DTD/svg11.dtd"><svg width="100%" height="100%" viewBox="0 0 2324 522" version="1.1" xmlns="http://www.w3.org/2000/svg" xmlns:xlink="http://www.w3.org/1999/xlink" xml:space="preserve" xmlns:serif="http://www.serif.com/" style="fill-rule:evenodd;clip-rule:evenodd;stroke-linejoin:round;stroke-miterlimit:2;"><path d="M415.306,233.596l34.875,52.179c45.317,-94.046 155.488,-117.554 219.679,-41.417l43.105,-44.366c-25.446,-43.325 -111.321,-62.796 -137.305,-61.763c-69.737,2.779 -130.304,39.517 -160.354,95.367m-216.604,202.791c0.829,0.125 1.663,0.246 2.5,0.35l-2.5,-0.35Zm-68.692,-35.945c0.555,0.591 1.113,1.179 1.68,1.762l-1.68,-1.762Zm-18.012,-25.288l0.387,0.725l0.884,1.629l0.329,0.596c0.4,0.713 0.808,1.417 1.225,2.117l0.25,0.421c0.333,0.554 0.667,1.104 1.004,1.65l0.5,0.795c0.35,0.555 0.704,1.105 1.063,1.65l0.22,0.346c0.459,0.692 0.917,1.367 1.388,2.046l0.404,0.579c0.346,0.488 0.692,0.975 1.042,1.459l0.479,0.658c0.467,0.633 0.937,1.262 1.417,1.887l0.316,0.409c0.425,0.546 0.854,1.091 1.292,1.629l0.396,0.492c0.441,0.545 0.887,1.087 1.341,1.625l0.28,0.329c0.529,0.625 1.07,1.246 1.616,1.862l0.409,0.45c0.445,0.5 0.9,0.996 1.354,1.488l0.416,0.446c0.555,0.591 1.113,1.179 1.68,1.762l0.208,0.204c0.517,0.534 1.05,1.063 1.583,1.584l0.554,0.533l1.359,1.3l0.471,0.433c0.595,0.554 1.2,1.104 1.812,1.642l0.408,0.362c0.496,0.438 1,0.871 1.509,1.305l0.554,0.466c0.596,0.504 1.196,1 1.808,1.496l0.079,0.058l0.017,0.017l0.175,0.138c0.583,0.466 1.163,0.925 1.754,1.379l0.609,0.466c0.487,0.367 0.979,0.738 1.475,1.1l0.591,0.442c0.654,0.471 1.317,0.942 1.979,1.404l0.421,0.292c0.55,0.379 1.1,0.75 1.654,1.112l0.63,0.421c0.675,0.438 1.35,0.875 2.033,1.304l0.042,0.025l0.041,0.03c0.696,0.437 1.396,0.862 2.104,1.279l0.625,0.371c0.55,0.325 1.105,0.645 1.663,0.958l0.546,0.312c0.712,0.4 1.437,0.796 2.162,1.184l0.529,0.275c0.584,0.308 1.175,0.616 1.771,0.912l0.621,0.317c0.7,0.35 1.408,0.692 2.117,1.029l0.154,0.071c0.775,0.362 1.554,0.725 2.337,1.071l0.559,0.246c0.604,0.262 1.212,0.525 1.825,0.779l0.633,0.266c0.754,0.313 1.517,0.613 2.275,0.909l0.546,0.208c0.646,0.25 1.287,0.488 1.942,0.725l0.583,0.208c0.708,0.255 1.425,0.5 2.137,0.738l0.346,0.121c0.792,0.262 1.584,0.512 2.379,0.758l0.7,0.213c0.642,0.191 1.28,0.375 1.921,0.558l0.609,0.171c0.829,0.229 1.666,0.454 2.504,0.666l0.179,0.042c0.792,0.2 1.583,0.392 2.379,0.571l0.592,0.133c0.708,0.163 1.421,0.317 2.137,0.459l0.475,0.1c0.846,0.17 1.696,0.329 2.546,0.479l0.583,0.1c0.667,0.116 1.338,0.225 2.009,0.325l0.758,0.116c0.829,0.125 1.663,0.246 2.5,0.35l0.079,0.009l0.259,0.029c0.75,0.096 1.504,0.179 2.266,0.254l0.817,0.083c0.658,0.063 1.312,0.121 1.971,0.175l0.733,0.055c0.85,0.062 1.704,0.116 2.563,0.162l0.579,0.025c0.716,0.038 1.433,0.058 2.158,0.079l0.658,0.017c0.9,0.025 1.805,0.037 2.713,0.037c0.9,0 1.796,-0.012 2.687,-0.037l0.746,-0.021c0.675,-0.021 1.346,-0.042 2.021,-0.075l0.813,-0.033c0.716,-0.042 1.433,-0.088 2.15,-0.138l0.687,-0.05c0.792,-0.058 1.583,-0.129 2.367,-0.208l0.916,-0.092l1.763,-0.2l0.917,-0.112c0.787,-0.1 1.579,-0.213 2.366,-0.329l0.163,-0.025c0.875,-0.13 1.746,-0.275 2.612,-0.425l0.659,-0.117c0.658,-0.121 1.312,-0.242 1.97,-0.375l0.771,-0.154c0.746,-0.154 1.492,-0.313 2.229,-0.479l0.284,-0.063c0.841,-0.192 1.675,-0.392 2.508,-0.604l0.754,-0.192c0.596,-0.154 1.188,-0.312 1.784,-0.479l0.804,-0.225c0.608,-0.171 1.212,-0.35 1.821,-0.533l0.712,-0.213c0.788,-0.241 1.575,-0.491 2.354,-0.754l0.663,-0.225c0.604,-0.2 1.2,-0.408 1.796,-0.621l0.775,-0.283c0.558,-0.2 1.116,-0.413 1.67,-0.621l0.805,-0.308c0.733,-0.288 1.458,-0.579 2.187,-0.879l0.808,-0.342l1.559,-0.675l0.883,-0.396l1.554,-0.712l0.725,-0.338c0.742,-0.354 1.479,-0.712 2.213,-1.079l0.575,-0.296c0.529,-0.275 1.058,-0.55 1.583,-0.825l0.988,-0.529l1.162,-0.638l1.008,-0.566c0.646,-0.367 1.288,-0.738 1.921,-1.117l1.079,-0.654l0.988,-0.608l1.1,-0.692l1.029,-0.667l1.054,-0.696l0.071,-0.045c0.579,-0.392 1.158,-0.78 1.729,-1.18l0.009,-0.004l1.016,-0.729l0.892,-0.637l1.1,-0.813l0.917,-0.687l1.045,-0.805l0.696,-0.545c0.704,-0.563 1.409,-1.13 2.1,-1.709l0.709,-0.587c0.366,-0.309 0.729,-0.621 1.095,-0.938l0.7,-0.608l1.13,-1l0.395,-0.367c0.817,-0.741 1.625,-1.5 2.421,-2.262l0.354,-0.346l1.171,-1.15l0.521,-0.529c0.379,-0.384 0.758,-0.771 1.133,-1.159l0.338,-0.358c0.804,-0.842 1.592,-1.696 2.367,-2.562l0.208,-0.23c0.387,-0.433 0.771,-0.87 1.15,-1.312l0.387,-0.45c0.38,-0.442 0.755,-0.883 1.125,-1.333l0.167,-0.2c1.242,-1.505 2.446,-3.038 3.613,-4.609l0.225,-0.3c0.366,-0.496 0.729,-0.991 1.087,-1.491l0.154,-0.225c1.121,-1.571 2.196,-3.171 3.238,-4.8l0.254,-0.4c0.325,-0.513 0.642,-1.03 0.962,-1.55l0.13,-0.217c1.029,-1.696 2.016,-3.421 2.954,-5.175l0.108,-0.2c0.308,-0.579 0.617,-1.158 0.917,-1.746l0.058,-0.121c0.908,-1.783 1.771,-3.591 2.588,-5.425l0.133,-0.296c0.262,-0.591 0.521,-1.183 0.771,-1.779c5.671,-13.462 8.816,-28.229 8.816,-43.737c0,-63.275 -52.258,-113.492 -115.937,-113.492c-63.696,0 -116.767,50.217 -116.767,113.492c0,18.666 4.621,36.271 12.767,51.808m259.892,-146.733c3.2,3.962 6.42,8.021 9.658,12.166c36.525,49.88 61.267,105.055 106.871,150.846c3.587,4.004 7.462,7.671 11.575,10.992l0.171,0.158l0.008,-0.012c51.708,41.575 140.917,29.8 167.792,-31.546l-97.675,0.687l-0,-63.154l169.208,0c3.308,101.325 -63.775,181.721 -163.838,181.721c-53.129,0 -100.895,-22.383 -133.925,-58.008l0,0.008c-0.808,-0.879 -1.608,-1.762 -2.404,-2.65l-0.2,-0.225c-19.391,-21.571 -35.679,-44.217 -50.346,-67.429c-20.733,75.821 -91.033,131.633 -174.583,131.633c-44.942,0 -86.046,-16.154 -117.671,-42.879c-33.829,-26.912 -57.471,-65.537 -64.404,-109.542c-15.6,-1.02 -27.942,-13.995 -27.942,-29.858c0,-16.212 12.896,-29.412 28.992,-29.908c4.188,-21.646 12.433,-41.884 23.946,-59.946c-5.779,-9.638 -11.7,-19.504 -11.7,-30.817c-0,-22.996 18.646,-41.641 41.646,-41.641c16.187,-0 24.029,6.858 30.779,14.17c18.221,-10.658 38.542,-18.27 60.2,-22.112c-0.088,-0.904 -0.146,-1.9 -0.146,-3.008c0,-16.525 13.4,-29.925 29.925,-29.925c16.529,-0 29.925,13.4 29.925,29.925c0,0.32 -0.004,0.637 -0.017,0.954c57.684,7.387 106.821,41.546 134.155,89.4" style="fill:#9aa098;"/><path d="M142.385,174.079c14.242,-5.392 21.455,-21.404 16.063,-35.646c-5.392,-14.241 -21.404,-21.458 -35.65,-16.066c-14.242,5.395 -21.454,21.408 -16.063,35.65c5.392,14.241 21.409,21.458 35.65,16.062" style="fill:#3e5253;"/><path d="M89.31,340.408c14.242,-5.391 21.459,-21.404 16.063,-35.65c-5.392,-14.241 -21.404,-21.454 -35.65,-16.062c-14.242,5.396 -21.454,21.408 -16.063,35.65c5.392,14.241 21.409,21.454 35.65,16.062" style="fill:#3e5253;"/><path d="M73.735,446.992c12.7,-4.813 19.134,-19.096 14.325,-31.796c-4.808,-12.7 -19.091,-19.138 -31.795,-14.329c-12.7,4.812 -19.134,19.091 -14.325,31.795c4.812,12.7 19.091,19.138 31.795,14.33" style="fill:#3e5253;"/><path d="M155.644,460.717c12.7,-4.813 19.133,-19.092 14.325,-31.796c-4.809,-12.696 -19.092,-19.134 -31.796,-14.325c-12.7,4.808 -19.133,19.091 -14.325,31.796c4.808,12.7 19.092,19.137 31.796,14.325" style="fill:#3e5253;"/><path d="M110.948,484.067c8.1,-3.067 12.2,-12.171 9.133,-20.271c-3.066,-8.096 -12.171,-12.2 -20.266,-9.134c-8.1,3.067 -12.205,12.171 -9.138,20.267c3.067,8.1 12.171,12.204 20.271,9.138" style="fill:#3e5253;"/><path d="M132.223,504.383c4.829,-1.833 7.279,-7.258 5.45,-12.091c-1.829,-4.825 -7.263,-7.275 -12.092,-5.446c-4.829,1.829 -7.271,7.262 -5.446,12.087c1.83,4.829 7.263,7.279 12.088,5.45" style="fill:#3e5253;"/><path d="M193.748,507.542c8.354,-3.163 12.587,-12.559 9.421,-20.913c-3.163,-8.354 -12.559,-12.587 -20.909,-9.421c-8.354,3.163 -12.587,12.559 -9.425,20.909c3.163,8.358 12.559,12.587 20.913,9.425" style="fill:#3e5253;"/><path d="M300.302,431.267c8.354,-3.163 12.588,-12.559 9.425,-20.913c-3.167,-8.354 -12.562,-12.587 -20.912,-9.421c-8.355,3.163 -12.588,12.559 -9.425,20.909c3.162,8.354 12.558,12.587 20.912,9.425" style="fill:#3e5253;"/><path d="M348.523,376.083c11.55,-4.371 17.396,-17.354 13.025,-28.904c-4.371,-11.546 -17.354,-17.396 -28.904,-13.025c-11.546,4.371 -17.396,17.358 -13.025,28.904c4.371,11.55 17.358,17.4 28.904,13.025" style="fill:#3e5253;"/><path d="M213.794,457.092c7.325,-2.775 11.033,-11.009 8.258,-18.33c-2.771,-7.32 -11.004,-11.033 -18.329,-8.258c-7.317,2.775 -11.029,11.008 -8.254,18.329c2.771,7.321 11.004,11.034 18.325,8.259" style="fill:#3e5253;"/><path d="M187.652,434.212c2.888,-1.091 4.346,-4.337 3.254,-7.225c-1.091,-2.887 -4.337,-4.35 -7.225,-3.258c-2.887,1.096 -4.35,4.342 -3.258,7.225c1.096,2.888 4.342,4.354 7.229,3.258" style="fill:#3e5253;"/><path d="M179.84,470.033c2.887,-1.096 4.35,-4.337 3.258,-7.229c-1.096,-2.887 -4.342,-4.346 -7.229,-3.254c-2.884,1.092 -4.35,4.337 -3.254,7.225c1.091,2.887 4.337,4.35 7.225,3.258" style="fill:#3e5253;"/><path d="M164.106,480.183c2.888,-1.091 4.35,-4.337 3.259,-7.225c-1.092,-2.887 -4.342,-4.35 -7.225,-3.258c-2.888,1.096 -4.355,4.342 -3.259,7.229c1.096,2.888 4.342,4.35 7.225,3.254" style="fill:#3e5253;"/><path d="M137.685,481.904c2.888,-1.096 4.35,-4.342 3.259,-7.229c-1.092,-2.888 -4.342,-4.35 -7.225,-3.258c-2.892,1.095 -4.354,4.341 -3.259,7.229c1.092,2.887 4.342,4.35 7.225,3.258" style="fill:#3e5253;"/><path d="M154.823,508.171c2.887,-1.092 4.35,-4.338 3.258,-7.221c-1.091,-2.892 -4.337,-4.354 -7.225,-3.258c-2.887,1.091 -4.354,4.337 -3.258,7.225c1.092,2.887 4.342,4.35 7.225,3.254" style="fill:#3e5253;"/><path d="M170.648,519.362c2.887,-1.091 4.35,-4.341 3.258,-7.229c-1.096,-2.887 -4.341,-4.346 -7.229,-3.254c-2.883,1.092 -4.35,4.342 -3.254,7.225c1.092,2.888 4.337,4.346 7.225,3.258" style="fill:#3e5253;"/><path d="M203.015,521.487c2.887,-1.091 4.35,-4.341 3.258,-7.229c-1.092,-2.887 -4.342,-4.346 -7.225,-3.254c-2.888,1.092 -4.354,4.342 -3.258,7.225c1.091,2.888 4.341,4.346 7.225,3.258" style="fill:#3e5253;"/><path d="M222.727,491.246c4.813,-1.821 7.25,-7.229 5.425,-12.042c-1.817,-4.817 -7.229,-7.25 -12.042,-5.425c-4.808,1.817 -7.245,7.229 -5.425,12.042c1.821,4.808 7.23,7.246 12.042,5.425" style="fill:#3e5253;"/><path d="M235.56,466.575c1.521,-0.579 2.292,-2.288 1.713,-3.808c-0.575,-1.525 -2.283,-2.292 -3.808,-1.721c-1.521,0.579 -2.292,2.291 -1.713,3.812c0.575,1.521 2.288,2.292 3.808,1.717" style="fill:#3e5253;"/><path d="M243.994,457.721c3.412,-1.292 5.146,-5.134 3.85,-8.546c-1.292,-3.417 -5.134,-5.15 -8.55,-3.858c-3.413,1.295 -5.146,5.137 -3.85,8.554c1.291,3.416 5.133,5.146 8.55,3.85" style="fill:#3e5253;"/><path d="M252.702,439.046c5.05,-1.917 7.613,-7.596 5.696,-12.65c-1.913,-5.05 -7.592,-7.613 -12.646,-5.7c-5.054,1.916 -7.612,7.596 -5.696,12.65c1.909,5.05 7.596,7.612 12.646,5.7" style="fill:#3e5253;"/><path d="M229.681,429.183c1.446,-0.55 2.175,-2.171 1.629,-3.612c-0.545,-1.446 -2.166,-2.179 -3.612,-1.634c-1.446,0.55 -2.175,2.171 -1.629,3.617c0.55,1.442 2.171,2.175 3.612,1.629" style="fill:#3e5253;"/><path d="M274.51,457.35c5.68,-2.15 8.555,-8.533 6.405,-14.208c-2.15,-5.68 -8.534,-8.559 -14.209,-6.409c-5.679,2.154 -8.558,8.534 -6.404,14.213c2.15,5.679 8.533,8.558 14.208,6.404" style="fill:#3e5253;"/><path d="M291.21,454.158c2.021,-0.766 3.046,-3.037 2.28,-5.058c-0.763,-2.021 -3.038,-3.046 -5.059,-2.283c-2.021,0.766 -3.041,3.041 -2.279,5.062c0.767,2.021 3.038,3.046 5.058,2.279" style="fill:#3e5253;"/><path d="M254.656,464.271c1.684,-0.638 2.538,-2.534 1.9,-4.213c-0.637,-1.687 -2.529,-2.541 -4.212,-1.904c-1.684,0.642 -2.538,2.533 -1.9,4.221c0.637,1.679 2.533,2.533 4.212,1.896" style="fill:#3e5253;"/><path d="M334.41,453.046c9.142,-3.463 13.771,-13.742 10.309,-22.884c-3.459,-9.141 -13.738,-13.775 -22.884,-10.312c-9.137,3.467 -13.77,13.746 -10.308,22.883c3.458,9.142 13.742,13.775 22.883,10.313" style="fill:#3e5253;"/><path d="M266.981,515.537c12.317,-4.662 18.559,-18.516 13.896,-30.833c-4.662,-12.317 -18.517,-18.554 -30.833,-13.892c-12.317,4.663 -18.559,18.513 -13.892,30.83c4.663,12.316 18.513,18.562 30.829,13.895" style="fill:#3e5253;"/><path d="M386.152,405.083c7.696,-2.916 11.6,-11.571 8.683,-19.271c-2.912,-7.695 -11.57,-11.6 -19.266,-8.683c-7.7,2.913 -11.6,11.571 -8.688,19.271c2.917,7.7 11.575,11.596 19.271,8.683" style="fill:#3e5253;"/><path d="M411.494,344.346c9.237,-3.5 13.921,-13.888 10.421,-23.125c-3.5,-9.238 -13.884,-13.917 -23.121,-10.417c-9.238,3.496 -13.921,13.883 -10.421,23.117c3.5,9.241 13.883,13.921 23.121,10.425" style="fill:#3e5253;"/><path d="M346.444,297.062c9.237,-3.495 13.921,-13.883 10.421,-23.12c-3.5,-9.242 -13.884,-13.917 -23.121,-10.421c-9.238,3.496 -13.921,13.887 -10.421,23.121c3.496,9.237 13.883,13.92 23.121,10.42" style="fill:#3e5253;"/><path d="M349.427,218.425c9.238,-3.496 13.917,-13.883 10.417,-23.121c-3.496,-9.237 -13.884,-13.917 -23.121,-10.421c-9.238,3.496 -13.917,13.888 -10.421,23.125c3.5,9.234 13.888,13.917 23.125,10.417" style="fill:#3e5253;"/><path d="M298.802,156.496c9.238,-3.5 13.921,-13.888 10.421,-23.125c-3.5,-9.238 -13.883,-13.917 -23.121,-10.417c-9.237,3.496 -13.921,13.883 -10.421,23.121c3.5,9.237 13.884,13.917 23.121,10.421" style="fill:#3e5253;"/><path d="M258.923,211.55c9.237,-3.5 13.921,-13.883 10.421,-23.121c-3.5,-9.237 -13.884,-13.921 -23.121,-10.421c-9.238,3.5 -13.921,13.884 -10.421,23.121c3.5,9.238 13.883,13.921 23.121,10.421" style="fill:#3e5253;"/><path d="M223.819,173.704c9.237,-3.496 13.916,-13.883 10.416,-23.121c-3.495,-9.237 -13.883,-13.916 -23.12,-10.421c-9.238,3.5 -13.917,13.888 -10.421,23.125c3.496,9.238 13.887,13.917 23.125,10.417" style="fill:#3e5253;"/><path d="M222.898,133.3c9.237,-3.496 13.917,-13.883 10.421,-23.121c-3.496,-9.237 -13.888,-13.917 -23.125,-10.421c-9.238,3.5 -13.917,13.888 -10.417,23.125c3.496,9.238 13.883,13.917 23.121,10.417" style="fill:#3e5253;"/><path d="M78.865,191.846c9.237,-3.5 13.916,-13.888 10.42,-23.125c-3.5,-9.238 -13.887,-13.917 -23.125,-10.417c-9.237,3.496 -13.916,13.883 -10.416,23.121c3.496,9.237 13.883,13.917 23.121,10.421" style="fill:#3e5253;"/><path d="M144.156,233.437c9.238,-3.495 13.921,-13.883 10.421,-23.12c-3.496,-9.238 -13.883,-13.917 -23.121,-10.421c-9.237,3.5 -13.921,13.887 -10.421,23.125c3.5,9.237 13.884,13.916 23.121,10.416" style="fill:#3e5253;"/><path d="M83.152,278.917c7.542,-2.859 11.363,-11.338 8.508,-18.88c-2.858,-7.541 -11.337,-11.366 -18.879,-8.512c-7.541,2.858 -11.366,11.342 -8.512,18.883c2.858,7.542 11.337,11.367 18.883,8.509" style="fill:#3e5253;"/><path d="M25.473,279.583c7.546,-2.858 11.367,-11.333 8.508,-18.879c-2.858,-7.542 -11.337,-11.362 -18.883,-8.508c-7.542,2.854 -11.363,11.337 -8.508,18.879c2.858,7.546 11.341,11.367 18.883,8.508" style="fill:#3e5253;"/><path d="M124.756,248.575c4.059,-1.538 6.117,-6.1 4.579,-10.163c-1.537,-4.058 -6.104,-6.116 -10.162,-4.579c-4.063,1.538 -6.117,6.1 -4.579,10.167c1.537,4.058 6.104,6.112 10.162,4.575" style="fill:#3e5253;"/><path d="M111.423,270.442c4.062,-1.538 6.121,-6.1 4.583,-10.159c-1.537,-4.062 -6.104,-6.121 -10.166,-4.583c-4.059,1.537 -6.113,6.104 -4.575,10.162c1.537,4.063 6.1,6.121 10.158,4.58" style="fill:#3e5253;"/><path d="M102.577,287.479c2.413,-0.912 3.638,-3.629 2.721,-6.046c-0.913,-2.412 -3.629,-3.637 -6.042,-2.721c-2.416,0.913 -3.641,3.63 -2.725,6.042c0.913,2.417 3.629,3.638 6.046,2.725" style="fill:#3e5253;"/><path d="M34.765,341.208c4.741,-1.796 7.145,-7.133 5.35,-11.875c-1.796,-4.741 -7.13,-7.146 -11.871,-5.35c-4.746,1.8 -7.15,7.129 -5.354,11.875c1.795,4.742 7.129,7.146 11.875,5.35" style="fill:#3e5253;"/><path d="M39.623,311.637c4.746,-1.795 7.146,-7.129 5.35,-11.87c-1.796,-4.746 -7.129,-7.15 -11.875,-5.35c-4.742,1.791 -7.146,7.129 -5.35,11.875c1.8,4.741 7.129,7.145 11.875,5.345" style="fill:#3e5253;"/><path d="M52.115,281.137c2.37,-0.9 3.57,-3.566 2.675,-5.937c-0.9,-2.371 -3.567,-3.575 -5.938,-2.675c-2.371,0.9 -3.575,3.567 -2.675,5.942c0.9,2.37 3.567,3.57 5.938,2.67" style="fill:#3e5253;"/><path d="M52.885,258.742c4.696,-1.78 7.075,-7.059 5.296,-11.759c-1.779,-4.696 -7.062,-7.079 -11.758,-5.3c-4.696,1.779 -7.079,7.063 -5.3,11.763c1.779,4.696 7.062,7.079 11.762,5.296" style="fill:#3e5253;"/><path d="M70.581,248.646c2.513,-0.954 3.784,-3.771 2.834,-6.279c-0.95,-2.513 -3.771,-3.784 -6.28,-2.834c-2.512,0.95 -3.783,3.771 -2.833,6.284c0.95,2.508 3.771,3.779 6.279,2.829" style="fill:#3e5253;"/><path d="M85.285,248.171c2.509,-0.95 3.784,-3.771 2.834,-6.284c-0.95,-2.508 -3.771,-3.779 -6.284,-2.829c-2.508,0.95 -3.783,3.775 -2.833,6.284c0.954,2.508 3.771,3.779 6.283,2.829" style="fill:#3e5253;"/><path d="M34.302,237.996c2.513,-0.95 3.783,-3.771 2.829,-6.279c-0.95,-2.513 -3.771,-3.784 -6.279,-2.83c-2.508,0.95 -3.779,3.771 -2.833,6.28c0.954,2.512 3.775,3.779 6.283,2.829" style="fill:#3e5253;"/><path d="M27.198,224.508c2.508,-0.95 3.779,-3.771 2.829,-6.279c-0.95,-2.512 -3.771,-3.783 -6.283,-2.833c-2.509,0.95 -3.779,3.771 -2.829,6.279c0.954,2.512 3.775,3.783 6.283,2.833" style="fill:#3e5253;"/><path d="M63.665,231.671c4.908,-1.859 7.4,-7.384 5.541,-12.292c-1.862,-4.912 -7.387,-7.4 -12.296,-5.542c-4.912,1.863 -7.4,7.388 -5.537,12.296c1.858,4.913 7.383,7.4 12.292,5.538" style="fill:#3e5253;"/><path d="M89.752,226.187c4.913,-1.862 7.4,-7.383 5.542,-12.295c-1.863,-4.913 -7.384,-7.4 -12.292,-5.538c-4.912,1.858 -7.404,7.383 -5.542,12.296c1.859,4.908 7.384,7.396 12.292,5.537" style="fill:#3e5253;"/><path d="M105.744,207.746c4.912,-1.859 7.4,-7.379 5.537,-12.292c-1.858,-4.912 -7.383,-7.4 -12.291,-5.542c-4.913,1.863 -7.4,7.384 -5.542,12.296c1.862,4.909 7.383,7.4 12.296,5.538" style="fill:#3e5253;"/><path d="M130.198,193.179c2.358,-0.896 3.554,-3.546 2.658,-5.908c-0.891,-2.354 -3.546,-3.55 -5.904,-2.659c-2.358,0.892 -3.554,3.546 -2.662,5.909c0.895,2.358 3.545,3.554 5.908,2.658" style="fill:#3e5253;"/><path d="M40.456,215.479c4.909,-1.862 7.396,-7.379 5.538,-12.287c-1.859,-4.909 -7.379,-7.396 -12.288,-5.538c-4.908,1.863 -7.396,7.379 -5.537,12.288c1.862,4.908 7.379,7.395 12.287,5.537" style="fill:#3e5253;"/><path d="M92.973,158.729c4.283,-1.621 6.454,-6.437 4.833,-10.717c-1.625,-4.287 -6.441,-6.454 -10.725,-4.833c-4.279,1.621 -6.45,6.438 -4.825,10.721c1.621,4.283 6.438,6.45 10.717,4.829" style="fill:#3e5253;"/><path d="M102.577,174.867c2.121,-0.8 3.192,-3.184 2.388,-5.296c-0.796,-2.121 -3.18,-3.192 -5.296,-2.392c-2.121,0.8 -3.192,3.183 -2.388,5.3c0.8,2.117 3.184,3.192 5.296,2.388" style="fill:#3e5253;"/><path d="M162.131,123.75c3.846,-1.458 5.8,-5.788 4.342,-9.638c-1.458,-3.85 -5.788,-5.8 -9.638,-4.341c-3.85,1.458 -5.8,5.787 -4.341,9.637c1.458,3.846 5.787,5.8 9.637,4.342" style="fill:#3e5253;"/><path d="M181.794,112.904c2.504,-0.946 3.771,-3.758 2.821,-6.262c-0.946,-2.5 -3.755,-3.771 -6.263,-2.821c-2.5,0.95 -3.767,3.762 -2.821,6.262c0.95,2.504 3.763,3.767 6.263,2.821" style="fill:#3e5253;"/><path d="M204.61,97.471c2.888,-1.092 4.35,-4.338 3.259,-7.225c-1.096,-2.888 -4.342,-4.35 -7.229,-3.259c-2.888,1.096 -4.35,4.338 -3.255,7.23c1.092,2.887 4.342,4.345 7.225,3.254" style="fill:#3e5253;"/><path d="M194.181,145.367c4.621,-1.746 6.963,-6.938 5.213,-11.559c-1.75,-4.616 -6.946,-6.962 -11.563,-5.212c-4.621,1.75 -6.958,6.946 -5.208,11.566c1.746,4.617 6.942,6.955 11.558,5.205" style="fill:#3e5253;"/><path d="M204.527,204.575c4.617,-1.75 6.958,-6.942 5.213,-11.563c-1.75,-4.616 -6.946,-6.958 -11.567,-5.208c-4.617,1.75 -6.958,6.942 -5.208,11.558c1.75,4.621 6.945,6.963 11.562,5.213" style="fill:#3e5253;"/><path d="M179.631,200.021c2.788,-1.054 4.204,-4.196 3.146,-6.984c-1.054,-2.791 -4.196,-4.204 -6.987,-3.15c-2.788,1.059 -4.205,4.196 -3.146,6.988c1.058,2.792 4.196,4.204 6.987,3.146" style="fill:#3e5253;"/><path d="M172.19,184.858c2.791,-1.058 4.204,-4.191 3.145,-6.983c-1.054,-2.792 -4.195,-4.208 -6.983,-3.15c-2.792,1.058 -4.204,4.196 -3.146,6.987c1.054,2.792 4.192,4.205 6.984,3.146" style="fill:#3e5253;"/><path d="M151.265,191.583c2.791,-1.054 4.204,-4.191 3.145,-6.983c-1.054,-2.792 -4.191,-4.208 -6.983,-3.15c-2.792,1.058 -4.204,4.196 -3.15,6.987c1.058,2.792 4.196,4.205 6.988,3.146" style="fill:#3e5253;"/><path d="M181.027,165.729c2.792,-1.058 4.204,-4.192 3.146,-6.983c-1.054,-2.792 -4.196,-4.209 -6.983,-3.15c-2.792,1.058 -4.205,4.196 -3.146,6.987c1.054,2.792 4.191,4.204 6.983,3.146" style="fill:#3e5253;"/><path d="M171.665,215.121c2.791,-1.054 4.204,-4.192 3.145,-6.988c-1.054,-2.787 -4.191,-4.204 -6.983,-3.146c-2.792,1.059 -4.204,4.196 -3.146,6.988c1.059,2.792 4.192,4.204 6.984,3.146" style="fill:#3e5253;"/><path d="M68.565,387.646c8.47,-3.209 12.762,-12.734 9.558,-21.204c-3.213,-8.475 -12.733,-12.763 -21.208,-9.559c-8.471,3.213 -12.767,12.734 -9.555,21.204c3.209,8.475 12.734,12.767 21.205,9.559" style="fill:#3e5253;"/><path d="M24.369,386.383c3.954,-1.496 5.954,-5.941 4.458,-9.896c-1.5,-3.954 -5.942,-5.954 -9.896,-4.458c-3.958,1.496 -5.962,5.946 -4.458,9.896c1.496,3.954 5.942,5.958 9.896,4.458" style="fill:#3e5253;"/><path d="M13.048,370.496c3.033,-1.15 4.571,-4.563 3.421,-7.6c-1.15,-3.034 -4.559,-4.571 -7.596,-3.421c-3.033,1.15 -4.575,4.562 -3.425,7.596c1.154,3.033 4.562,4.575 7.6,3.425" style="fill:#3e5253;"/><path d="M38.819,362.825c3.033,-1.146 4.571,-4.563 3.421,-7.6c-1.15,-3.033 -4.559,-4.571 -7.596,-3.421c-3.034,1.15 -4.575,4.563 -3.425,7.596c1.154,3.037 4.562,4.575 7.6,3.425" style="fill:#3e5253;"/><path d="M51.152,350.317c4.213,-1.596 6.346,-6.334 4.75,-10.546c-1.592,-4.213 -6.329,-6.346 -10.542,-4.75c-4.212,1.596 -6.345,6.333 -4.75,10.541c1.592,4.213 6.33,6.35 10.542,4.755" style="fill:#3e5253;"/><path d="M7.869,346.333c2.658,-1.008 4.008,-4 3.004,-6.662c-1.008,-2.663 -4,-4.009 -6.663,-3c-2.662,1.008 -4.012,4 -3,6.658c1.005,2.658 4,4.008 6.659,3.004" style="fill:#3e5253;"/><path d="M13.569,324.996c5.162,-1.954 7.779,-7.759 5.821,-12.921c-1.955,-5.158 -7.759,-7.779 -12.917,-5.825c-5.163,1.958 -7.779,7.762 -5.825,12.925c1.954,5.162 7.758,7.775 12.921,5.821" style="fill:#3e5253;"/><path d="M13.902,300.217c2.708,-1.025 4.079,-4.067 3.058,-6.78c-1.029,-2.704 -4.07,-4.075 -6.779,-3.05c-2.708,1.025 -4.083,4.071 -3.058,6.775c1.029,2.709 4.075,4.08 6.779,3.055" style="fill:#3e5253;"/><path d="M107.89,232.504c2.708,-1.025 4.079,-4.067 3.054,-6.775c-1.029,-2.708 -4.071,-4.079 -6.779,-3.054c-2.709,1.021 -4.08,4.067 -3.055,6.779c1.025,2.704 4.071,4.079 6.78,3.05" style="fill:#3e5253;"/><path d="M69.765,207.792c2.704,-1.025 4.079,-4.071 3.054,-6.78c-1.029,-2.708 -4.075,-4.079 -6.779,-3.054c-2.709,1.025 -4.08,4.071 -3.055,6.779c1.025,2.709 4.067,4.08 6.78,3.055" style="fill:#3e5253;"/><path d="M54.24,195.292c2.712,-1.025 4.083,-4.071 3.058,-6.78c-1.029,-2.708 -4.071,-4.079 -6.779,-3.054c-2.709,1.025 -4.079,4.071 -3.054,6.775c1.025,2.713 4.07,4.084 6.775,3.059" style="fill:#3e5253;"/><path d="M70.435,466.4c2.888,-1.092 4.35,-4.338 3.259,-7.229c-1.096,-2.888 -4.342,-4.346 -7.225,-3.254c-2.888,1.095 -4.354,4.341 -3.259,7.225c1.092,2.887 4.338,4.35 7.225,3.258" style="fill:#3e5253;"/><path d="M105.194,436.854c2.887,-1.092 4.35,-4.337 3.258,-7.225c-1.096,-2.887 -4.342,-4.35 -7.225,-3.258c-2.887,1.096 -4.354,4.341 -3.258,7.229c1.091,2.887 4.341,4.35 7.225,3.254" style="fill:#3e5253;"/><path d="M117.069,417.575c4.616,-1.75 6.958,-6.942 5.208,-11.558c-1.746,-4.621 -6.942,-6.963 -11.562,-5.213c-4.617,1.75 -6.959,6.942 -5.209,11.558c1.75,4.621 6.946,6.963 11.563,5.213" style="fill:#3e5253;"/><path d="M91.119,398.637c4.621,-1.75 6.962,-6.945 5.212,-11.562c-1.75,-4.621 -6.946,-6.958 -11.566,-5.213c-4.617,1.75 -6.959,6.946 -5.209,11.563c1.75,4.621 6.946,6.962 11.563,5.212" style="fill:#3e5253;"/><path d="M99.915,360.146c5.291,-2.004 7.975,-7.954 5.97,-13.246c-2.004,-5.292 -7.954,-7.975 -13.245,-5.971c-5.296,2.004 -7.975,7.954 -5.971,13.246c2,5.292 7.954,7.975 13.246,5.971" style="fill:#3e5253;"/><path d="M119.948,395.108c5.292,-2.004 7.975,-7.954 5.967,-13.246c-2,-5.291 -7.95,-7.975 -13.242,-5.97c-5.296,2.004 -7.975,7.958 -5.975,13.25c2.004,5.291 7.958,7.975 13.25,5.966" style="fill:#3e5253;"/><path d="M112.206,370.971c2.646,-1 3.988,-3.979 2.988,-6.621c-1.004,-2.646 -3.979,-3.988 -6.625,-2.983c-2.646,1 -3.988,3.975 -2.988,6.62c1.004,2.646 3.979,3.988 6.625,2.984" style="fill:#3e5253;"/><path d="M91.135,373.358c2.646,-1 3.984,-3.979 2.984,-6.625c-1,-2.646 -3.975,-3.983 -6.621,-2.983c-2.65,1.004 -3.988,3.979 -2.983,6.625c1,2.646 3.975,3.983 6.62,2.983" style="fill:#3e5253;"/><path d="M45.335,395.9c2.646,-1 3.988,-3.979 2.984,-6.625c-1,-2.646 -3.975,-3.988 -6.621,-2.988c-2.65,1.005 -3.988,3.98 -2.988,6.625c1.005,2.646 3.98,3.988 6.625,2.988" style="fill:#3e5253;"/><path d="M34.71,423.096c3.15,-1.192 4.746,-4.738 3.555,-7.888c-1.196,-3.154 -4.738,-4.75 -7.892,-3.558c-3.15,1.196 -4.746,4.737 -3.55,7.887c1.192,3.155 4.737,4.75 7.887,3.559" style="fill:#3e5253;"/><path d="M134.752,405.583c3.15,-1.191 4.75,-4.737 3.554,-7.887c-1.191,-3.154 -4.737,-4.746 -7.887,-3.554c-3.15,1.195 -4.75,4.737 -3.559,7.887c1.196,3.15 4.742,4.746 7.892,3.554" style="fill:#3e5253;"/><path d="M24.848,405.504c2.621,-0.992 3.946,-3.937 2.954,-6.558c-0.992,-2.617 -3.937,-3.946 -6.558,-2.954c-2.621,0.991 -3.95,3.937 -2.954,6.558c0.991,2.621 3.937,3.95 6.558,2.954" style="fill:#3e5253;"/><path d="M185.906,448.483c2.625,-0.991 3.95,-3.937 2.954,-6.558c-0.991,-2.621 -3.933,-3.946 -6.554,-2.954c-2.621,0.991 -3.95,3.937 -2.958,6.558c0.992,2.621 3.942,3.946 6.558,2.954" style="fill:#3e5253;"/><path d="M228.773,519.071c5.062,-1.913 7.629,-7.609 5.712,-12.671c-1.916,-5.063 -7.608,-7.629 -12.679,-5.713c-5.062,1.921 -7.625,7.613 -5.708,12.675c1.921,5.067 7.612,7.625 12.675,5.709" style="fill:#3e5253;"/><path d="M299.856,498.946c5.067,-1.917 7.629,-7.613 5.713,-12.675c-1.917,-5.063 -7.613,-7.629 -12.675,-5.713c-5.063,1.921 -7.625,7.613 -5.709,12.675c1.917,5.067 7.609,7.629 12.671,5.713" style="fill:#3e5253;"/><path d="M306.698,472.779c4.087,-1.546 6.158,-6.146 4.612,-10.225c-1.55,-4.092 -6.145,-6.158 -10.233,-4.612c-4.083,1.55 -6.158,6.141 -4.608,10.229c1.546,4.087 6.146,6.158 10.229,4.608" style="fill:#3e5253;"/><path d="M331.594,483.058c2.716,-1.033 4.091,-4.087 3.066,-6.804c-1.033,-2.717 -4.087,-4.092 -6.804,-3.062c-2.716,1.025 -4.091,4.079 -3.062,6.8c1.029,2.716 4.083,4.091 6.8,3.066" style="fill:#3e5253;"/><path d="M360.644,458.421c4.054,-1.534 6.104,-6.088 4.571,-10.142c-1.538,-4.058 -6.092,-6.108 -10.146,-4.575c-4.054,1.533 -6.109,6.096 -4.571,10.146c1.537,4.05 6.092,6.108 10.146,4.571" style="fill:#3e5253;"/><path d="M345.819,471.704c1.362,-0.512 2.046,-2.042 1.533,-3.4c-0.517,-1.358 -2.042,-2.046 -3.4,-1.533c-1.358,0.516 -2.046,2.041 -1.533,3.4c0.516,1.358 2.046,2.046 3.4,1.533" style="fill:#3e5253;"/><path d="M322.577,489.196c1.358,-0.513 2.046,-2.042 1.533,-3.4c-0.516,-1.363 -2.041,-2.046 -3.404,-1.538c-1.354,0.517 -2.046,2.046 -1.529,3.404c0.513,1.355 2.042,2.046 3.4,1.534" style="fill:#3e5253;"/><path d="M323.806,463.958c1.359,-0.512 2.046,-2.041 1.534,-3.404c-0.517,-1.354 -2.042,-2.042 -3.4,-1.529c-1.359,0.517 -2.046,2.042 -1.534,3.4c0.513,1.358 2.046,2.046 3.4,1.533" style="fill:#3e5253;"/><path d="M304.327,444.167c1.358,-0.513 2.042,-2.042 1.533,-3.4c-0.516,-1.359 -2.045,-2.046 -3.4,-1.534c-1.358,0.517 -2.05,2.042 -1.537,3.4c0.517,1.359 2.046,2.05 3.404,1.534" style="fill:#3e5253;"/><path d="M337.381,413.046c4.671,-1.767 7.034,-7.017 5.263,-11.684c-1.767,-4.666 -7.013,-7.033 -11.679,-5.266c-4.667,1.766 -7.03,7.016 -5.263,11.683c1.767,4.667 7.013,7.029 11.679,5.267" style="fill:#3e5253;"/><path d="M355.556,422.842c2.829,-1.071 4.263,-4.255 3.192,-7.084c-1.071,-2.829 -4.25,-4.258 -7.083,-3.191c-2.825,1.075 -4.259,4.254 -3.188,7.083c1.071,2.829 4.25,4.262 7.079,3.192" style="fill:#3e5253;"/><path d="M353.827,440.058c2.154,-0.816 3.246,-3.241 2.429,-5.396c-0.816,-2.158 -3.237,-3.25 -5.396,-2.433c-2.15,0.821 -3.245,3.242 -2.429,5.396c0.817,2.158 3.238,3.25 5.396,2.433" style="fill:#3e5253;"/><path d="M382.969,435.833c5.821,-2.2 8.771,-8.75 6.566,-14.571c-2.204,-5.825 -8.75,-8.775 -14.57,-6.57c-5.83,2.208 -8.775,8.754 -6.571,14.575c2.204,5.82 8.75,8.775 14.575,6.566" style="fill:#3e5253;"/><path d="M408.444,375.446c5.821,-2.2 8.771,-8.75 6.566,-14.571c-2.208,-5.825 -8.75,-8.775 -14.575,-6.571c-5.825,2.208 -8.77,8.754 -6.566,14.575c2.204,5.821 8.75,8.775 14.575,6.567" style="fill:#3e5253;"/><path d="M378.981,357.037c4.8,-1.816 7.234,-7.216 5.417,-12.02c-1.817,-4.805 -7.221,-7.238 -12.021,-5.417c-4.808,1.817 -7.242,7.217 -5.421,12.025c1.821,4.8 7.221,7.233 12.025,5.412" style="fill:#3e5253;"/><path d="M366.048,335.6c4.804,-1.821 7.237,-7.221 5.421,-12.025c-1.821,-4.8 -7.225,-7.233 -12.025,-5.417c-4.804,1.817 -7.238,7.221 -5.421,12.021c1.821,4.808 7.221,7.242 12.025,5.421" style="fill:#3e5253;"/><path d="M342.24,320.246c4.804,-1.821 7.237,-7.221 5.416,-12.025c-1.821,-4.8 -7.221,-7.238 -12.025,-5.417c-4.8,1.821 -7.233,7.221 -5.416,12.025c1.816,4.8 7.22,7.238 12.025,5.417" style="fill:#3e5253;"/><path d="M305.152,393.821c3.15,-1.192 4.75,-4.742 3.554,-7.892c-1.191,-3.154 -4.741,-4.754 -7.896,-3.558c-3.15,1.191 -4.75,4.737 -3.554,7.896c1.192,3.15 4.742,4.75 7.896,3.554" style="fill:#3e5253;"/><path d="M381.356,321.129c3.154,-1.196 4.754,-4.742 3.563,-7.896c-1.196,-3.158 -4.746,-4.75 -7.9,-3.558c-3.154,1.196 -4.75,4.742 -3.554,7.892c1.195,3.154 4.741,4.754 7.891,3.562" style="fill:#3e5253;"/><path d="M388.598,303.717c3.15,-1.192 4.75,-4.742 3.558,-7.896c-1.196,-3.154 -4.741,-4.75 -7.9,-3.554c-3.146,1.195 -4.75,4.737 -3.554,7.891c1.196,3.154 4.742,4.754 7.896,3.559" style="fill:#3e5253;"/><path d="M366.865,301.404c3.154,-1.196 4.75,-4.742 3.554,-7.896c-1.192,-3.15 -4.742,-4.75 -7.892,-3.558c-3.154,1.196 -4.754,4.742 -3.558,7.896c1.196,3.154 4.741,4.75 7.896,3.558" style="fill:#3e5253;"/><path d="M319.335,257.529c4.805,-1.821 7.234,-7.221 5.417,-12.025c-1.817,-4.8 -7.221,-7.237 -12.021,-5.417c-4.804,1.821 -7.241,7.221 -5.421,12.025c1.821,4.8 7.221,7.238 12.025,5.417" style="fill:#3e5253;"/><path d="M292.919,229.979c4.804,-1.821 7.237,-7.221 5.421,-12.025c-1.821,-4.804 -7.225,-7.237 -12.025,-5.417c-4.805,1.821 -7.242,7.217 -5.421,12.025c1.821,4.8 7.221,7.234 12.025,5.417" style="fill:#3e5253;"/><path d="M315.035,218.225c4.805,-1.821 7.238,-7.221 5.421,-12.025c-1.821,-4.804 -7.225,-7.238 -12.025,-5.417c-4.804,1.817 -7.241,7.217 -5.421,12.021c1.821,4.804 7.221,7.238 12.025,5.421" style="fill:#3e5253;"/><path d="M337.694,234.512c2.4,-0.912 3.616,-3.612 2.708,-6.012c-0.908,-2.4 -3.608,-3.621 -6.008,-2.708c-2.404,0.908 -3.621,3.608 -2.717,6.008c0.913,2.404 3.617,3.621 6.017,2.712" style="fill:#3e5253;"/><path d="M357.119,251.533c5.241,-1.983 7.9,-7.879 5.912,-13.121c-1.983,-5.241 -7.879,-7.9 -13.121,-5.912c-5.241,1.983 -7.904,7.879 -5.916,13.121c1.987,5.241 7.883,7.9 13.125,5.912" style="fill:#3e5253;"/><path d="M383.598,285.054c5.242,-1.983 7.9,-7.883 5.912,-13.125c-1.983,-5.237 -7.879,-7.896 -13.12,-5.912c-5.242,1.987 -7.905,7.883 -5.917,13.125c1.987,5.241 7.879,7.895 13.125,5.912" style="fill:#3e5253;"/><path d="M363.352,267.4c2.504,-0.946 3.771,-3.758 2.821,-6.258c-0.946,-2.5 -3.754,-3.763 -6.258,-2.821c-2.5,0.95 -3.767,3.762 -2.821,6.258c0.946,2.504 3.758,3.767 6.258,2.821" style="fill:#3e5253;"/><path d="M387.427,251.646c2.5,-0.946 3.767,-3.759 2.821,-6.259c-0.95,-2.5 -3.758,-3.766 -6.263,-2.82c-2.495,0.95 -3.766,3.758 -2.816,6.258c0.946,2.5 3.758,3.767 6.258,2.821" style="fill:#3e5253;"/><path d="M396.727,221.354c2.504,-0.946 3.771,-3.758 2.821,-6.258c-0.946,-2.5 -3.754,-3.767 -6.258,-2.821c-2.496,0.946 -3.767,3.762 -2.817,6.258c0.942,2.5 3.758,3.767 6.254,2.821" style="fill:#3e5253;"/><path d="M375.615,229.154c3.991,-1.517 6.016,-6.004 4.5,-10c-1.509,-3.992 -6,-6.012 -9.992,-4.5c-3.992,1.508 -6.017,6 -4.508,9.992c1.516,3.996 6.004,6.016 10,4.508" style="fill:#3e5253;"/><path d="M401.26,200.762c4.692,-1.779 7.071,-7.054 5.292,-11.741c-1.775,-4.692 -7.05,-7.067 -11.742,-5.292c-4.691,1.779 -7.062,7.054 -5.291,11.742c1.779,4.691 7.054,7.066 11.741,5.291" style="fill:#3e5253;"/><path d="M375.927,195.825c3.729,-1.413 5.621,-5.604 4.208,-9.338c-1.412,-3.729 -5.608,-5.62 -9.337,-4.208c-3.733,1.413 -5.621,5.608 -4.208,9.342c1.412,3.725 5.608,5.616 9.337,4.204" style="fill:#3e5253;"/><path d="M318.615,176.183c5.616,-2.129 8.466,-8.446 6.337,-14.062c-2.129,-5.617 -8.446,-8.467 -14.062,-6.342c-5.621,2.129 -8.467,8.446 -6.338,14.067c2.125,5.616 8.446,8.466 14.063,6.337" style="fill:#3e5253;"/><path d="M282.069,193.617c3.691,-1.4 5.562,-5.55 4.166,-9.242c-1.4,-3.7 -5.554,-5.567 -9.25,-4.167c-3.691,1.396 -5.562,5.55 -4.162,9.242c1.396,3.696 5.55,5.567 9.246,4.167" style="fill:#3e5253;"/><path d="M354.685,134.075c3.692,-1.4 5.563,-5.55 4.167,-9.242c-1.4,-3.696 -5.554,-5.566 -9.246,-4.166c-3.696,1.395 -5.566,5.55 -4.166,9.245c1.4,3.696 5.55,5.563 9.245,4.163" style="fill:#3e5253;"/><path d="M397.931,133.283c3.692,-1.4 5.567,-5.554 4.167,-9.246c-1.396,-3.695 -5.554,-5.566 -9.246,-4.17c-3.696,1.4 -5.567,5.554 -4.167,9.245c1.4,3.696 5.55,5.571 9.246,4.171" style="fill:#3e5253;"/><path d="M431.515,126.158c3.691,-1.4 5.566,-5.55 4.166,-9.246c-1.4,-3.695 -5.554,-5.566 -9.246,-4.166c-3.695,1.396 -5.566,5.55 -4.166,9.246c1.4,3.691 5.55,5.566 9.246,4.166" style="fill:#3e5253;"/><path d="M425.873,153.462c3.696,-1.4 5.567,-5.55 4.167,-9.241c-1.4,-3.7 -5.555,-5.571 -9.246,-4.171c-3.696,1.4 -5.563,5.554 -4.163,9.246c1.396,3.696 5.55,5.566 9.242,4.166" style="fill:#3e5253;"/><path d="M435.252,213.037c3.692,-1.4 5.567,-5.554 4.167,-9.245c-1.4,-3.696 -5.554,-5.563 -9.25,-4.163c-3.692,1.396 -5.563,5.55 -4.163,9.242c1.396,3.696 5.55,5.566 9.246,4.166" style="fill:#3e5253;"/><path d="M409.619,254.104c4.862,-1.842 7.329,-7.312 5.487,-12.171c-1.841,-4.862 -7.308,-7.329 -12.175,-5.487c-4.858,1.841 -7.321,7.308 -5.483,12.175c1.842,4.858 7.312,7.325 12.171,5.483" style="fill:#3e5253;"/><path d="M425.248,239.196c2.65,-1.004 3.996,-3.984 2.992,-6.634c-1.005,-2.65 -3.984,-3.991 -6.634,-2.987c-2.65,1 -3.991,3.979 -2.987,6.629c1.004,2.65 3.979,3.996 6.629,2.992" style="fill:#3e5253;"/><path d="M414.515,300.325c4.787,-1.813 7.216,-7.2 5.4,-11.988c-1.813,-4.787 -7.196,-7.216 -11.984,-5.404c-4.787,1.813 -7.216,7.2 -5.404,11.992c1.813,4.787 7.2,7.212 11.988,5.4" style="fill:#3e5253;"/><path d="M405.823,274.675c2.396,-0.908 3.608,-3.6 2.7,-5.996c-0.908,-2.396 -3.6,-3.608 -5.992,-2.704c-2.396,0.908 -3.608,3.6 -2.7,5.996c0.904,2.396 3.6,3.608 5.992,2.704" style="fill:#3e5253;"/><path d="M430.131,183.729c3.025,-1.146 4.559,-4.546 3.413,-7.571c-1.146,-3.025 -4.546,-4.558 -7.571,-3.416c-3.025,1.145 -4.563,4.55 -3.413,7.575c1.142,3.029 4.546,4.558 7.571,3.412" style="fill:#3e5253;"/><path d="M398.069,174.496c3.025,-1.142 4.558,-4.546 3.412,-7.571c-1.146,-3.025 -4.546,-4.558 -7.575,-3.417c-3.025,1.146 -4.558,4.55 -3.408,7.575c1.142,3.029 4.546,4.559 7.571,3.413" style="fill:#3e5253;"/><path d="M413.902,174.871c2.404,-0.913 3.625,-3.617 2.713,-6.021c-0.909,-2.404 -3.617,-3.625 -6.021,-2.713c-2.409,0.909 -3.621,3.617 -2.713,6.021c0.909,2.404 3.617,3.621 6.021,2.713" style="fill:#3e5253;"/><path d="M375.415,167.192c5.05,-1.913 7.612,-7.592 5.7,-12.646c-1.917,-5.05 -7.596,-7.609 -12.646,-5.696c-5.05,1.912 -7.613,7.596 -5.7,12.646c1.912,5.054 7.596,7.612 12.646,5.696" style="fill:#3e5253;"/><path d="M333.406,180.846c2.813,-1.063 4.242,-4.229 3.171,-7.042c-1.062,-2.817 -4.225,-4.242 -7.042,-3.175c-2.816,1.067 -4.241,4.233 -3.175,7.046c1.063,2.812 4.23,4.242 7.046,3.171" style="fill:#3e5253;"/><path d="M353.031,168.879c2.813,-1.067 4.238,-4.233 3.175,-7.046c-1.066,-2.816 -4.233,-4.241 -7.046,-3.171c-2.816,1.063 -4.241,4.225 -3.175,7.042c1.063,2.817 4.23,4.238 7.046,3.175" style="fill:#3e5253;"/><path d="M272.215,174.262c2.812,-1.062 4.241,-4.229 3.175,-7.041c-1.067,-2.817 -4.23,-4.242 -7.046,-3.179c-2.817,1.07 -4.242,4.233 -3.175,7.045c1.066,2.817 4.233,4.242 7.046,3.175" style="fill:#3e5253;"/><path d="M247.148,171.371c2.812,-1.063 4.242,-4.229 3.175,-7.042c-1.067,-2.821 -4.229,-4.242 -7.046,-3.179c-2.812,1.067 -4.242,4.233 -3.175,7.046c1.067,2.816 4.233,4.241 7.046,3.175" style="fill:#3e5253;"/><path d="M225.335,187.625c2.813,-1.067 4.242,-4.233 3.175,-7.046c-1.066,-2.817 -4.229,-4.242 -7.045,-3.175c-2.817,1.063 -4.242,4.229 -3.175,7.042c1.062,2.816 4.229,4.241 7.045,3.179" style="fill:#3e5253;"/><path d="M253.46,155.146c4.775,-1.809 7.196,-7.179 5.388,-11.954c-1.813,-4.771 -7.179,-7.192 -11.954,-5.388c-4.775,1.813 -7.196,7.179 -5.388,11.954c1.813,4.775 7.179,7.196 11.954,5.388" style="fill:#3e5253;"/><path d="M284.552,168.737c2.504,-0.945 3.771,-3.758 2.821,-6.262c-0.946,-2.5 -3.758,-3.771 -6.258,-2.821c-2.505,0.95 -3.771,3.763 -2.825,6.263c0.95,2.5 3.762,3.77 6.262,2.82" style="fill:#3e5253;"/><path d="M325.069,129.875c5.05,-1.917 7.612,-7.596 5.7,-12.646c-1.917,-5.054 -7.592,-7.612 -12.646,-5.7c-5.05,1.913 -7.613,7.592 -5.7,12.646c1.917,5.05 7.596,7.612 12.646,5.7" style="fill:#3e5253;"/><path d="M379.585,94.342c7.146,-2.705 10.763,-10.738 8.059,-17.884c-2.704,-7.146 -10.738,-10.762 -17.884,-8.058c-7.145,2.708 -10.766,10.737 -8.062,17.883c2.708,7.146 10.746,10.767 17.887,8.059" style="fill:#3e5253;"/><path d="M416.61,101.246c2.813,-1.063 4.238,-4.229 3.171,-7.042c-1.062,-2.817 -4.229,-4.242 -7.046,-3.175c-2.812,1.067 -4.237,4.229 -3.17,7.046c1.062,2.812 4.229,4.242 7.045,3.171" style="fill:#3e5253;"/><path d="M431.048,63.417c2.812,-1.063 4.242,-4.23 3.175,-7.042c-1.067,-2.821 -4.229,-4.242 -7.046,-3.175c-2.812,1.062 -4.242,4.229 -3.175,7.046c1.067,2.812 4.233,4.237 7.046,3.171" style="fill:#3e5253;"/><path d="M368.185,17.704c2.813,-1.067 4.242,-4.233 3.175,-7.046c-1.066,-2.816 -4.229,-4.241 -7.045,-3.175c-2.817,1.067 -4.242,4.229 -3.175,7.042c1.066,2.821 4.233,4.242 7.045,3.179" style="fill:#3e5253;"/><path d="M462.973,10.571c2.812,-1.063 4.237,-4.229 3.171,-7.042c-1.063,-2.817 -4.229,-4.242 -7.046,-3.175c-2.813,1.067 -4.238,4.233 -3.171,7.046c1.063,2.812 4.229,4.242 7.046,3.171" style="fill:#3e5253;"/><path d="M465.969,58.579c2.816,-1.062 4.241,-4.229 3.175,-7.046c-1.067,-2.816 -4.229,-4.237 -7.046,-3.171c-2.813,1.063 -4.242,4.225 -3.175,7.046c1.067,2.813 4.233,4.238 7.046,3.171" style="fill:#3e5253;"/><path d="M441.31,34.608c2.813,-1.066 4.238,-4.233 3.175,-7.046c-1.066,-2.812 -4.229,-4.241 -7.045,-3.175c-2.817,1.067 -4.242,4.23 -3.175,7.046c1.062,2.813 4.229,4.242 7.045,3.175" style="fill:#3e5253;"/><path d="M406.565,40.975c2.812,-1.067 4.237,-4.233 3.175,-7.046c-1.067,-2.812 -4.23,-4.242 -7.046,-3.175c-2.817,1.067 -4.242,4.229 -3.175,7.046c1.062,2.812 4.229,4.237 7.046,3.175" style="fill:#3e5253;"/><path d="M396.79,73.192c2.816,-1.067 4.241,-4.234 3.175,-7.046c-1.067,-2.813 -4.23,-4.242 -7.046,-3.171c-2.813,1.062 -4.242,4.225 -3.171,7.042c1.062,2.816 4.229,4.241 7.042,3.175" style="fill:#3e5253;"/><path d="M443.427,91.887c2.813,-1.062 4.238,-4.229 3.171,-7.041c-1.063,-2.821 -4.225,-4.242 -7.046,-3.175c-2.812,1.066 -4.237,4.229 -3.171,7.046c1.063,2.812 4.229,4.237 7.046,3.17" style="fill:#3e5253;"/><path d="M374.681,131.908c2.813,-1.066 4.238,-4.233 3.171,-7.046c-1.062,-2.816 -4.225,-4.241 -7.046,-3.175c-2.812,1.063 -4.237,4.23 -3.171,7.042c1.063,2.821 4.23,4.242 7.046,3.179" style="fill:#3e5253;"/><path d="M339.36,150.475c2.817,-1.063 4.242,-4.229 3.18,-7.046c-1.071,-2.817 -4.234,-4.237 -7.046,-3.175c-2.817,1.067 -4.246,4.229 -3.175,7.046c1.062,2.817 4.229,4.242 7.041,3.175" style="fill:#3e5253;"/><path d="M278.602,118.75c2.817,-1.063 4.242,-4.229 3.179,-7.046c-1.066,-2.817 -4.233,-4.242 -7.046,-3.175c-2.816,1.067 -4.245,4.229 -3.175,7.046c1.063,2.817 4.23,4.242 7.042,3.175" style="fill:#3e5253;"/><path d="M294.169,91.279c2.816,-1.067 4.241,-4.229 3.175,-7.046c-1.067,-2.812 -4.229,-4.241 -7.042,-3.171c-2.817,1.063 -4.246,4.225 -3.175,7.042c1.063,2.817 4.229,4.238 7.042,3.175" style="fill:#3e5253;"/><path d="M281.148,67.446c2.812,-1.067 4.242,-4.234 3.175,-7.046c-1.067,-2.813 -4.229,-4.242 -7.046,-3.175c-2.812,1.067 -4.242,4.229 -3.175,7.046c1.067,2.812 4.233,4.237 7.046,3.175" style="fill:#3e5253;"/><path d="M231.756,93.492c4.871,-1.846 7.342,-7.321 5.496,-12.196c-1.846,-4.871 -7.321,-7.338 -12.196,-5.492c-4.871,1.842 -7.337,7.321 -5.491,12.192c1.841,4.871 7.32,7.341 12.191,5.496" style="fill:#3e5253;"/><path d="M263.902,134.058c4.871,-1.846 7.338,-7.325 5.492,-12.196c-1.842,-4.875 -7.321,-7.337 -12.192,-5.495c-4.875,1.845 -7.342,7.325 -5.496,12.195c1.846,4.871 7.321,7.338 12.196,5.496" style="fill:#3e5253;"/><path d="M266.252,96.804c3.563,-1.346 5.371,-5.354 4.021,-8.917c-1.35,-3.558 -5.358,-5.366 -8.921,-4.02c-3.562,1.35 -5.367,5.362 -4.017,8.925c1.35,3.562 5.355,5.362 8.917,4.012" style="fill:#3e5253;"/><path d="M320.219,79.371c3.562,-1.35 5.371,-5.354 4.021,-8.917c-1.35,-3.562 -5.359,-5.367 -8.921,-4.021c-3.563,1.35 -5.367,5.359 -4.017,8.921c1.35,3.558 5.354,5.367 8.917,4.017" style="fill:#3e5253;"/><path d="M321.373,58.158c3.562,-1.35 5.371,-5.354 4.021,-8.916c-1.35,-3.567 -5.359,-5.367 -8.921,-4.021c-3.563,1.35 -5.367,5.354 -4.017,8.916c1.35,3.563 5.354,5.371 8.917,4.021" style="fill:#3e5253;"/><path d="M350.452,75.4c2.638,-1 3.979,-3.971 2.975,-6.608c-1,-2.638 -3.967,-3.975 -6.608,-2.975c-2.638,0.995 -3.975,3.966 -2.975,6.604c1,2.641 3.966,3.979 6.608,2.979" style="fill:#3e5253;"/><path d="M374.96,53.529c2.638,-1 3.98,-3.971 2.98,-6.608c-1,-2.642 -3.971,-3.975 -6.609,-2.975c-2.641,0.996 -3.975,3.962 -2.975,6.604c0.996,2.637 3.963,3.975 6.604,2.979" style="fill:#3e5253;"/><path d="M302.448,241.667c2.4,-0.909 3.617,-3.609 2.708,-6.013c-0.908,-2.4 -3.608,-3.617 -6.008,-2.708c-2.404,0.908 -3.621,3.612 -2.717,6.012c0.913,2.4 3.613,3.621 6.017,2.709" style="fill:#3e5253;"/><path d="M272.469,422.221c3.154,-1.196 4.754,-4.742 3.558,-7.896c-1.192,-3.154 -4.742,-4.75 -7.896,-3.558c-3.154,1.195 -4.75,4.741 -3.554,7.891c1.192,3.159 4.742,4.754 7.892,3.563" style="fill:#3e5253;"/><path d="M856.656,300.267c0,14.691 2.809,28.529 8.425,41.491c5.609,12.963 13.263,24.292 22.967,33.992c9.696,9.696 21.021,17.35 33.983,22.967c12.967,5.612 26.8,8.42 41.5,8.42c9.796,0 19.238,-1.279 28.321,-3.825c9.083,-2.55 17.613,-6.154 25.575,-10.8c7.958,-4.641 15.204,-10.233 21.742,-16.762c6.529,-6.529 12.141,-13.754 16.837,-21.671c4.696,-7.908 8.321,-16.404 10.871,-25.492c2.554,-9.083 3.833,-18.525 3.833,-28.32c0,-9.805 -1.279,-19.246 -3.833,-28.33c-2.55,-9.083 -6.175,-17.604 -10.871,-25.566c-4.696,-7.963 -10.308,-15.213 -16.837,-21.742c-6.538,-6.529 -13.784,-12.15 -21.742,-16.846c-7.962,-4.696 -16.492,-8.316 -25.575,-10.871c-9.083,-2.545 -18.525,-3.825 -28.321,-3.825c-9.804,0 -19.241,1.28 -28.329,3.825c-9.083,2.555 -17.583,6.175 -25.492,10.871c-7.912,4.696 -15.133,10.317 -21.662,16.846c-6.538,6.529 -12.125,13.779 -16.767,21.742c-4.646,7.962 -8.246,16.483 -10.796,25.566c-2.554,9.084 -3.829,18.525 -3.829,28.33m-9.183,-0c-0,-10.617 1.375,-20.875 4.129,-30.775c2.763,-9.9 6.638,-19.167 11.638,-27.792c5.004,-8.625 11.05,-16.488 18.15,-23.575c7.087,-7.096 14.92,-13.175 23.495,-18.225c8.575,-5.054 17.813,-8.979 27.717,-11.792c9.896,-2.808 20.213,-4.212 30.929,-4.212c16.021,-0 31.079,3.066 45.167,9.191c14.083,6.121 26.412,14.467 36.975,25.038c10.562,10.562 18.908,22.883 25.037,36.967c6.121,14.091 9.184,29.15 9.184,45.175c-0,10.712 -1.404,21.025 -4.213,30.925c-2.804,9.9 -6.733,19.137 -11.787,27.712c-5.05,8.575 -11.125,16.408 -18.221,23.504c-7.096,7.096 -14.95,13.146 -23.579,18.146c-8.629,5.004 -17.888,8.879 -27.792,11.633c-9.9,2.755 -20.158,4.134 -30.771,4.134c-10.716,-0 -21.033,-1.379 -30.929,-4.134c-9.904,-2.754 -19.142,-6.629 -27.717,-11.633c-8.575,-5 -16.408,-11.05 -23.495,-18.146c-7.1,-7.096 -13.146,-14.929 -18.15,-23.504c-5,-8.575 -8.875,-17.812 -11.638,-27.712c-2.754,-9.9 -4.129,-20.213 -4.129,-30.925" style="fill:#3e5253;fill-rule:nonzero;"/><path d="M1247.24,187.879c0.916,-1.429 2.037,-2.142 3.366,-2.142c1.121,0 2.221,0.455 3.292,1.38c1.071,0.916 1.608,1.937 1.608,3.058c0,0.917 -0.304,1.892 -0.92,2.912l-72.88,106.871l72.88,106.871c0.616,1.129 0.92,2.042 0.92,2.754c0,1.025 -0.458,1.992 -1.379,2.913c-0.921,0.916 -2.091,1.379 -3.521,1.379c-1.329,-0 -2.45,-0.613 -3.366,-1.842l-70.742,-104.112l-70.429,104.112c-1.125,1.229 -2.246,1.842 -3.367,1.842c-1.021,-0 -2.121,-0.408 -3.291,-1.225c-1.18,-0.817 -1.763,-1.788 -1.763,-2.908c0,-0.921 0.358,-1.888 1.071,-2.913l72.271,-106.871l-72.271,-106.871c-0.713,-1.02 -1.071,-1.995 -1.071,-2.912c0,-1.121 0.633,-2.142 1.913,-3.058c1.275,-0.925 2.375,-1.38 3.291,-1.38c1.021,0 2.092,0.713 3.217,2.142l70.429,104.113l70.742,-104.113Z" style="fill:#3e5253;fill-rule:nonzero;"/><path d="M1427.45,187.879c1.121,-1.429 2.242,-2.142 3.367,-2.142c1.121,0 2.271,0.455 3.446,1.38c1.17,0.916 1.762,1.937 1.762,3.058c0,0.817 -0.412,1.792 -1.225,2.912l-75.025,125.55l0,90.946c0,2.859 -1.404,4.292 -4.212,4.292c-3.013,-0 -4.517,-1.433 -4.517,-4.292l-0,-90.641l-75.329,-125.855c-0.717,-1.02 -1.075,-1.937 -1.075,-2.754c-0,-1.229 0.637,-2.3 1.916,-3.216c1.275,-0.925 2.371,-1.38 3.292,-1.38c1.225,0 2.296,0.713 3.213,2.142l72.2,121.263l72.187,-121.263Z" style="fill:#3e5253;fill-rule:nonzero;"/><path d="M1639.2,319.096c2.554,-0 3.983,1.279 4.288,3.829l-0,64c-0.205,0.821 -0.488,1.508 -0.842,2.071c-0.354,0.558 -0.992,0.991 -1.913,1.296c-10.208,8.17 -21.512,14.6 -33.912,19.291c-12.404,4.696 -25.704,7.046 -39.892,7.046c-10.716,0 -21.025,-1.379 -30.929,-4.137c-9.896,-2.755 -19.137,-6.659 -27.708,-11.709c-8.575,-5.054 -16.409,-11.104 -23.504,-18.141c-7.096,-7.046 -13.146,-14.88 -18.146,-23.509c-5.004,-8.616 -8.879,-17.858 -11.634,-27.712c-2.754,-9.846 -4.133,-20.134 -4.133,-30.85c0,-10.617 1.379,-20.896 4.133,-30.854c2.755,-9.955 6.63,-19.238 11.634,-27.867c5,-8.625 11.05,-16.479 18.146,-23.579c7.095,-7.092 14.929,-13.192 23.504,-18.292c8.571,-5.108 17.812,-9.058 27.708,-11.871c9.904,-2.808 20.213,-4.212 30.929,-4.212c14.292,-0 27.663,2.429 40.121,7.279c12.45,4.846 23.779,11.404 33.992,19.671c1.525,1.129 2.291,2.3 2.291,3.525c0,1.121 -0.533,2.296 -1.608,3.521c-1.067,1.22 -2.167,1.833 -3.292,1.833c-1.125,-0 -2.195,-0.513 -3.212,-1.533c-9.596,-7.963 -20.138,-14.084 -31.621,-18.367c-11.483,-4.288 -23.704,-6.433 -36.671,-6.433c-9.796,-0 -19.237,1.275 -28.321,3.833c-9.087,2.546 -17.583,6.146 -25.491,10.787c-7.917,4.646 -15.138,10.234 -21.671,16.767c-6.533,6.538 -12.121,13.779 -16.763,21.746c-4.645,7.958 -8.241,16.508 -10.795,25.642c-2.55,9.137 -3.83,18.608 -3.83,28.404c0,9.804 1.28,19.241 3.83,28.325c2.554,9.087 6.15,17.608 10.795,25.571c4.642,7.962 10.23,15.212 16.763,21.741c6.533,6.534 13.754,12.15 21.671,16.846c7.908,4.692 16.404,8.317 25.491,10.867c9.084,2.55 18.525,3.829 28.321,3.829c12.659,-0 24.704,-2.121 36.138,-6.354c11.433,-4.238 21.95,-9.979 31.546,-17.225l-0,-56.35l-67.375,-0c-2.959,-0 -4.442,-1.429 -4.442,-4.284c-0,-2.958 1.483,-4.441 4.442,-4.441l71.962,-0Z" style="fill:#3e5253;fill-rule:nonzero;"/><path d="M1842.54,186.196c3.063,-0 4.588,1.454 4.588,4.362c-0,2.913 -1.525,4.367 -4.588,4.367l-143.925,-0l0,125.767l117.896,-0c3.267,-0 4.896,1.533 4.896,4.583c0,2.862 -1.629,4.287 -4.896,4.287l-117.896,0l0,75.58l147.292,-0c3.063,-0 4.596,1.458 4.596,4.366c-0,2.913 -1.533,4.363 -4.596,4.363l-153.112,-0c-1.121,-0 -1.913,-0.454 -2.371,-1.379c-0.463,-0.913 -0.692,-1.888 -0.692,-2.909l0,-219.096c0,-1.225 0.179,-2.145 0.538,-2.758c0.358,-0.612 0.766,-1.046 1.225,-1.304c0.458,-0.254 0.97,-0.354 1.533,-0.308c0.558,0.054 0.992,0.079 1.3,0.079l148.212,-0Z" style="fill:#3e5253;fill-rule:nonzero;"/><path d="M2065.92,190.633c-0,-2.854 1.429,-4.287 4.287,-4.287c2.854,-0 4.288,1.433 4.288,4.287l-0,225.996c-0.304,2.242 -1.634,3.371 -3.979,3.371c-1.23,-0 -2.117,-0.183 -2.684,-0.538c-0.562,-0.358 -1.096,-0.791 -1.604,-1.304l-169.033,-218.641l-0,210.066c-0,2.859 -1.434,4.292 -4.288,4.292c-3.062,-0 -4.596,-1.433 -4.596,-4.292l0,-223.537c0,-2.863 1.121,-4.292 3.367,-4.292c0.921,0 1.613,0.104 2.071,0.308c0.454,0.209 0.992,0.613 1.604,1.221l170.567,218.954l-0,-211.604Z" style="fill:#3e5253;fill-rule:nonzero;"/><path d="M2124.87,190.633c-0,-2.854 1.529,-4.287 4.591,-4.287c2.859,-0 4.292,1.433 4.292,4.287l-0,218.95c-0,2.859 -1.433,4.292 -4.292,4.292c-3.062,-0 -4.591,-1.433 -4.591,-4.292l-0,-218.95Z" style="fill:#3e5253;fill-rule:nonzero;"/><path d="M2315.03,187.879c0.921,-1.429 2.042,-2.142 3.371,-2.142c1.121,0 2.221,0.455 3.287,1.38c1.075,0.916 1.613,1.937 1.613,3.058c-0,0.917 -0.308,1.892 -0.921,2.912l-72.883,106.871l72.883,106.871c0.613,1.129 0.921,2.042 0.921,2.754c-0,1.025 -0.463,1.992 -1.379,2.913c-0.921,0.916 -2.096,1.379 -3.521,1.379c-1.329,-0 -2.45,-0.613 -3.371,-1.842l-70.737,-104.112l-70.434,104.112c-1.125,1.229 -2.246,1.842 -3.366,1.842c-1.021,-0 -2.117,-0.408 -3.292,-1.225c-1.179,-0.817 -1.763,-1.788 -1.763,-2.908c0,-0.921 0.359,-1.888 1.075,-2.913l72.267,-106.871l-72.267,-106.871c-0.716,-1.02 -1.075,-1.995 -1.075,-2.912c0,-1.121 0.638,-2.142 1.917,-3.058c1.275,-0.925 2.371,-1.38 3.292,-1.38c1.021,0 2.087,0.713 3.212,2.142l70.434,104.113l70.737,-104.113Z" style="fill:#3e5253;fill-rule:nonzero;"/></svg>